<svg width="81" height="80" viewBox="0 0 81 80" fill="none" xmlns="http://www.w3.org/2000/svg">
<path fill-rule="evenodd" clip-rule="evenodd" d="M75.333 62C74.7816 62 74.333 61.5514 74.333 61C74.333 60.4486 74.7816 60 75.333 60C75.8844 60 76.333 60.4486 76.333 61C76.333 61.5514 75.8844 62 75.333 62Z" fill="#DFDFDF"/>
<path fill-rule="evenodd" clip-rule="evenodd" d="M59.333 6C58.7816 6 58.333 5.5514 58.333 5C58.333 4.44855 58.7816 4 59.333 4C59.8844 4 60.333 4.44855 60.333 5C60.333 5.5514 59.8844 6 59.333 6Z" fill="#DFDFDF"/>
<path fill-rule="evenodd" clip-rule="evenodd" d="M10.333 68C9.78161 68 9.33301 67.5514 9.33301 67C9.33301 66.4486 9.78161 66 10.333 66C10.8844 66 11.333 66.4486 11.333 67C11.333 67.5514 10.8844 68 10.333 68Z" fill="#DFDFDF"/>
<path d="M12.333 26C12.333 26.5514 12.7816 27 13.333 27C13.8844 27 14.333 26.5514 14.333 26C14.333 25.4486 13.8844 25 13.333 25C12.7816 25 12.333 25.4486 12.333 26Z" fill="#E1000F"/>
<path d="M16.333 27C15.7816 27 15.333 26.5514 15.333 26C15.333 25.4486 15.7816 25 16.333 25C16.8844 25 17.333 25.4486 17.333 26C17.333 26.5514 16.8844 27 16.333 27Z" fill="#E1000F"/>
<path d="M18.333 26C18.333 26.5514 18.7816 27 19.333 27C19.8844 27 20.333 26.5514 20.333 26C20.333 25.4486 19.8844 25 19.333 25C18.7816 25 18.333 25.4486 18.333 26Z" fill="#E1000F"/>
<path fill-rule="evenodd" clip-rule="evenodd" d="M9.33301 21H23.333C23.8853 21 24.333 21.4477 24.333 22V30C24.333 30.5523 23.8853 31 23.333 31H20.333V32C20.333 32.7043 19.6309 33.1753 18.9916 32.9402L18.8858 32.8944L15.097 31H9.33301C8.82017 31 8.3975 30.614 8.33974 30.1166L8.33301 30V22C8.33301 21.4477 8.78072 21 9.33301 21ZM19.333 29H22.333V23H10.333V29H15.333C15.4494 29 15.5647 29.0203 15.6736 29.0598L15.7802 29.1056L18.333 30.382V30C18.333 29.4872 18.719 29.0645 19.2164 29.0067L19.333 29Z" fill="#E1000F"/>
<path d="M51.333 29C50.7807 29 50.333 29.4477 50.333 30C50.333 30.5523 50.7807 31 51.333 31C51.8853 31 52.333 30.5523 52.333 30C52.333 29.4477 51.8853 29 51.333 29Z" fill="#E1000F"/>
<path fill-rule="evenodd" clip-rule="evenodd" d="M51.333 25C48.5716 25 46.333 27.2386 46.333 30C46.333 32.7614 48.5716 35 51.333 35C54.0944 35 56.333 32.7614 56.333 30C56.333 27.2386 54.0944 25 51.333 25ZM51.333 27C52.9899 27 54.333 28.3431 54.333 30C54.333 31.6569 52.9899 33 51.333 33C49.6762 33 48.333 31.6569 48.333 30C48.333 28.3431 49.6762 27 51.333 27Z" fill="#E1000F"/>
<path fill-rule="evenodd" clip-rule="evenodd" d="M44.3333 21C44.3333 17.1862 43.0215 15 40.3333 15C37.645 15 36.3333 17.1862 36.3333 21C36.3333 21.1254 36.3563 21.2453 36.3984 21.3559C30.8081 22.4673 27.6391 26.2065 26.6562 32.9243L26.5642 33.6144C26.3809 35.1318 26.3024 36.7929 26.3262 38.6015L26.3335 39.0215L26.3291 39.888L26.3448 40.3616C26.3673 42.3322 25.613 44.8561 24.5139 46.4266L20.6225 51.8431L20.5258 51.9946C20.3466 52.3038 20.2539 52.6483 20.2539 53C20.2539 54.1046 21.1493 55 22.2539 55L32.3333 55C32.3333 60.219 35.1143 63 40.3333 63C45.5522 63 48.3333 60.219 48.3333 55L58.4126 55L58.5877 54.9923C58.936 54.9617 59.2714 54.8402 59.5595 54.6385C60.4644 54.005 60.6845 52.758 60.0511 51.8531L56.1454 46.4165L55.9584 46.138C54.981 44.6173 54.3317 42.5478 54.3317 40.8512L54.3329 40.0282L54.3473 39.3681C54.354 38.9321 54.355 38.5046 54.3501 38.0853C54.3436 37.533 53.8907 37.0906 53.3384 37.097C52.7862 37.1035 52.3437 37.5564 52.3502 38.1086C52.3572 38.7106 52.3517 39.3316 52.3336 39.9718L52.3317 40.851L52.3388 41.2052C52.4239 43.3482 53.2656 45.7957 54.5149 47.5747L58.4123 52.999L22.2539 53L26.1454 47.5835L26.3277 47.3125C27.6424 45.2808 28.4615 42.2947 28.3317 39.9448L28.3298 39.8967L28.333 38.9784L28.3259 38.5755C28.175 27.5074 31.8105 23 40.3333 23C42.7668 23 44.7889 23.4211 46.4278 24.2589C46.9195 24.5103 47.522 24.3154 47.7733 23.8237C48.0247 23.3319 47.8299 22.7295 47.3381 22.4781C46.4009 21.999 45.373 21.6381 44.2531 21.3928C44.3047 21.2722 44.3333 21.1394 44.3333 21ZM42.3376 21.0943C42.3347 21.0633 42.3333 21.0318 42.3333 21C42.3333 18.1471 41.645 17 40.3333 17C39.0215 17 38.3333 18.1471 38.3333 21C38.3333 21.0284 38.3321 21.0565 38.3298 21.0842C38.9707 21.0279 39.6384 21 40.3333 21C41.0272 21 41.6952 21.0313 42.3376 21.0943ZM34.3333 55C34.3333 59.1144 36.2189 61 40.3333 61C44.4476 61 46.3333 59.1144 46.3333 55H34.3333Z" fill="#21402C"/>
<path d="M40.3333 68C43.8464 68 46.8684 66.8791 49.0404 64.7071C49.4309 64.3166 49.4309 63.6834 49.0404 63.2929C48.6498 62.9024 48.0167 62.9024 47.6261 63.2929C45.8499 65.0691 43.3403 66 40.3333 66C39.781 66 39.3333 66.4477 39.3333 67C39.3333 67.5523 39.781 68 40.3333 68Z" fill="#21402C"/>
<path d="M51.3333 62C50.7819 62 50.3333 61.5514 50.3333 61C50.3333 60.4486 50.7819 60 51.3333 60C51.8846 60 52.3333 60.4486 52.3333 61C52.3333 61.5514 51.8846 62 51.3333 62Z" fill="#21402C"/>
<path d="M67.3333 35C67.8855 35 68.3333 35.4477 68.3333 36C68.3333 36.5128 67.9472 36.9355 67.4499 36.9933L67.3333 37H63.3333C62.781 37 62.3333 36.5523 62.3333 36C62.3333 35.4872 62.7193 35.0645 63.2166 35.0067L63.3333 35H67.3333Z" fill="#21402C"/>
<path fill-rule="evenodd" clip-rule="evenodd" d="M59.3333 31H71.3333C71.8855 31 72.3333 31.4477 72.3333 32V40L72.3265 40.1166C72.2688 40.614 71.8461 41 71.3333 41H67.5693L63.7805 42.8944L63.6746 42.9402C63.0354 43.1753 62.3333 42.7043 62.3333 42V41H59.3333C58.781 41 58.3333 40.5523 58.3333 40V32C58.3333 31.4477 58.781 31 59.3333 31ZM60.3333 33V39H63.3333L63.4499 39.0067C63.9472 39.0645 64.3333 39.4872 64.3333 40V40.382L66.886 39.1056L66.9927 39.0598C67.1016 39.0203 67.2168 39 67.3333 39H70.3333V33H60.3333Z" fill="#21402C"/>
</svg>
