<svg width="80" height="80" viewBox="0 0 80 80" fill="none" xmlns="http://www.w3.org/2000/svg">
<path fill-rule="evenodd" clip-rule="evenodd" d="M77 55.9996C76.4486 55.9996 76 55.551 76 54.9996C76 54.4482 76.4486 53.9996 77 53.9996C77.5514 53.9996 78 54.4482 78 54.9996C78 55.551 77.5514 55.9996 77 55.9996Z" fill="#DFDFDF"/>
<path fill-rule="evenodd" clip-rule="evenodd" d="M5 59.9996C4.4486 59.9996 4 59.551 4 58.9996C4 58.4482 4.4486 57.9996 5 57.9996C5.5514 57.9996 6 58.4482 6 58.9996C6 59.551 5.5514 59.9996 5 59.9996Z" fill="#DFDFDF"/>
<path fill-rule="evenodd" clip-rule="evenodd" d="M75 21.9996C74.4486 21.9996 74 21.551 74 20.9996C74 20.4482 74.4486 19.9996 75 19.9996C75.5514 19.9996 76 20.4482 76 20.9996C76 21.551 75.5514 21.9996 75 21.9996Z" fill="#DFDFDF"/>
<path fill-rule="evenodd" clip-rule="evenodd" d="M3 25.9996C2.4486 25.9996 2 25.551 2 24.9996C2 24.4482 2.4486 23.9996 3 23.9996C3.5514 23.9996 4 24.4482 4 24.9996C4 25.551 3.5514 25.9996 3 25.9996Z" fill="#DFDFDF"/>
<path fill-rule="evenodd" clip-rule="evenodd" d="M17 7.9996C16.4486 7.9996 16 7.551 16 6.9996C16 6.44816 16.4486 5.9996 17 5.9996C17.5514 5.9996 18 6.44816 18 6.9996C18 7.551 17.5514 7.9996 17 7.9996Z" fill="#DFDFDF"/>
<path fill-rule="evenodd" clip-rule="evenodd" d="M55 47.9996C62.1797 47.9996 68 53.8199 68 60.9996C68 68.1793 62.1797 73.9996 55 73.9996C47.8203 73.9996 42 68.1793 42 60.9996C42 53.8199 47.8203 47.9996 55 47.9996ZM55 49.9996C48.9249 49.9996 44 54.9245 44 60.9996C44 67.0747 48.9249 71.9996 55 71.9996C61.0751 71.9996 66 67.0747 66 60.9996C66 54.9245 61.0751 49.9996 55 49.9996ZM55 53.9996C55.5128 53.9996 55.9355 54.3856 55.9933 54.883L56 54.9996V59.9996H61C61.5523 59.9996 62 60.4473 62 60.9996C62 61.5124 61.614 61.9351 61.1166 61.9929L61 61.9996H56V66.9996C56 67.5519 55.5523 67.9996 55 67.9996C54.4872 67.9996 54.0645 67.6136 54.0067 67.1162L54 66.9996V61.9996H49C48.4477 61.9996 48 61.5519 48 60.9996C48 60.4868 48.386 60.0641 48.8834 60.0063L49 59.9996H54V54.9996C54 54.4473 54.4477 53.9996 55 53.9996ZM43 29.9996C43.5523 29.9996 44 30.4473 44 30.9996C44 31.5124 43.614 31.9351 43.1166 31.9929L43 31.9996H23C22.4477 31.9996 22 31.5519 22 30.9996C22 30.4868 22.386 30.0641 22.8834 30.0063L23 29.9996H43ZM49 23.9996C49.5523 23.9996 50 24.4473 50 24.9996C50 25.5124 49.614 25.9351 49.1166 25.9929L49 25.9996H23C22.4477 25.9996 22 25.5519 22 24.9996C22 24.4868 22.386 24.0641 22.8834 24.0063L23 23.9996H49ZM39 17.9996C39.5523 17.9996 40 18.4473 40 18.9996C40 19.5124 39.614 19.9351 39.1166 19.9929L39 19.9996H23C22.4477 19.9996 22 19.5519 22 18.9996C22 18.4868 22.386 18.0641 22.8834 18.0063L23 17.9996H39Z" fill="#CE614A"/>
<path fill-rule="evenodd" clip-rule="evenodd" d="M55 11.9996C55.5128 11.9996 55.9355 12.3856 55.9933 12.883L56 12.9996V44.9996C56 45.5519 55.5523 45.9996 55 45.9996C54.4872 45.9996 54.0645 45.6136 54.0067 45.1162L54 44.9996V13.9996H18V65.9996H39C39.5128 65.9996 39.9355 66.3856 39.9933 66.883L40 66.9996C40 67.5124 39.614 67.9351 39.1166 67.9929L39 67.9996H17C16.4872 67.9996 16.0645 67.6136 16.0067 67.1162L16 66.9996V12.9996C16 12.4868 16.386 12.0641 16.8834 12.0063L17 11.9996H55ZM33 59.9996C33.5523 59.9996 34 60.4473 34 60.9996C34 61.5124 33.614 61.9351 33.1166 61.9929L33 61.9996H23C22.4477 61.9996 22 61.5519 22 60.9996C22 60.4868 22.386 60.0641 22.8834 60.0063L23 59.9996H33ZM37 53.9996C37.5523 53.9996 38 54.4473 38 54.9996C38 55.5124 37.614 55.9351 37.1166 55.9929L37 55.9996H23C22.4477 55.9996 22 55.5519 22 54.9996C22 54.4868 22.386 54.0641 22.8834 54.0063L23 53.9996H37ZM41 47.9996C41.5523 47.9996 42 48.4473 42 48.9996C42 49.5124 41.614 49.9351 41.1166 49.9929L41 49.9996H23C22.4477 49.9996 22 49.5519 22 48.9996C22 48.4868 22.386 48.0641 22.8834 48.0063L23 47.9996H41ZM45 41.9996C45.5523 41.9996 46 42.4473 46 42.9996C46 43.5124 45.614 43.9351 45.1166 43.9929L45 43.9996H23C22.4477 43.9996 22 43.5519 22 42.9996C22 42.4868 22.386 42.0641 22.8834 42.0063L23 41.9996H45ZM49 35.9996C49.5523 35.9996 50 36.4473 50 36.9996C50 37.5124 49.614 37.9351 49.1166 37.9929L49 37.9996H23C22.4477 37.9996 22 37.5519 22 36.9996C22 36.4868 22.386 36.0641 22.8834 36.0063L23 35.9996H49ZM59 11.9996C59.5128 11.9996 59.9355 12.3856 59.9933 12.883L60 12.9996V44.9996C60 45.5519 59.5523 45.9996 59 45.9996C58.4872 45.9996 58.0645 45.6136 58.0067 45.1162L58 44.9996V12.9996C58 12.4473 58.4477 11.9996 59 11.9996Z" fill="#21402C"/>
</svg>
