<svg width="80" height="80" viewBox="0 0 80 80" fill="none" xmlns="http://www.w3.org/2000/svg">
<path fill-rule="evenodd" clip-rule="evenodd" d="M15 13.9995C14.4486 13.9995 14 13.5509 14 12.9995C14 12.4481 14.4486 11.9995 15 11.9995C15.5514 11.9995 16 12.4481 16 12.9995C16 13.5509 15.5514 13.9995 15 13.9995Z" fill="#DFDFDF"/>
<path fill-rule="evenodd" clip-rule="evenodd" d="M5 69.9995C4.4486 69.9995 4 69.5509 4 68.9995C4 68.4481 4.4486 67.9995 5 67.9995C5.5514 67.9995 6 68.4481 6 68.9995C6 69.5509 5.5514 69.9995 5 69.9995Z" fill="#DFDFDF"/>
<path fill-rule="evenodd" clip-rule="evenodd" d="M75 63.9995C74.4486 63.9995 74 63.5509 74 62.9995C74 62.4481 74.4486 61.9995 75 61.9995C75.5514 61.9995 76 62.4481 76 62.9995C76 63.5509 75.5514 63.9995 75 63.9995Z" fill="#DFDFDF"/>
<path fill-rule="evenodd" clip-rule="evenodd" d="M59 11.9995C58.4486 11.9995 58 11.5509 58 10.9995C58 10.4481 58.4486 9.99951 59 9.99951C59.5514 9.99951 60 10.4481 60 10.9995C60 11.5509 59.5514 11.9995 59 11.9995Z" fill="#CACAFB"/>
<path d="M42.1479 9.99951C58.7164 9.99951 72.1479 23.431 72.1479 39.9995C72.1479 40.5518 71.7001 40.9995 71.1479 40.9995C70.5956 40.9995 70.1479 40.5518 70.1479 39.9995C70.1479 24.5355 57.6118 11.9995 42.1479 11.9995C26.6839 11.9995 14.1479 24.5355 14.1479 39.9995C14.1479 55.4635 26.6839 67.9995 42.1479 67.9995C53.3026 67.9995 63.255 61.417 67.7263 51.4078C67.9515 50.9036 68.5429 50.6774 69.0472 50.9026C69.5514 51.1279 69.7776 51.7193 69.5523 52.2236C64.7621 62.9468 54.0988 69.9995 42.1479 69.9995C25.5793 69.9995 12.1479 56.5681 12.1479 39.9995C12.1479 23.431 25.5793 9.99951 42.1479 9.99951Z" fill="#E1000F"/>
<path d="M71.1479 48.5921C71.1479 49.1853 70.667 49.6662 70.0738 49.6662C69.4806 49.6662 68.9997 49.1853 68.9997 48.5921C68.9997 47.9989 69.4806 47.518 70.0738 47.518C70.667 47.518 71.1479 47.9989 71.1479 48.5921Z" fill="#E1000F"/>
<path d="M14.4929 21.0316C14.0534 20.6971 13.426 20.7821 13.0915 21.2215C9.71184 25.6609 7.85156 31.0793 7.85156 36.7773C7.85156 37.3296 8.29928 37.7773 8.85156 37.7773C9.40385 37.7773 9.85156 37.3296 9.85156 36.7773C9.85156 31.5207 11.566 26.5271 14.6828 22.433C15.0174 21.9936 14.9323 21.3661 14.4929 21.0316Z" fill="#E1000F"/>
<path fill-rule="evenodd" clip-rule="evenodd" d="M55.9965 34.9165C55.2867 26.3989 50.5208 21.9995 42 21.9995C33.4792 21.9995 28.7133 26.3989 28.0035 34.9165C27.9497 35.561 28.5128 36.0862 29.1521 35.9879L31 35.7036V36.1405C30.2842 36.2784 29.7566 36.4694 29.3867 36.7451C28.4488 37.4444 27.9999 38.5627 27.9999 39.9995C27.9999 42.5518 29.4476 43.9995 31.9999 43.9995C32.1088 43.9995 32.2136 43.9821 32.3117 43.9499C33.3755 46.0128 35.0247 47.6984 37.0285 48.7614C37.0099 48.8377 37 48.9175 37 48.9995C37 50.2982 36.3811 51.4523 35.4222 52.183C35.4067 52.194 35.3916 52.2053 35.3768 52.2171C34.7123 52.7088 33.8901 52.9995 33 52.9995H31L30.7751 53.0037C27.5656 53.1219 25 55.7611 25 58.9995C25 59.5518 25.4477 59.9995 26 59.9995C26.5523 59.9995 27 59.5518 27 58.9995C27 56.7904 28.7909 54.9995 31 54.9995H33L33.2249 54.9954C34.0613 54.9645 34.854 54.7625 35.5689 54.4233C36.6411 56.1106 38.6184 56.6257 41.2425 55.9697C41.7783 55.8357 42.1041 55.2928 41.9701 54.757C41.8362 54.2212 41.2933 53.8954 40.7575 54.0294C38.8877 54.4968 37.7957 54.2438 37.2131 53.2715C38.1917 52.3063 38.8402 51.0074 38.9742 49.5594C39.9351 49.846 40.9501 49.9995 42 49.9995C43.0499 49.9995 44.0649 49.846 45.0258 49.5594C45.3013 52.537 47.7527 54.884 50.7751 54.9954L51 54.9995H53C55.2091 54.9995 57 56.7904 57 58.9995C57 59.5518 57.4477 59.9995 58 59.9995C58.5523 59.9995 59 59.5518 59 58.9995C59 55.7611 56.4344 53.1219 53.2249 53.0037L53 52.9995H51C48.7909 52.9995 47 51.2087 47 48.9995C47 48.9175 46.9901 48.8377 46.9715 48.7614C48.9753 47.6984 50.6245 46.0128 51.6883 43.95C51.7864 43.9821 51.8912 43.9995 52 43.9995C54.5523 43.9995 56 42.5518 56 39.9995C56 38.5627 55.5511 37.4444 54.6132 36.7451C54.1076 36.3682 53.3072 36.1498 52.1344 36.0085C52.0917 36.0027 52.048 35.9997 52.0037 35.9995L52.0021 35.9994C51.9056 35.9991 51.8116 36.0127 51.7222 36.0386C51.5782 36.0802 51.4475 36.1532 51.3381 36.2499C51.1446 36.4209 51.0178 36.6656 51.0017 36.9401C51.0002 36.9651 50.9997 36.9901 51 37.0149V38.4995L50.9963 38.7753C50.8579 43.9044 46.8723 47.9995 42 47.9995C37.0406 47.9995 33 43.7568 33 38.4995V35.3959L42.1521 33.9879L42.27 33.9624C42.5398 33.8867 42.7675 33.7006 42.8944 33.4467L43.8944 31.4467L43.9406 31.3394C44.1113 30.8687 43.9059 30.3344 43.4472 30.1051L43.3399 30.0589C42.8692 29.8882 42.3349 30.0936 42.1056 30.5523L41.336 32.0895L30.14 33.8115L30.1582 33.6827C31.1383 27.1505 35.0033 23.9995 42 23.9995L42.3591 24.0023C49.0103 24.1073 52.7461 27.1534 53.7885 33.3479L53.84 33.6785L47.2425 32.0294L47.1278 32.0076C46.6313 31.943 46.1542 32.2595 46.0299 32.757C45.8959 33.2928 46.2217 33.8357 46.7575 33.9697L54.7575 35.9697L54.8743 35.9918C55.4941 36.0722 56.0501 35.5592 55.9965 34.9165ZM31 38.1896C30.7879 38.2453 30.6463 38.3007 30.5822 38.3485C30.2074 38.628 29.9999 39.1448 29.9999 39.9995C29.9999 41.2714 30.4262 41.8521 31.5113 41.9744C31.2063 40.9674 31.0303 39.9007 31.0036 38.7958L31 38.4995V38.1896ZM54 39.9995C54 41.2713 53.5738 41.8521 52.4887 41.9744C52.8209 40.8776 53 39.7101 53 38.4995V38.1896C53.2121 38.2453 53.3536 38.3007 53.4177 38.3485C53.7925 38.628 54 39.1448 54 39.9995Z" fill="#21402C"/>
</svg>
