<svg width="56" height="57" viewBox="0 0 56 57" fill="none" xmlns="http://www.w3.org/2000/svg">
<path fill-rule="evenodd" clip-rule="evenodd" d="M4.2 10.5189C3.81402 10.5189 3.5 10.2049 3.5 9.8189C3.5 9.43288 3.81402 9.1189 4.2 9.1189C4.58598 9.1189 4.9 9.43288 4.9 9.8189C4.9 10.2049 4.58598 10.5189 4.2 10.5189Z" fill="#DFDFDF"/>
<path fill-rule="evenodd" clip-rule="evenodd" d="M41.2996 51.8189C40.9136 51.8189 40.5996 51.5049 40.5996 51.1189C40.5996 50.7329 40.9136 50.4189 41.2996 50.4189C41.6856 50.4189 41.9996 50.7329 41.9996 51.1189C41.9996 51.5049 41.6856 51.8189 41.2996 51.8189Z" fill="#DFDFDF"/>
<path fill-rule="evenodd" clip-rule="evenodd" d="M44.1004 7.0189C43.7144 7.0189 43.4004 6.70488 43.4004 6.3189C43.4004 5.93288 43.7144 5.6189 44.1004 5.6189C44.4864 5.6189 44.8004 5.93288 44.8004 6.3189C44.8004 6.70488 44.4864 7.0189 44.1004 7.0189Z" fill="#DFDFDF"/>
<path fill-rule="evenodd" clip-rule="evenodd" d="M52.4998 36.4189C52.1138 36.4189 51.7998 36.1049 51.7998 35.7189C51.7998 35.3329 52.1138 35.0189 52.4998 35.0189C52.8858 35.0189 53.1998 35.3329 53.1998 35.7189C53.1998 36.1049 52.8858 36.4189 52.4998 36.4189Z" fill="#DFDFDF"/>
<path fill-rule="evenodd" clip-rule="evenodd" d="M19.6208 33.4478C19.7153 33.073 20.0958 32.8456 20.4706 32.9401C20.8455 33.0346 21.0728 33.4151 20.9784 33.7899C20.2781 36.5688 17.7238 38.5189 14.6996 38.5189C11.7536 38.5189 9.25058 36.5778 8.42873 33.8187C8.31836 33.4482 8.52925 33.0584 8.89976 32.948C9.27027 32.8377 9.6601 33.0486 9.77047 33.4191C10.4185 35.5947 12.3839 37.1189 14.6996 37.1189C17.088 37.1189 19.0787 35.599 19.6208 33.4478ZM46.2208 33.4478C46.3153 33.073 46.6958 32.8456 47.0706 32.9401C47.4455 33.0346 47.6728 33.4151 47.5784 33.7899C46.8781 36.5688 44.3238 38.5189 41.2996 38.5189C38.3536 38.5189 35.8506 36.5778 35.0287 33.8187C34.9184 33.4482 35.1293 33.0584 35.4998 32.948C35.8703 32.8377 36.2601 33.0486 36.3705 33.4191C37.0185 35.5947 38.9839 37.1189 41.2996 37.1189C43.688 37.1189 45.6787 35.599 46.2208 33.4478ZM41.2996 23.1189C41.6586 23.1189 41.9545 23.3891 41.9949 23.7373L41.9996 23.8189V26.3284L45.9946 30.3239C46.2679 30.5973 46.2679 31.0405 45.9946 31.3139C45.7422 31.5662 45.3452 31.5856 45.0706 31.3721L45.0046 31.3139L41.2996 27.6094L37.5946 31.3139C37.3212 31.5872 36.878 31.5872 36.6046 31.3139C36.3523 31.0615 36.3329 30.6645 36.5464 30.3899L36.6046 30.3239L40.5996 26.3277V23.8189C40.5996 23.4323 40.913 23.1189 41.2996 23.1189ZM14.6996 23.1189C15.0586 23.1189 15.3545 23.3891 15.3949 23.7373L15.3996 23.8189V26.3284L18.0221 28.9515C18.2955 29.2248 18.2955 29.668 18.0221 29.9414C17.7698 30.1938 17.3727 30.2132 17.0981 29.9996L17.0322 29.9414L14.6996 27.6087L10.9946 31.3139C10.7212 31.5872 10.278 31.5872 10.0046 31.3139C9.75228 31.0615 9.73287 30.6645 9.94639 30.3899L10.0046 30.3239L13.9996 26.3277V23.8189C13.9996 23.4323 14.313 23.1189 14.6996 23.1189ZM19.3946 30.3239C19.6679 30.5973 19.6679 31.0405 19.3946 31.3139C19.1212 31.5872 18.678 31.5872 18.4046 31.3139C18.1313 31.0405 18.1313 30.5973 18.4046 30.3239C18.678 30.0506 19.1212 30.0506 19.3946 30.3239Z" fill="#CE614A"/>
<path fill-rule="evenodd" clip-rule="evenodd" d="M28.0004 9.1189C26.454 9.1189 25.2004 10.3725 25.2004 11.9189C25.2004 13.2016 26.0629 14.2828 27.2395 14.6143C26.8573 16.4462 24.6902 17.86 21.147 18.838L20.6377 18.9731L20.1104 19.1025C19.5742 19.2289 19.0113 19.3466 18.4229 19.4556C16.3867 19.8327 14.199 20.0757 12.0104 20.2109C11.7548 20.2266 11.5054 20.2405 11.2627 20.2527L10.5559 20.284C10.3275 20.2927 10.1067 20.2998 9.89399 20.3055L9.57914 20.3128L9.13239 20.3188L9.01876 20.3236C8.67062 20.364 8.40039 20.6599 8.40039 21.0189C8.40039 21.4055 8.71379 21.7189 9.10039 21.7189L9.76373 21.7091L10.2641 21.6952L10.9651 21.6682L11.7095 21.631L12.0966 21.6082C14.3377 21.4699 16.5797 21.2207 18.6779 20.8322C19.0793 20.7578 19.4707 20.6795 19.8516 20.5971L20.4152 20.4703C23.5436 19.7387 25.9129 18.7087 27.3004 17.3025V29.4189L27.3051 29.5005C27.3455 29.8487 27.6414 30.1189 28.0004 30.1189C28.387 30.1189 28.7004 29.8055 28.7004 29.4189V17.3026C30.0878 18.7088 32.4572 19.7387 35.5856 20.4703L36.1491 20.5971C36.5301 20.6795 36.9215 20.7578 37.3229 20.8322C39.4211 21.2207 41.6631 21.4699 43.9041 21.6082L44.2913 21.631L45.0356 21.6682L45.7367 21.6952L46.237 21.7091L46.9004 21.7189C47.287 21.7189 47.6004 21.4055 47.6004 21.0189C47.6004 20.6599 47.3302 20.364 46.982 20.3236L46.8684 20.3188L46.4216 20.3128L46.1068 20.3055C45.8941 20.2998 45.6732 20.2927 45.4449 20.284L44.738 20.2527C44.4954 20.2405 44.2459 20.2266 43.9904 20.2109C41.8018 20.0757 39.614 19.8327 37.5779 19.4556C36.9895 19.3466 36.4266 19.2289 35.8904 19.1025L35.3631 18.9731L34.8538 18.838C31.3106 17.86 29.1435 16.4462 28.7613 14.6143C29.9379 14.2828 30.8004 13.2016 30.8004 11.9189C30.8004 10.3725 29.5468 9.1189 28.0004 9.1189ZM29.4004 11.9189C29.4004 11.1457 28.7736 10.5189 28.0004 10.5189C27.2272 10.5189 26.6004 11.1457 26.6004 11.9189C26.6004 12.6921 27.2272 13.3189 28.0004 13.3189C28.7736 13.3189 29.4004 12.6921 29.4004 11.9189Z" fill="#21402C"/>
<path d="M28.0004 37.1189C28.3594 37.1189 28.6552 37.3891 28.6957 37.7373L28.7004 37.8189V41.3189H35.7004C36.087 41.3189 36.4004 41.6323 36.4004 42.0189C36.4004 42.3779 36.1302 42.6737 35.782 42.7142L35.7004 42.7189H21.6368C21.3173 42.7189 21.0424 42.983 21.0048 43.3359L21.0004 43.4189V44.1189H42.7004C43.8188 44.1189 44.733 44.9931 44.7968 46.0955L44.8004 46.2189V46.9189H46.9004C47.287 46.9189 47.6004 47.2323 47.6004 47.6189C47.6004 47.9779 47.3302 48.2737 46.982 48.3142L46.9004 48.3189H34.3004C33.9138 48.3189 33.6004 48.0055 33.6004 47.6189C33.6004 47.2599 33.8706 46.964 34.2188 46.9236L34.3004 46.9189H43.4004V46.2189C43.4004 45.8599 43.1302 45.564 42.782 45.5236L42.7004 45.5189H13.3004C12.9414 45.5189 12.6455 45.7891 12.6051 46.1373L12.6004 46.2189V46.9189H17.5004C17.887 46.9189 18.2004 47.2323 18.2004 47.6189C18.2004 47.9779 17.9302 48.2737 17.582 48.3142L17.5004 48.3189H9.10039C8.7138 48.3189 8.40039 48.0055 8.40039 47.6189C8.40039 47.2599 8.67062 46.964 9.01876 46.9236L9.10039 46.9189H11.2004V46.2189C11.2004 45.1005 12.0746 44.1863 13.177 44.1225L13.3004 44.1189H19.6004V43.4189C19.6004 42.3074 20.4412 41.3868 21.5164 41.3225L21.6368 41.3189H27.3004V37.8189C27.3004 37.4323 27.6138 37.1189 28.0004 37.1189Z" fill="#21402C"/>
<path d="M28.0004 35.7189C28.387 35.7189 28.7004 35.4055 28.7004 35.0189C28.7004 34.6323 28.387 34.3189 28.0004 34.3189C27.6138 34.3189 27.3004 34.6323 27.3004 35.0189C27.3004 35.4055 27.6138 35.7189 28.0004 35.7189Z" fill="#21402C"/>
</svg>
