<svg width="56" height="57" viewBox="0 0 56 57" fill="none" xmlns="http://www.w3.org/2000/svg">
<path fill-rule="evenodd" clip-rule="evenodd" d="M47.5994 9.81882C47.2134 9.81882 46.8994 9.5048 46.8994 9.11882C46.8994 8.73281 47.2134 8.41882 47.5994 8.41882C47.9854 8.41882 48.2994 8.73281 48.2994 9.11882C48.2994 9.5048 47.9854 9.81882 47.5994 9.81882Z" fill="#DFDFDF"/>
<path fill-rule="evenodd" clip-rule="evenodd" d="M28.7 53.9188C28.314 53.9188 28 53.6048 28 53.2188C28 52.8328 28.314 52.5188 28.7 52.5188C29.086 52.5188 29.4 52.8328 29.4 53.2188C29.4 53.6048 29.086 53.9188 28.7 53.9188Z" fill="#DFDFDF"/>
<path fill-rule="evenodd" clip-rule="evenodd" d="M10.4998 7.71885C10.1138 7.71885 9.7998 7.40483 9.7998 7.01885C9.7998 6.63283 10.1138 6.31885 10.4998 6.31885C10.8858 6.31885 11.1998 6.63283 11.1998 7.01885C11.1998 7.40483 10.8858 7.71885 10.4998 7.71885Z" fill="#DFDFDF"/>
<path fill-rule="evenodd" clip-rule="evenodd" d="M26.1373 33.3242L21.6698 28.0431L21.5841 27.9509C21.0502 27.435 20.2403 27.4256 19.7074 27.9234C19.1448 28.4487 19.0946 29.3458 19.5934 29.9353L25.3306 36.7163C25.3672 36.7596 25.4072 36.7998 25.4502 36.8365C25.8912 37.2132 26.5539 37.1611 26.9306 36.7201L39.2023 22.3539L39.2798 22.2541C39.6986 21.6516 39.6191 20.8332 39.0975 20.3414C38.5276 19.8041 37.6447 19.8542 37.1345 20.4515L26.1373 33.3242Z" fill="#CE614A"/>
<path d="M8.00809 32.244C6.06125 21.2029 13.4336 10.6742 24.4746 8.72733C31.4893 7.49045 38.5201 10.0067 43.1712 15.2273C43.4284 15.5159 43.4029 15.9584 43.1142 16.2156C42.8256 16.4728 42.3831 16.4472 42.1259 16.1586C37.7944 11.2967 31.2494 8.95435 24.7177 10.1061C14.4381 11.9186 7.57425 21.7213 9.38682 32.0009C11.1994 42.2805 21.002 49.1444 31.2816 47.3318C41.5612 45.5192 48.4251 35.7166 46.6125 25.437C46.5454 25.0563 46.7996 24.6932 47.1804 24.6261C47.5611 24.5589 47.9241 24.8131 47.9913 25.1939C49.9381 36.2349 42.5658 46.7637 31.5247 48.7105C20.4837 50.6574 9.95492 43.285 8.00809 32.244Z" fill="#21402C"/>
<path d="M49.1565 33.566C49.2425 33.189 49.6177 32.9532 49.9946 33.0392C50.3715 33.1252 50.6074 33.5004 50.5214 33.8773C49.5799 38.0047 47.5173 41.7741 44.5847 44.7984C44.3155 45.0759 43.8724 45.0827 43.5948 44.8136C43.3173 44.5445 43.3105 44.1013 43.5796 43.8238C46.335 40.9823 48.2723 37.4418 49.1565 33.566Z" fill="#21402C"/>
<path d="M50.3997 30.1189C50.0131 30.1189 49.6997 30.4323 49.6997 30.8189C49.6997 31.2055 50.0131 31.5189 50.3997 31.5189C50.7863 31.5189 51.0997 31.2055 51.0997 30.8189C51.0997 30.4323 50.7863 30.1189 50.3997 30.1189Z" fill="#21402C"/>
</svg>
