<svg width="56" height="56" viewBox="0 0 56 56" fill="none" xmlns="http://www.w3.org/2000/svg">
<path fill-rule="evenodd" clip-rule="evenodd" d="M5.60039 11.9C5.21441 11.9 4.90039 11.586 4.90039 11.2C4.90039 10.814 5.21441 10.5 5.60039 10.5C5.98637 10.5 6.30039 10.814 6.30039 11.2C6.30039 11.586 5.98637 11.9 5.60039 11.9Z" fill="#DFDFDF"/>
<path fill-rule="evenodd" clip-rule="evenodd" d="M45.5008 50.4C45.1148 50.4 44.8008 50.086 44.8008 49.7C44.8008 49.314 45.1148 49 45.5008 49C45.8868 49 46.2008 49.314 46.2008 49.7C46.2008 50.086 45.8868 50.4 45.5008 50.4Z" fill="#DFDFDF"/>
<path fill-rule="evenodd" clip-rule="evenodd" d="M46.2 7.70005C45.814 7.70005 45.5 7.38603 45.5 7.00005C45.5 6.61404 45.814 6.30005 46.2 6.30005C46.586 6.30005 46.9 6.61404 46.9 7.00005C46.9 7.38603 46.586 7.70005 46.2 7.70005Z" fill="#DFDFDF"/>
<path fill-rule="evenodd" clip-rule="evenodd" d="M14.7 53.9C14.314 53.9 14 53.586 14 53.2C14 52.814 14.314 52.5 14.7 52.5C15.086 52.5 15.4 52.814 15.4 53.2C15.4 53.586 15.086 53.9 14.7 53.9Z" fill="#CACAFB"/>
<path d="M28.0006 25.5851L33.9051 19.6806C34.4792 19.1065 35.41 19.1065 35.984 19.6806C36.5248 20.2213 36.5595 21.0849 36.0598 21.6775L35.984 21.7594L30.0795 27.664L36.656 34.2406L36.7318 34.3225C37.2315 34.9151 37.1968 35.7787 36.656 36.3194C36.082 36.8935 35.1512 36.8935 34.5771 36.3194L28.0006 29.7429L21.424 36.3194C20.85 36.8935 19.9192 36.8935 19.3451 36.3194C18.8044 35.7787 18.7697 34.9151 19.2694 34.3225L19.3451 34.2406L25.9217 27.664L20.0171 21.7594L19.9414 21.6775C19.4417 21.0849 19.4764 20.2213 20.0171 19.6806C20.5912 19.1065 21.522 19.1065 22.096 19.6806L28.0006 25.5851Z" fill="#CE614A"/>
<path d="M39.9004 8.40002C44.0855 8.40002 47.4907 11.7389 47.5978 15.8981L47.6004 16.1V20.3C47.6004 20.6866 47.287 21 46.9004 21C46.5414 21 46.2455 20.7298 46.2051 20.3817L46.2004 20.3V16.1C46.2004 12.6828 43.4796 9.90097 40.0861 9.80271L39.9004 9.80002H16.1004C12.6831 9.80002 9.90134 12.5208 9.80308 15.9143L9.80039 16.1V39.9C9.80039 43.3173 12.5212 46.0991 15.9146 46.1973L16.1004 46.2H39.9004C43.3176 46.2 46.0994 43.4793 46.1977 40.0858L46.2004 39.9V30.1C46.2004 29.7134 46.5138 29.4 46.9004 29.4C47.2594 29.4 47.5552 29.6702 47.5957 30.0184L47.6004 30.1V39.9C47.6004 44.0851 44.2616 47.4904 40.1023 47.5974L39.9004 47.6H16.1004C11.9153 47.6 8.51003 44.2612 8.40299 40.1019L8.40039 39.9V16.1C8.40039 11.9149 11.7392 8.50967 15.8985 8.40262L16.1004 8.40002H39.9004Z" fill="#21402C"/>
<path d="M49.0004 21.7C49.0004 21.3134 49.3138 21 49.7004 21C50.087 21 50.4004 21.3134 50.4004 21.7C50.4004 22.0866 50.087 22.4 49.7004 22.4C49.3138 22.4 49.0004 22.0866 49.0004 21.7Z" fill="#21402C"/>
<path d="M50.3957 24.4184C50.3552 24.0703 50.0594 23.8 49.7004 23.8C49.3138 23.8 49.0004 24.1134 49.0004 24.5V35.7L49.0051 35.7817C49.0455 36.1298 49.3414 36.4 49.7004 36.4C50.087 36.4 50.4004 36.0866 50.4004 35.7V24.5L50.3957 24.4184Z" fill="#21402C"/>
</svg>
