<svg width="56" height="57" viewBox="0 0 56 57" fill="none" xmlns="http://www.w3.org/2000/svg">
<path fill-rule="evenodd" clip-rule="evenodd" d="M4.2 10.5189C3.81402 10.5189 3.5 10.2049 3.5 9.8189C3.5 9.43288 3.81402 9.1189 4.2 9.1189C4.58598 9.1189 4.9 9.43288 4.9 9.8189C4.9 10.2049 4.58598 10.5189 4.2 10.5189Z" fill="#DFDFDF"/>
<path fill-rule="evenodd" clip-rule="evenodd" d="M41.2996 51.8189C40.9136 51.8189 40.5996 51.5049 40.5996 51.1189C40.5996 50.7329 40.9136 50.4189 41.2996 50.4189C41.6856 50.4189 41.9996 50.7329 41.9996 51.1189C41.9996 51.5049 41.6856 51.8189 41.2996 51.8189Z" fill="#DFDFDF"/>
<path fill-rule="evenodd" clip-rule="evenodd" d="M44.1004 7.0189C43.7144 7.0189 43.4004 6.70488 43.4004 6.3189C43.4004 5.93288 43.7144 5.6189 44.1004 5.6189C44.4864 5.6189 44.8004 5.93288 44.8004 6.3189C44.8004 6.70488 44.4864 7.0189 44.1004 7.0189Z" fill="#DFDFDF"/>
<path fill-rule="evenodd" clip-rule="evenodd" d="M52.4998 36.4189C52.1138 36.4189 51.7998 36.1049 51.7998 35.7189C51.7998 35.3329 52.1138 35.0189 52.4998 35.0189C52.8858 35.0189 53.1998 35.3329 53.1998 35.7189C53.1998 36.1049 52.8858 36.4189 52.4998 36.4189Z" fill="#DFDFDF"/>
<path d="M20.7199 14.8589C20.4107 14.627 19.9719 14.6896 19.7399 14.9989C19.2891 15.6 18.6198 16.2621 17.7332 16.9828L17.367 17.2742C17.304 17.3233 17.2401 17.3726 17.1752 17.4223L16.7743 17.723C16.7055 17.7736 16.6358 17.8245 16.5652 17.8757L16.1296 18.1857L15.6709 18.5018C15.5925 18.555 15.5131 18.6084 15.4328 18.6621L14.9395 18.9874L14.4232 19.3187C14.3352 19.3744 14.2463 19.4303 14.1564 19.4866L13.6055 19.8269C13.5117 19.8841 13.417 19.9416 13.3214 19.9993L12.736 20.3485L12.1276 20.7037L11.4962 21.0647L10.842 21.4317L10.1647 21.8044C9.82535 21.9895 9.70029 22.4147 9.88541 22.7541C10.0705 23.0935 10.4957 23.2186 10.8351 23.0334C10.9537 22.9688 11.0713 22.9043 11.1879 22.8402L11.8758 22.4579L12.5405 22.0814L13.1818 21.7106C13.2867 21.6493 13.3907 21.5882 13.4937 21.5273L14.1 21.165L14.683 20.8083L15.2428 20.4572L15.7793 20.1116L16.2926 19.7716C16.6271 19.5467 16.9461 19.3255 17.2496 19.1079L17.6934 18.7843C17.9094 18.6238 18.1168 18.4653 18.3155 18.3089L18.7014 17.9986C19.6371 17.2297 20.3562 16.5105 20.8599 15.8389C21.0919 15.5296 21.0292 15.0909 20.7199 14.8589Z" fill="#CE614A"/>
<path fill-rule="evenodd" clip-rule="evenodd" d="M38.4999 23.1189H32.8999C32.5133 23.1189 32.1999 23.4323 32.1999 23.8189V26.8921C32.1999 29.1056 33.7373 31.0221 35.8981 31.5022C36.2063 31.5707 36.5233 31.5911 36.8378 31.5625C38.5189 31.4096 39.7577 29.923 39.6049 28.2419L39.1971 23.7555C39.1643 23.395 38.862 23.1189 38.4999 23.1189ZM33.5999 24.5189H37.8608L38.2107 28.3687C38.2935 29.2797 37.6221 30.0854 36.7111 30.1682C36.5406 30.1837 36.3688 30.1727 36.2018 30.1356L36.0513 30.0985C34.6107 29.7076 33.5999 28.3975 33.5999 26.8921V24.5189Z" fill="#CE614A"/>
<path d="M25.2945 14.7253L25.2017 14.7189C25.0167 14.7184 24.8375 14.7913 24.705 14.9239C24.6619 14.9669 24.6177 15.0106 24.5723 15.055L24.2854 15.3287L23.9702 15.6174C23.8605 15.7161 23.7461 15.8172 23.6271 15.9205L23.2563 16.2374L22.8582 16.5676C22.7895 16.6237 22.7198 16.6803 22.649 16.7374L22.2105 17.0863L21.7456 17.447C21.5862 17.5691 21.4225 17.6931 21.2545 17.8189L20.7376 18.2014C20.6493 18.266 20.56 18.331 20.4696 18.3965L19.9146 18.7938L19.3347 19.2004C19.236 19.2688 19.1363 19.3377 19.0355 19.4069L18.4187 19.8261L17.7779 20.253L17.1132 20.6871C16.8877 20.8329 16.6583 20.9798 16.4251 21.1277L16.2898 21.2131L15.5224 21.6856L14.9893 22.0055L13.9796 22.5995L12.5681 23.4124L10.9389 24.3343L8.76335 25.5475L6.66317 26.7052C6.33338 26.8862 6.2056 27.2955 6.37383 27.6319L8.47383 31.8319L8.53153 31.9404C9.02211 32.8112 10.2093 33.7507 12.1189 34.8188L12.6113 35.0886C12.7805 35.1794 12.9547 35.2712 13.134 35.3639L13.5359 35.5682L13.9355 37.5669L13.8249 37.6802C12.5048 39.0812 13.006 40.5106 15.1194 41.4352C15.4796 41.5928 15.8941 41.7435 16.3634 41.8874L16.7789 42.0092C16.9934 42.0692 17.2179 42.128 17.4526 42.1856L17.9352 42.2992L18.4448 42.4095L18.9813 42.5166C19.0729 42.5342 19.1657 42.5517 19.2596 42.569L19.8366 42.6713L20.4406 42.7705L21.0717 42.8666L21.7299 42.9595L22.4153 43.0494L23.1278 43.1362L23.8676 43.2199L24.6347 43.3006L25.4291 43.3783L26.2574 43.4536L27.0899 43.5237L27.9101 43.5871L28.7179 43.644L29.513 43.6944L30.2952 43.7383L31.0644 43.7757L31.8204 43.8068L32.5629 43.8315L33.2917 43.85L34.0067 43.8622L34.7077 43.8683C34.8233 43.8688 34.9383 43.869 35.0528 43.869L36.0667 43.8621C36.1775 43.8605 36.2877 43.8588 36.3973 43.8567L37.0476 43.8415L37.6829 43.8204L38.3032 43.7934L38.9081 43.7605C39.0076 43.7545 39.1065 43.7483 39.2047 43.7419L39.7863 43.7003L40.352 43.653L40.9018 43.6001L41.4353 43.5415L41.9524 43.4773C42.0372 43.4661 42.1214 43.4548 42.2048 43.4431L42.6969 43.3707C42.7492 43.3626 42.8012 43.3544 42.8528 43.346L42.9367 43.3324L43.4035 43.2518L43.853 43.1659C44.2205 43.092 44.5698 43.0126 44.9005 42.9277L45.2883 42.8234C47.6878 42.1459 48.9999 41.1586 48.9999 39.9189C48.9999 38.1259 47.3768 36.7733 44.3213 35.7548C43.9545 35.6325 43.5581 35.8308 43.4359 36.1975C43.3136 36.5643 43.5118 36.9607 43.8786 37.083C46.4231 37.9311 47.5999 38.9118 47.5999 39.9189C47.5999 40.137 47.3156 40.4652 46.6405 40.8193C45.7853 41.2677 44.4706 41.6558 42.7599 41.9409C41.5708 42.1391 40.2233 42.2838 38.7275 42.3718L37.9673 42.4111C36.5511 42.4744 35.0117 42.4897 33.3569 42.4544L32.4429 42.4301L31.5063 42.3957C31.3483 42.3891 31.1894 42.3821 31.0296 42.3747L30.0596 42.3249C29.7326 42.3066 29.4019 42.2866 29.0677 42.2649L28.0541 42.1944C27.8834 42.1818 27.7118 42.1687 27.5393 42.1552L26.4939 42.0689L25.9633 42.0218L25.1775 41.9477L24.4186 41.8708L23.3309 41.7502L22.6396 41.6663L21.9754 41.5797L21.3383 41.4904L20.7284 41.3984L20.1457 41.3036L19.5903 41.2063L19.0621 41.1063L18.5613 41.0036L18.0879 40.8984L17.6419 40.7906L17.2233 40.6802C16.6161 40.5128 16.1016 40.3368 15.6805 40.1526C15.6362 40.1332 15.5931 40.114 15.5514 40.0951L15.3164 39.9842C14.3648 39.5138 14.276 39.1688 14.9028 38.5733L14.9929 38.4919L41.3614 35.7163C41.3918 35.7136 41.4223 35.7088 41.4528 35.702L41.4539 35.7018C41.5229 35.6863 41.5876 35.6609 41.6467 35.6272C41.737 35.5758 41.8132 35.5055 41.8715 35.423C41.9316 35.3381 41.973 35.2398 41.9905 35.1343C42.0033 35.0582 42.0036 34.9789 41.9897 34.8992C41.9861 34.8784 41.9816 34.8579 41.9762 34.8378C41.5402 33.0864 41.5412 31.3401 41.979 29.5887C42.0728 29.2136 41.8448 28.8335 41.4697 28.7398C41.0947 28.646 40.7146 28.874 40.6208 29.2491C40.1916 30.9659 40.1349 32.6866 40.4507 34.4044L15.2612 37.0559L14.9661 35.5803C20.7487 34.7148 26.7432 34.0604 32.9498 33.6171C33.3354 33.5896 33.6257 33.2546 33.5982 32.869C33.5706 32.4834 33.2357 32.1931 32.8501 32.2207C26.5839 32.6682 20.5309 33.3299 14.6912 34.2058L14.6894 34.197C14.6807 34.1477 14.6666 34.0988 14.6469 34.0514C14.6275 34.0042 14.6032 33.9599 14.5747 33.919C13.8962 32.8883 14.2061 31.6066 15.5523 30.0924L15.7743 29.8505C15.8512 29.7692 15.9311 29.6873 16.0138 29.6047L16.2706 29.355L16.545 29.1015L16.8369 28.8442L17.1463 28.5831L17.4734 28.3181L17.8181 28.0494C17.877 28.0043 17.9366 27.959 17.997 27.9136L18.3683 27.6393C18.4317 27.5932 18.4957 27.547 18.5606 27.5007L18.9585 27.2207L19.3742 26.937L19.8078 26.6497C19.8816 26.6015 19.9561 26.5531 20.0313 26.5046L20.4918 26.2117L20.9702 25.9152L21.4667 25.615L21.9812 25.3112L22.5138 25.0037L23.0645 24.6927L23.6334 24.3781L24.2205 24.06L24.826 23.7383C31.5216 20.2143 37.4158 20.4009 40.8218 23.1017C41.1248 23.3419 41.565 23.291 41.8052 22.9881C42.0454 22.6852 41.9946 22.2449 41.6917 22.0047C37.8224 18.9367 31.3335 18.7312 24.1739 22.4994L23.5598 22.8257L22.9624 23.1494L22.3816 23.4706L21.8175 23.7891L21.2702 24.1052L20.7396 24.4187L20.2258 24.7297L19.7289 25.0383L19.2489 25.3443L18.7857 25.6479C18.7099 25.6983 18.6349 25.7485 18.5605 25.7987L18.1228 26.0986L17.702 26.3961C17.6333 26.4454 17.5653 26.4947 17.4981 26.5439L17.1029 26.8377L16.7248 27.1291C13.6508 29.5433 12.3531 31.7094 12.9211 33.6616L12.8916 33.6456C12.8196 33.6056 12.7489 33.5658 12.6793 33.5264L12.2758 33.2928L11.9007 33.0659L11.554 32.8458C11.4431 32.7736 11.3371 32.7026 11.2357 32.6327L10.9461 32.4269C10.3036 31.9551 9.8952 31.5442 9.72603 31.2058L7.92673 27.608L10.4833 26.1935L11.424 25.6675L13.3959 24.5519L14.6131 23.8506L15.6711 23.2289L16.403 22.7888L17.0331 22.3994L17.5291 22.0843C17.6462 22.0093 17.7623 21.9345 17.8775 21.8601L18.5567 21.4164L19.212 20.9797C19.4264 20.8353 19.6368 20.6922 19.8432 20.5505L20.4498 20.1293C20.5488 20.0598 20.6468 19.9907 20.7438 19.9219L21.313 19.5139C21.4058 19.4467 21.4975 19.3799 21.5882 19.3135L22.1193 18.92L22.6245 18.5368L23.1035 18.1646C23.1811 18.1035 23.2577 18.0429 23.3331 17.9828L23.7722 17.6281C23.8431 17.57 23.9129 17.5124 23.9816 17.4554L24.38 17.1194L24.7509 16.7967C24.9889 16.5862 25.2083 16.3848 25.4087 16.1934L25.4449 16.1574L26.3932 16.2807L27.7144 16.4452C28.2092 16.5055 28.7138 16.5656 29.2259 16.625L30.7822 16.8008L31.5727 16.8864C33.1152 17.0508 34.611 17.1951 36.0308 17.3137L36.8184 17.3775L37.954 17.4617L38.6798 17.51L39.3799 17.5519L40.054 17.5873L40.7014 17.616L41.3217 17.638L41.9144 17.6531L42.479 17.6612C42.5707 17.6619 42.6612 17.6624 42.7506 17.6626L43.2721 17.6599L43.7642 17.65C43.8438 17.6477 43.9221 17.6452 43.9992 17.6423L44.4464 17.6212L44.6585 17.6078L43.4461 24.8815L42.205 26.1239L42.1467 26.1898C41.9332 26.4645 41.9526 26.8615 42.205 27.1139C42.4783 27.3872 42.9215 27.3872 43.1949 27.1139L44.5949 25.7139L44.6526 25.6485C44.7236 25.5571 44.7712 25.4491 44.7904 25.334L46.1904 16.934C46.2682 16.4669 45.8697 16.059 45.4009 16.1259C45.0983 16.1691 44.748 16.2018 44.3526 16.2244L43.9423 16.2435C43.8714 16.2462 43.7994 16.2485 43.7261 16.2506L43.2719 16.2598L42.7891 16.2625L42.2784 16.2587L41.7404 16.2486L41.1757 16.2322L40.5847 16.2096L39.9682 16.1809L38.9969 16.1267L38.3191 16.0832L37.6179 16.034L36.5233 15.9495L35.4368 15.8576C34.7202 15.7946 33.9856 15.7254 33.2367 15.6507L31.7211 15.4943C30.6687 15.3821 29.6317 15.2645 28.629 15.1452L27.1532 14.9653L26.5701 14.8919L25.2945 14.7253Z" fill="#21402C"/>
</svg>
