<svg width="80" height="80" viewBox="0 0 80 80" fill="none" xmlns="http://www.w3.org/2000/svg">
<path fill-rule="evenodd" clip-rule="evenodd" d="M73 17.9996C72.4486 17.9996 72 17.551 72 16.9996C72 16.4482 72.4486 15.9996 73 15.9996C73.5514 15.9996 74 16.4482 74 16.9996C74 17.551 73.5514 17.9996 73 17.9996Z" fill="#DFDFDF"/>
<path fill-rule="evenodd" clip-rule="evenodd" d="M7 17.9996C6.4486 17.9996 6 17.551 6 16.9996C6 16.4482 6.4486 15.9996 7 15.9996C7.5514 15.9996 8 16.4482 8 16.9996C8 17.551 7.5514 17.9996 7 17.9996Z" fill="#DFDFDF"/>
<path fill-rule="evenodd" clip-rule="evenodd" d="M11 67.9996C10.4486 67.9996 10 67.551 10 66.9996C10 66.4482 10.4486 65.9996 11 65.9996C11.5514 65.9996 12 66.4482 12 66.9996C12 67.551 11.5514 67.9996 11 67.9996Z" fill="#DFDFDF"/>
<path fill-rule="evenodd" clip-rule="evenodd" d="M65 71.9996C64.4486 71.9996 64 71.551 64 70.9996C64 70.4482 64.4486 69.9996 65 69.9996C65.5514 69.9996 66 70.4482 66 70.9996C66 71.551 65.5514 71.9996 65 71.9996Z" fill="#DFDFDF"/>
<path fill-rule="evenodd" clip-rule="evenodd" d="M19 5.9996C18.4486 5.9996 18 5.551 18 4.9996C18 4.44816 18.4486 3.9996 19 3.9996C19.5514 3.9996 20 4.44816 20 4.9996C20 5.551 19.5514 5.9996 19 5.9996Z" fill="#DFDFDF"/>
<path fill-rule="evenodd" clip-rule="evenodd" d="M55 77.9996C54.4486 77.9996 54 77.551 54 76.9996C54 76.4482 54.4486 75.9996 55 75.9996C55.5514 75.9996 56 76.4482 56 76.9996C56 77.551 55.5514 77.9996 55 77.9996Z" fill="#DFDFDF"/>
<path fill-rule="evenodd" clip-rule="evenodd" d="M16 29.9996C16 27.793 17.7935 25.9996 20 25.9996C22.2065 25.9996 24 27.793 24 29.9996C24 32.2061 22.2065 33.9996 20 33.9996C17.7935 33.9996 16 32.2061 16 29.9996ZM22 29.9996C22 28.8976 21.102 27.9996 20 27.9996C18.898 27.9996 18 28.8976 18 29.9996C18 31.1015 18.8981 31.9996 20 31.9996C21.1019 31.9996 22 31.1015 22 29.9996Z" fill="#CE614A"/>
<path fill-rule="evenodd" clip-rule="evenodd" d="M26 25.9996C26 23.793 27.7935 21.9996 30 21.9996C32.2065 21.9996 34 23.793 34 25.9996C34 28.2061 32.2065 29.9996 30 29.9996C27.7935 29.9996 26 28.2061 26 25.9996ZM32 25.9996C32 24.8976 31.102 23.9996 30 23.9996C28.898 23.9996 28 24.8976 28 25.9996C28 27.1015 28.8981 27.9996 30 27.9996C31.1019 27.9996 32 27.1015 32 25.9996Z" fill="#CE614A"/>
<path d="M26.5528 26.1052C27.0468 25.8582 27.6474 26.0584 27.8944 26.5524C28.1238 27.0111 27.9675 27.5618 27.5485 27.8359L27.4472 27.894L23.4472 29.894C22.9532 30.141 22.3526 29.9408 22.1056 29.4468C21.8762 28.9881 22.0325 28.4374 22.4515 28.1633L22.5528 28.1052L26.5528 26.1052Z" fill="#CE614A"/>
<path d="M32.2929 27.2925C32.6534 26.932 33.2206 26.9043 33.6129 27.2093L33.7071 27.2925L37.7071 31.2925C38.0976 31.683 38.0976 32.3162 37.7071 32.7067C37.3466 33.0672 36.7794 33.0949 36.3871 32.7899L36.2929 32.7067L32.2929 28.7067C31.9024 28.3162 31.9024 27.683 32.2929 27.2925Z" fill="#CE614A"/>
<path fill-rule="evenodd" clip-rule="evenodd" d="M50 33.9996C50 28.4844 54.485 23.9996 60 23.9996C65.515 23.9996 70 28.4844 70 33.9996C70 39.5145 65.5149 43.9996 60 43.9996C54.4851 43.9996 50 39.5145 50 33.9996ZM68 33.9996C68 29.589 64.4105 25.9996 60 25.9996C55.5895 25.9996 52 29.589 52 33.9996C52 38.4099 55.5897 41.9996 60 41.9996C64.4103 41.9996 68 38.4099 68 33.9996Z" fill="#CE614A"/>
<path d="M60.0366 28.7314C60.1848 28.1993 60.7362 27.8881 61.2682 28.0363C63.6078 28.6877 65.4014 30.5226 65.8762 32.7978C65.989 33.3385 65.6422 33.8682 65.1016 33.981C64.5609 34.0939 64.0312 33.7471 63.9184 33.2064C63.5998 31.68 62.3664 30.4181 60.7318 29.963C60.1997 29.8148 59.8885 29.2634 60.0366 28.7314Z" fill="#CE614A"/>
<path d="M65.9641 40.1336C66.4082 39.8772 66.9673 40.0001 67.266 40.402L67.3301 40.4996L73.3301 50.8919C74.1586 52.3268 73.6669 54.1616 72.2321 54.99C70.8484 55.7888 69.0929 55.3602 68.2265 54.042L68.134 53.8919L62.134 43.4996C61.8578 43.0213 62.0217 42.4097 62.5 42.1336C62.9441 41.8772 63.5032 42.0001 63.8019 42.402L63.866 42.4996L69.866 52.8919C70.1422 53.3702 70.7538 53.5341 71.2321 53.2579C71.6762 53.0015 71.8492 52.4559 71.6506 51.9963L71.5981 51.8919L65.5981 41.4996C65.3219 41.0213 65.4858 40.4097 65.9641 40.1336Z" fill="#CE614A"/>
<path d="M44.5528 30.1052C45.0468 29.8582 45.6474 30.0584 45.8944 30.5524C46.1238 31.0111 45.9675 31.5618 45.5485 31.8359L45.4472 31.894L43.4472 32.894C42.9532 33.141 42.3526 32.9408 42.1056 32.4468C41.8762 31.9881 42.0325 31.4374 42.4515 31.1633L42.5528 31.1052L44.5528 30.1052Z" fill="#CE614A"/>
<path fill-rule="evenodd" clip-rule="evenodd" d="M36 31.9996C36 29.793 37.7935 27.9996 40 27.9996C42.2065 27.9996 44 29.793 44 31.9996C44 34.2061 42.2065 35.9996 40 35.9996C37.7935 35.9996 36 34.2061 36 31.9996ZM42 31.9996C42 30.8976 41.102 29.9996 40 29.9996C38.898 29.9996 38 30.8976 38 31.9996C38 33.1015 38.8981 33.9996 40 33.9996C41.1019 33.9996 42 33.1015 42 31.9996Z" fill="#CE614A"/>
<path d="M59 15.9996C59.5128 15.9996 59.9355 16.3856 59.9933 16.883L60 16.9996V18.9996C60 19.5519 59.5523 19.9996 59 19.9996C58.4872 19.9996 58.0645 19.6136 58.0067 19.1162L58 18.9996V17.9996H12V53.9996H58V48.9996C58 48.4868 58.386 48.0641 58.8834 48.0063L59 47.9996C59.5128 47.9996 59.9355 48.3856 59.9933 48.883L60 48.9996V54.9996C60 55.5124 59.614 55.9351 59.1166 55.9929L59 55.9996H11C10.4872 55.9996 10.0645 55.6136 10.0067 55.1162L10 54.9996V16.9996C10 16.4868 10.386 16.0641 10.8834 16.0063L11 15.9996H59Z" fill="#21402C"/>
<path d="M39 17.9996C39.5128 17.9996 39.9355 17.6136 39.9933 17.1162L40 16.9996V14.9996C40 13.4019 38.7511 12.0959 37.1763 12.0047L37 11.9996H33C31.4023 11.9996 30.0963 13.2485 30.0051 14.8233L30 14.9996V16.9996C30 17.5519 30.4477 17.9996 31 17.9996C31.5128 17.9996 31.9355 17.6136 31.9933 17.1162L32 16.9996V14.9996C32 14.4868 32.386 14.0641 32.8834 14.0063L33 13.9996H37C37.5128 13.9996 37.9355 14.3856 37.9933 14.883L38 14.9996V16.9996C38 17.5519 38.4477 17.9996 39 17.9996Z" fill="#21402C"/>
<path d="M51 53.9996C51.5128 53.9996 51.9355 54.3856 51.9933 54.883L52 54.9996V56.9996C52 58.5973 50.7511 59.9033 49.1763 59.9945L49 59.9996H21C19.4023 59.9996 18.0963 58.7507 18.0051 57.1759L18 56.9996V54.9996C18 54.4473 18.4477 53.9996 19 53.9996C19.5128 53.9996 19.9355 54.3856 19.9933 54.883L20 54.9996V56.9996C20 57.5124 20.386 57.9351 20.8834 57.9929L21 57.9996H49C49.5128 57.9996 49.9355 57.6136 49.9933 57.1162L50 56.9996V54.9996C50 54.4473 50.4477 53.9996 51 53.9996Z" fill="#21402C"/>
<path d="M37.8 58.3996C37.4686 57.9578 36.8418 57.8682 36.4 58.1996C35.9922 58.5055 35.8845 59.0631 36.131 59.4946L36.2 59.5996L42.2 67.5996C42.5314 68.0414 43.1582 68.131 43.6 67.7996C44.0078 67.4937 44.1155 66.9361 43.869 66.5046L43.8 66.3996L37.8 58.3996Z" fill="#21402C"/>
<path d="M23 37.9996C23.5128 37.9996 23.9355 38.3856 23.9933 38.883L24 38.9996V40.9996C24 41.5519 23.5523 41.9996 23 41.9996C22.4872 41.9996 22.0645 41.6136 22.0067 41.1162L22 40.9996V39.9996H18V47.9996H22V44.9996C22 44.4868 22.386 44.0641 22.8834 44.0063L23 43.9996C23.5128 43.9996 23.9355 44.3856 23.9933 44.883L24 44.9996V48.9996C24 49.5124 23.614 49.9351 23.1166 49.9929L23 49.9996H17C16.4872 49.9996 16.0645 49.6136 16.0067 49.1162L16 48.9996V38.9996C16 38.4868 16.386 38.0641 16.8834 38.0063L17 37.9996H23Z" fill="#21402C"/>
<path d="M29 33.9996C29.5523 33.9996 30 34.4473 30 34.9996C30 35.5124 29.614 35.9351 29.1166 35.9929L29 35.9996H28V47.9996H32V36.9996C32 36.4868 32.386 36.0641 32.8834 36.0063L33 35.9996C33.5128 35.9996 33.9355 36.3856 33.9933 36.883L34 36.9996V48.9996C34 49.5124 33.614 49.9351 33.1166 49.9929L33 49.9996H27C26.4872 49.9996 26.0645 49.6136 26.0067 49.1162L26 48.9996V34.9996C26 34.4868 26.386 34.0641 26.8834 34.0063L27 33.9996H29Z" fill="#21402C"/>
<path d="M39 41.9996C39.5523 41.9996 40 42.4473 40 42.9996C40 43.5124 39.614 43.9351 39.1166 43.9929L39 43.9996H38V47.9996H42V42.9996C42 42.4868 42.386 42.0641 42.8834 42.0063L43 41.9996C43.5128 41.9996 43.9355 42.3856 43.9933 42.883L44 42.9996V48.9996C44 49.5124 43.614 49.9351 43.1166 49.9929L43 49.9996H37C36.4872 49.9996 36.0645 49.6136 36.0067 49.1162L36 48.9996V42.9996C36 42.4868 36.386 42.0641 36.8834 42.0063L37 41.9996H39Z" fill="#21402C"/>
<path d="M47 39.9996C47.5128 39.9996 47.9355 40.3856 47.9933 40.883L48 40.9996V47.9996H52V46.9996C52 46.4868 52.386 46.0641 52.8834 46.0063L53 45.9996C53.5128 45.9996 53.9355 46.3856 53.9933 46.883L54 46.9996V48.9996C54 49.5124 53.614 49.9351 53.1166 49.9929L53 49.9996H47C46.4872 49.9996 46.0645 49.6136 46.0067 49.1162L46 48.9996V40.9996C46 40.4473 46.4477 39.9996 47 39.9996Z" fill="#21402C"/>
<path d="M32.2 58.3996C32.5314 57.9578 33.1582 57.8682 33.6 58.1996C34.0078 58.5055 34.1155 59.0631 33.869 59.4946L33.8 59.5996L27.8 67.5996C27.4686 68.0414 26.8418 68.131 26.4 67.7996C25.9922 67.4937 25.8845 66.9361 26.131 66.5046L26.2 66.3996L32.2 58.3996Z" fill="#21402C"/>
</svg>
