<svg width="80" height="80" viewBox="0 0 80 80" fill="none" xmlns="http://www.w3.org/2000/svg">
<path fill-rule="evenodd" clip-rule="evenodd" d="M59 75.999C58.4486 75.999 58 75.5504 58 74.999C58 74.4476 58.4486 73.999 59 73.999C59.5514 73.999 60 74.4476 60 74.999C60 75.5504 59.5514 75.999 59 75.999Z" fill="#DFDFDF"/>
<path fill-rule="evenodd" clip-rule="evenodd" d="M67 11.999C66.4486 11.999 66 11.5504 66 10.999C66 10.4476 66.4486 9.99902 67 9.99902C67.5514 9.99902 68 10.4476 68 10.999C68 11.5504 67.5514 11.999 67 11.999Z" fill="#DFDFDF"/>
<path fill-rule="evenodd" clip-rule="evenodd" d="M9 15.999C8.4486 15.999 8 15.5504 8 14.999C8 14.4476 8.4486 13.999 9 13.999C9.5514 13.999 10 14.4476 10 14.999C10 15.5504 9.5514 15.999 9 15.999Z" fill="#DFDFDF"/>
<path d="M37 22.999C37 22.4467 36.5523 21.999 36 21.999H24L23.8834 22.0058C23.386 22.0635 23 22.4862 23 22.999C23 23.5513 23.4477 23.999 24 23.999H36L36.1166 23.9923C36.614 23.9345 37 23.5119 37 22.999Z" fill="#E1000F"/>
<path d="M39 39.999C37.8954 39.999 37 40.8945 37 41.999C37 44.4861 38.0086 45.999 40 45.999C40.5523 45.999 41 45.5513 41 44.999C41 44.4467 40.5523 43.999 40 43.999L39.9059 43.9957C39.7865 43.9868 39.6792 43.9602 39.5839 43.9125C40.4036 43.6626 41 42.9005 41 41.999C41 40.8945 40.1046 39.999 39 39.999Z" fill="#E1000F"/>
<path d="M43 41.999C43 40.8945 43.8954 39.999 45 39.999C46.1046 39.999 47 40.8945 47 41.999C47 42.9005 46.4036 43.6626 45.5839 43.9125C45.6792 43.9602 45.7865 43.9868 45.9059 43.9957L46 43.999C46.5523 43.999 47 44.4467 47 44.999C47 45.5513 46.5523 45.999 46 45.999C44.0086 45.999 43 44.4861 43 41.999Z" fill="#E1000F"/>
<path d="M34 25.999C34.5523 25.999 35 26.4467 35 26.999C35 27.5119 34.614 27.9345 34.1166 27.9923L34 27.999H24C23.4477 27.999 23 27.5513 23 26.999C23 26.4862 23.386 26.0635 23.8834 26.0058L24 25.999H34Z" fill="#E1000F"/>
<path d="M31 30.999C31 30.4467 30.5523 29.999 30 29.999H24L23.8834 30.0058C23.386 30.0635 23 30.4862 23 30.999C23 31.5513 23.4477 31.999 24 31.999H30L30.1166 31.9923C30.614 31.9345 31 31.5119 31 30.999Z" fill="#E1000F"/>
<path d="M56 49.999C56.5523 49.999 57 50.4467 57 50.999C57 51.5119 56.614 51.9345 56.1166 51.9923L56 51.999H38C37.4477 51.999 37 51.5513 37 50.999C37 50.4862 37.386 50.0635 37.8834 50.0058L38 49.999H56Z" fill="#E1000F"/>
<path d="M53 54.999C53 54.4467 52.5523 53.999 52 53.999H38L37.8834 54.0058C37.386 54.0635 37 54.4862 37 54.999C37 55.5513 37.4477 55.999 38 55.999H52L52.1166 55.9923C52.614 55.9345 53 55.5119 53 54.999Z" fill="#E1000F"/>
<path d="M32 11.999C38.8541 11.999 44.2879 16.0561 46.9279 22.6262C47.1338 23.1386 46.8853 23.721 46.3728 23.9269C45.8604 24.1328 45.278 23.8843 45.0721 23.3719C42.7238 17.5277 37.9977 13.999 32 13.999C23.7157 13.999 17 20.7148 17 28.999C17 32.2149 18.0133 35.2753 19.8657 37.8191C20.1006 38.1416 20.1191 38.5686 19.9238 38.9072L19.8507 39.0165L16.027 43.999H22C22.5128 43.999 22.9355 44.3851 22.9933 44.8824L23 44.999C23 45.5119 22.614 45.9345 22.1166 45.9923L22 45.999H14C13.2086 45.999 12.7453 45.1326 13.1438 44.4817L13.2066 44.3903L17.82 38.377L17.7635 38.2934C16.0508 35.6758 15.0862 32.6281 15.0055 29.4353L15 28.999C15 19.6102 22.6112 11.999 32 11.999Z" fill="#21402C"/>
<path d="M47 27.999C58.0457 27.999 67 36.9533 67 47.999C67 51.1297 66.2794 54.1595 64.9137 56.9022C64.6676 57.3966 64.0672 57.5978 63.5728 57.3516C63.0784 57.1055 62.8772 56.5051 63.1234 56.0107C64.3519 53.5434 65 50.8186 65 47.999C65 38.0579 56.9411 29.999 47 29.999C37.0589 29.999 29 38.0579 29 47.999C29 57.8297 36.8808 65.8197 46.6693 65.996L47 65.999H64.131L61.1679 61.5537C60.8835 61.127 60.9702 60.5612 61.352 60.2373L61.4453 60.167C61.872 59.8825 62.4378 59.9693 62.7618 60.351L62.8321 60.4443L66.8321 66.4443C67.254 67.0772 66.842 67.9148 66.1118 67.9931L66 67.999H47C35.9543 67.999 27 59.0447 27 47.999C27 36.9533 35.9543 27.999 47 27.999Z" fill="#21402C"/>
<path d="M55 18.999C55 19.5504 55.4486 19.999 56 19.999C56.5514 19.999 57 19.5504 57 18.999C57 18.4476 56.5514 17.999 56 17.999C55.4486 17.999 55 18.4476 55 18.999Z" fill="#21402C"/>
<path d="M60 19.999C59.4486 19.999 59 19.5504 59 18.999C59 18.4476 59.4486 17.999 60 17.999C60.5514 17.999 61 18.4476 61 18.999C61 19.5504 60.5514 19.999 60 19.999Z" fill="#21402C"/>
<path d="M63 18.999C63 19.5504 63.4486 19.999 64 19.999C64.5514 19.999 65 19.5504 65 18.999C65 18.4476 64.5514 17.999 64 17.999C63.4486 17.999 63 18.4476 63 18.999Z" fill="#21402C"/>
<path fill-rule="evenodd" clip-rule="evenodd" d="M68 13.999H52C51.4477 13.999 51 14.4467 51 14.999V22.999L51.0067 23.1156C51.0645 23.613 51.4872 23.999 52 23.999H59.585L63.2929 27.7061L63.3775 27.7822C64.0145 28.2965 65 27.8512 65 26.999V23.999H68C68.5523 23.999 69 23.5513 69 22.999V14.999C69 14.4467 68.5523 13.999 68 13.999ZM67 15.999V21.999H64L63.8834 22.0058C63.386 22.0635 63 22.4862 63 22.999V24.584L60.7071 22.2919L60.608 22.2051C60.4345 22.0722 60.221 21.999 60 21.999H53V15.999H67Z" fill="#21402C"/>
<path d="M16 57.999C16.5523 57.999 17 58.4467 17 58.999C17 59.5119 16.614 59.9345 16.1166 59.9923L16 59.999H12C11.4477 59.999 11 59.5513 11 58.999C11 58.4862 11.386 58.0635 11.8834 58.0058L12 57.999H16Z" fill="#21402C"/>
<path d="M19 58.999C19 59.5504 19.4486 59.999 20 59.999C20.5514 59.999 21 59.5504 21 58.999C21 58.4476 20.5514 57.999 20 57.999C19.4486 57.999 19 58.4476 19 58.999Z" fill="#21402C"/>
<path d="M24 59.999C23.4486 59.999 23 59.5504 23 58.999C23 58.4476 23.4486 57.999 24 57.999C24.5514 57.999 25 58.4476 25 58.999C25 59.5504 24.5514 59.999 24 59.999Z" fill="#21402C"/>
</svg>
