<svg width="81" height="80" viewBox="0 0 81 80" fill="none" xmlns="http://www.w3.org/2000/svg">
<path fill-rule="evenodd" clip-rule="evenodd" d="M73.667 33C73.1156 33 72.667 32.5514 72.667 32C72.667 31.4486 73.1156 31 73.667 31C74.2184 31 74.667 31.4486 74.667 32C74.667 32.5514 74.2184 33 73.667 33Z" fill="#DFDFDF"/>
<path fill-rule="evenodd" clip-rule="evenodd" d="M12.667 43C12.1156 43 11.667 42.5514 11.667 42C11.667 41.4486 12.1156 41 12.667 41C13.2184 41 13.667 41.4486 13.667 42C13.667 42.5514 13.2184 43 12.667 43Z" fill="#DFDFDF"/>
<path fill-rule="evenodd" clip-rule="evenodd" d="M8.66699 6C8.11559 6 7.66699 5.5514 7.66699 5C7.66699 4.44855 8.11559 4 8.66699 4C9.21839 4 9.66699 4.44855 9.66699 5C9.66699 5.5514 9.21839 6 8.66699 6Z" fill="#DFDFDF"/>
<path fill-rule="evenodd" clip-rule="evenodd" d="M23.667 74C23.1156 74 22.667 73.5514 22.667 73C22.667 72.4486 23.1156 72 23.667 72C24.2184 72 24.667 72.4486 24.667 73C24.667 73.5514 24.2184 74 23.667 74Z" fill="#ECECFE"/>
<path fill-rule="evenodd" clip-rule="evenodd" d="M44.667 8C44.1156 8 43.667 7.5514 43.667 7C43.667 6.44855 44.1156 6 44.667 6C45.2184 6 45.667 6.44855 45.667 7C45.667 7.5514 45.2184 8 44.667 8Z" fill="#ECECFE"/>
<path fill-rule="evenodd" clip-rule="evenodd" d="M71.667 72C71.1156 72 70.667 71.5514 70.667 71C70.667 70.4486 71.1156 70 71.667 70C72.2184 70 72.667 70.4486 72.667 71C72.667 71.5514 72.2184 72 71.667 72Z" fill="#ECECFE"/>
<path fill-rule="evenodd" clip-rule="evenodd" d="M66.667 14C66.667 14.6106 66.4846 15.1786 66.1712 15.6525C67.3599 16.3396 68.167 17.5257 68.167 19C68.167 19.5523 67.7193 20 67.167 20C66.6147 20 66.167 19.5523 66.167 19C66.167 17.9985 65.2587 17 63.667 17C62.0967 17 61.167 18.0736 61.167 19C61.167 19.5523 60.7193 20 60.167 20C59.6147 20 59.167 19.5523 59.167 19C59.167 17.5872 59.9752 16.3783 61.1744 15.67C60.854 15.1927 60.667 14.6182 60.667 14C60.667 12.3431 62.0101 11 63.667 11C65.3238 11 66.667 12.3431 66.667 14ZM62.667 14C62.667 13.4477 63.1147 13 63.667 13C64.2193 13 64.667 13.4477 64.667 14C64.667 14.5523 64.2193 15 63.667 15C63.1147 15 62.667 14.5523 62.667 14Z" fill="#E1000F"/>
<path fill-rule="evenodd" clip-rule="evenodd" d="M27.667 19C27.667 19.6106 27.4846 20.1786 27.1712 20.6525C28.3599 21.3396 29.167 22.5257 29.167 24C29.167 24.5523 28.7193 25 28.167 25C27.6147 25 27.167 24.5523 27.167 24C27.167 22.9985 26.2587 22 24.667 22C23.0967 22 22.167 23.0736 22.167 24C22.167 24.5523 21.7193 25 21.167 25C20.6147 25 20.167 24.5523 20.167 24C20.167 22.5872 20.9752 21.3783 22.1744 20.67C21.854 20.1927 21.667 19.6182 21.667 19C21.667 17.3431 23.0101 16 24.667 16C26.3238 16 27.667 17.3431 27.667 19ZM23.667 19C23.667 18.4477 24.1147 18 24.667 18C25.2193 18 25.667 18.4477 25.667 19C25.667 19.5523 25.2193 20 24.667 20C24.1147 20 23.667 19.5523 23.667 19Z" fill="#E1000F"/>
<path fill-rule="evenodd" clip-rule="evenodd" d="M38.167 36C38.167 37.0248 38.5524 37.9596 39.1861 38.6674C37.0997 39.6632 35.667 41.6722 35.667 44C35.667 44.5523 36.1147 45 36.667 45C37.2193 45 37.667 44.5523 37.667 44C37.667 41.9252 39.5434 40 42.167 40C44.8041 40 46.667 41.8376 46.667 44C46.667 44.5523 47.1147 45 47.667 45C48.2193 45 48.667 44.5523 48.667 44C48.667 41.6003 47.2358 39.6271 45.1595 38.6543C45.7863 37.9482 46.167 37.0185 46.167 36C46.167 33.7909 44.3761 32 42.167 32C39.9579 32 38.167 33.7909 38.167 36ZM42.167 34C41.0624 34 40.167 34.8954 40.167 36C40.167 37.1046 41.0624 38 42.167 38L42.1705 38C43.2735 37.9981 44.167 37.1034 44.167 36C44.167 34.8954 43.2716 34 42.167 34Z" fill="#E1000F"/>
<path fill-rule="evenodd" clip-rule="evenodd" d="M47.667 63C47.667 63.6106 47.4846 64.1786 47.1712 64.6525C48.3599 65.3396 49.167 66.5257 49.167 68C49.167 68.5523 48.7193 69 48.167 69C47.6147 69 47.167 68.5523 47.167 68C47.167 66.9992 46.26 66.0015 44.6706 66L44.667 66L44.6635 66C43.0954 66.0016 42.167 67.0743 42.167 68C42.167 68.5523 41.7193 69 41.167 69C40.6147 69 40.167 68.5523 40.167 68C40.167 66.5872 40.9752 65.3783 42.1744 64.67C41.854 64.1927 41.667 63.6182 41.667 63C41.667 61.3431 43.0101 60 44.667 60C46.3238 60 47.667 61.3431 47.667 63ZM43.667 63C43.667 62.4477 44.1147 62 44.667 62C45.2193 62 45.667 62.4477 45.667 63C45.667 63.5523 45.2193 64 44.667 64L44.6644 64C44.1133 63.9986 43.667 63.5514 43.667 63Z" fill="#E1000F"/>
<path fill-rule="evenodd" clip-rule="evenodd" d="M67.667 41C66.0101 41 64.667 42.3431 64.667 44C64.667 44.6182 64.854 45.1927 65.1744 45.67C63.9752 46.3783 63.167 47.5872 63.167 49C63.167 49.5523 63.6147 50 64.167 50C64.7193 50 65.167 49.5523 65.167 49C65.167 48.0736 66.0967 47 67.667 47C69.2587 47 70.167 47.9985 70.167 49C70.167 49.5523 70.6147 50 71.167 50C71.7193 50 72.167 49.5523 72.167 49C72.167 47.5257 71.3599 46.3396 70.1712 45.6525C70.4846 45.1786 70.667 44.6106 70.667 44C70.667 42.3431 69.3238 41 67.667 41ZM66.667 44C66.667 43.4477 67.1147 43 67.667 43C68.2193 43 68.667 43.4477 68.667 44C68.667 44.5523 68.2193 45 67.667 45C67.1147 45 66.667 44.5523 66.667 44Z" fill="#E1000F"/>
<path fill-rule="evenodd" clip-rule="evenodd" d="M17.667 58C17.667 58.6106 17.4846 59.1786 17.1712 59.6525C18.3599 60.3396 19.167 61.5257 19.167 63C19.167 63.5523 18.7193 64 18.167 64C17.6147 64 17.167 63.5523 17.167 63C17.167 61.9985 16.2587 61 14.667 61C13.0967 61 12.167 62.0736 12.167 63C12.167 63.5523 11.7193 64 11.167 64C10.6147 64 10.167 63.5523 10.167 63C10.167 61.5872 10.9752 60.3783 12.1744 59.67C11.854 59.1927 11.667 58.6182 11.667 58C11.667 56.3431 13.0101 55 14.667 55C16.3238 55 17.667 56.3431 17.667 58ZM13.667 58C13.667 57.4477 14.1147 57 14.667 57C15.2193 57 15.667 57.4477 15.667 58C15.667 58.5523 15.2193 59 14.667 59C14.1147 59 13.667 58.5523 13.667 58Z" fill="#E1000F"/>
<path d="M12.667 26C13.2193 26 13.667 25.5523 13.667 25C13.667 24.4477 13.2193 24 12.667 24C12.1147 24 11.667 24.4477 11.667 25C11.667 25.5523 12.1147 26 12.667 26Z" fill="#E1000F"/>
<path fill-rule="evenodd" clip-rule="evenodd" d="M67.667 39C63.801 39 60.667 42.134 60.667 46C60.667 49.866 63.801 53 67.667 53C71.533 53 74.667 49.866 74.667 46C74.667 42.134 71.533 39 67.667 39ZM58.667 46C58.667 41.0294 62.6964 37 67.667 37C72.6376 37 76.667 41.0294 76.667 46C76.667 50.9706 72.6376 55 67.667 55C62.6964 55 58.667 50.9706 58.667 46Z" fill="#21402C"/>
<path fill-rule="evenodd" clip-rule="evenodd" d="M14.1005 27.176C14.5556 26.8631 15.1781 26.9784 15.491 27.4335C16.4668 28.8528 17.9134 29.9552 19.6142 30.8056C20.1082 31.0526 20.3084 31.6532 20.0614 32.1472C19.8144 32.6412 19.2138 32.8414 18.7198 32.5944C16.8206 31.6448 15.0671 30.3472 13.8429 28.5665C13.5301 28.1114 13.6454 27.4888 14.1005 27.176Z" fill="#21402C"/>
<path fill-rule="evenodd" clip-rule="evenodd" d="M24.667 14C20.801 14 17.667 17.134 17.667 21C17.667 24.866 20.801 28 24.667 28C28.533 28 31.667 24.866 31.667 21C31.667 17.134 28.533 14 24.667 14ZM15.667 21C15.667 16.0294 19.6964 12 24.667 12C29.6376 12 33.667 16.0294 33.667 21C33.667 25.9706 29.6376 30 24.667 30C19.6964 30 15.667 25.9706 15.667 21Z" fill="#21402C"/>
<path fill-rule="evenodd" clip-rule="evenodd" d="M14.667 53C10.801 53 7.66699 56.134 7.66699 60C7.66699 63.866 10.801 67 14.667 67C18.533 67 21.667 63.866 21.667 60C21.667 56.134 18.533 53 14.667 53ZM5.66699 60C5.66699 55.0294 9.69643 51 14.667 51C19.6376 51 23.667 55.0294 23.667 60C23.667 64.9706 19.6376 69 14.667 69C9.69643 69 5.66699 64.9706 5.66699 60Z" fill="#21402C"/>
<path fill-rule="evenodd" clip-rule="evenodd" d="M54.667 16C54.667 11.0477 58.7147 7 63.667 7C65.0262 7 66.3789 7.33793 67.5142 7.90557C68.0082 8.15256 68.2084 8.75324 67.9614 9.24721C67.7144 9.74119 67.1138 9.94142 66.6198 9.69443C65.7551 9.26207 64.7078 9 63.667 9C59.8193 9 56.667 12.1523 56.667 16C56.667 19.8477 59.8193 23 63.667 23C67.5147 23 70.667 19.8477 70.667 16C70.667 15.4477 71.1147 15 71.667 15C72.2193 15 72.667 15.4477 72.667 16C72.667 20.9523 68.6193 25 63.667 25C58.7147 25 54.667 20.9523 54.667 16Z" fill="#21402C"/>
<path fill-rule="evenodd" clip-rule="evenodd" d="M68.867 10.2C69.1984 9.75816 69.8251 9.66862 70.267 9.99998C70.368 10.0757 70.4508 10.1562 70.5099 10.2171C70.5669 10.2759 70.621 10.3368 70.6596 10.3802C70.6612 10.382 70.6628 10.3838 70.6644 10.3856C70.709 10.4358 70.736 10.4659 70.7599 10.4906C70.7684 10.4994 70.7741 10.5048 70.7769 10.5076C71.2101 10.8408 71.2959 11.4615 70.967 11.9C70.6356 12.3418 70.0088 12.4314 69.567 12.1C69.466 12.0242 69.3832 11.9438 69.3241 11.8829C69.2671 11.824 69.2129 11.7631 69.1744 11.7198C69.1728 11.7179 69.1712 11.7161 69.1696 11.7143C69.125 11.6642 69.098 11.634 69.0741 11.6094C69.0655 11.6006 69.0599 11.5952 69.057 11.5924C68.6238 11.2592 68.5381 10.6385 68.867 10.2Z" fill="#21402C"/>
<path fill-rule="evenodd" clip-rule="evenodd" d="M35.667 65C35.667 60.0477 39.7147 56 44.667 56C49.6193 56 53.667 60.0477 53.667 65C53.667 69.9523 49.6193 74 44.667 74C43.3078 74 41.9551 73.6621 40.8198 73.0944C40.3258 72.8474 40.1256 72.2468 40.3726 71.7528C40.6196 71.2588 41.2202 71.0586 41.7142 71.3056C42.5789 71.7379 43.6262 72 44.667 72C48.5147 72 51.667 68.8477 51.667 65C51.667 61.1523 48.5147 58 44.667 58C40.8193 58 37.667 61.1523 37.667 65C37.667 65.5523 37.2193 66 36.667 66C36.1147 66 35.667 65.5523 35.667 65Z" fill="#21402C"/>
<path fill-rule="evenodd" clip-rule="evenodd" d="M37.867 69.4C38.1984 68.9582 38.8252 68.8686 39.267 69.2C39.368 69.2758 39.4508 69.3562 39.5099 69.4171C39.5669 69.4759 39.6211 69.5369 39.6596 69.5802C39.6612 69.5821 39.6628 69.5839 39.6644 69.5856C39.709 69.6358 39.736 69.6659 39.7599 69.6906C39.7685 69.6994 39.7741 69.7048 39.777 69.7076C40.2102 70.0408 40.2959 70.6615 39.967 71.1C39.6356 71.5418 39.0088 71.6314 38.567 71.3C38.466 71.2242 38.3832 71.1438 38.3241 71.0829C38.2671 71.024 38.2129 70.9631 38.1744 70.9198C38.1728 70.9179 38.1712 70.9161 38.1696 70.9144C38.125 70.8642 38.098 70.834 38.0741 70.8094C38.0655 70.8006 38.0599 70.7952 38.057 70.7924C37.6238 70.4592 37.5381 69.8385 37.867 69.4Z" fill="#21402C"/>
<path fill-rule="evenodd" clip-rule="evenodd" d="M42.167 30C36.9203 30 32.667 34.2533 32.667 39.5C32.667 44.7467 36.9203 49 42.167 49C47.4137 49 51.667 44.7467 51.667 39.5C51.667 34.2533 47.4137 30 42.167 30ZM30.667 39.5C30.667 33.1487 35.8157 28 42.167 28C48.5183 28 53.667 33.1487 53.667 39.5C53.667 45.8513 48.5183 51 42.167 51C35.8157 51 30.667 45.8513 30.667 39.5Z" fill="#21402C"/>
<path fill-rule="evenodd" clip-rule="evenodd" d="M58.3741 21.2929C58.7646 21.6834 58.7646 22.3166 58.3741 22.7071L49.3741 31.7071C48.9836 32.0976 48.3504 32.0976 47.9599 31.7071C47.5694 31.3166 47.5694 30.6834 47.9599 30.2929L56.9599 21.2929C57.3504 20.9024 57.9836 20.9024 58.3741 21.2929Z" fill="#21402C"/>
<path fill-rule="evenodd" clip-rule="evenodd" d="M51.6926 42.7751C51.8168 42.237 52.3537 41.9014 52.8919 42.0256L59.3919 43.5256C59.93 43.6498 60.2656 44.1867 60.1414 44.7249C60.0172 45.263 59.4803 45.5986 58.9422 45.4744L52.4422 43.9744C51.904 43.8502 51.5684 43.3133 51.6926 42.7751Z" fill="#21402C"/>
<path fill-rule="evenodd" clip-rule="evenodd" d="M43.5839 49.5034C44.1343 49.4576 44.6177 49.8666 44.6635 50.4169L45.1635 56.4169C45.2094 56.9673 44.8004 57.4507 44.25 57.4965C43.6997 57.5424 43.2163 57.1334 43.1705 56.583L42.6704 50.583C42.6246 50.0327 43.0336 49.5493 43.5839 49.5034Z" fill="#21402C"/>
<path fill-rule="evenodd" clip-rule="evenodd" d="M29.4599 26.7929C29.8504 26.4024 30.4836 26.4024 30.8741 26.7929L35.3741 31.2929C35.7646 31.6834 35.7646 32.3166 35.3741 32.7071C34.9836 33.0976 34.3504 33.0976 33.9599 32.7071L29.4599 28.2071C29.0694 27.8166 29.0694 27.1834 29.4599 26.7929Z" fill="#21402C"/>
<path fill-rule="evenodd" clip-rule="evenodd" d="M33.9712 45.9056C34.2994 46.3498 34.2055 46.9759 33.7614 47.3042L22.2614 55.8042C21.8172 56.1325 21.1911 56.0385 20.8628 55.5944C20.5345 55.1503 20.6285 54.5241 21.0726 54.1958L32.5726 45.6958C33.0167 45.3676 33.6429 45.4615 33.9712 45.9056Z" fill="#21402C"/>
</svg>
