<svg width="64" height="64" viewBox="0 0 64 64" fill="none" xmlns="http://www.w3.org/2000/svg">
<path fill-rule="evenodd" clip-rule="evenodd" d="M59.9992 49.5995C59.5581 49.5995 59.1992 49.2406 59.1992 48.7995C59.1992 48.3584 59.5581 47.9995 59.9992 47.9995C60.4403 47.9995 60.7992 48.3584 60.7992 48.7995C60.7992 49.2406 60.4403 49.5995 59.9992 49.5995Z" fill="#CACAFB"/>
<path fill-rule="evenodd" clip-rule="evenodd" d="M43.9992 3.19961C43.5581 3.19961 43.1992 2.84073 43.1992 2.39961C43.1992 1.95845 43.5581 1.59961 43.9992 1.59961C44.4403 1.59961 44.7992 1.95845 44.7992 2.39961C44.7992 2.84073 44.4403 3.19961 43.9992 3.19961Z" fill="#CACAFB"/>
<path fill-rule="evenodd" clip-rule="evenodd" d="M2.39961 43.1996C1.95849 43.1996 1.59961 42.8407 1.59961 42.3996C1.59961 41.9585 1.95849 41.5996 2.39961 41.5996C2.84073 41.5996 3.19961 41.9585 3.19961 42.3996C3.19961 42.8407 2.84073 43.1996 2.39961 43.1996Z" fill="#CACAFB"/>
<path d="M32.8002 14.3994C33.242 14.3994 33.6002 14.7576 33.6002 15.1994C33.6002 15.6097 33.2914 15.9478 32.8935 15.994L32.8002 15.9994H20.0002C19.5584 15.9994 19.2002 15.6412 19.2002 15.1994C19.2002 14.7891 19.509 14.451 19.9069 14.4048L20.0002 14.3994H32.8002Z" fill="#E18B76"/>
<path d="M40.8002 19.1994C41.242 19.1994 41.6002 19.5576 41.6002 19.9994C41.6002 20.4097 41.2914 20.7478 40.8935 20.794L40.8002 20.7994H20.0002C19.5584 20.7994 19.2002 20.4412 19.2002 19.9994C19.2002 19.5891 19.509 19.251 19.9069 19.2048L20.0002 19.1994H40.8002Z" fill="#E18B76"/>
<path d="M36.8002 24.7994C36.8002 24.3576 36.442 23.9994 36.0002 23.9994H20.0002L19.9069 24.0048C19.509 24.051 19.2002 24.3891 19.2002 24.7994C19.2002 25.2412 19.5584 25.5994 20.0002 25.5994H36.0002L36.0935 25.594C36.4914 25.5478 36.8002 25.2097 36.8002 24.7994Z" fill="#E18B76"/>
<path d="M40.8004 28.7996C41.2422 28.7996 41.6004 29.1578 41.6004 29.5996C41.6004 30.0099 41.2916 30.348 40.8937 30.3942L40.8004 30.3996H20.0004C19.5586 30.3996 19.2004 30.0414 19.2004 29.5996C19.2004 29.1893 19.5092 28.8512 19.9071 28.805L20.0004 28.7996H40.8004Z" fill="#21402C"/>
<path d="M41.6004 39.1996C41.6004 38.7578 41.2422 38.3996 40.8004 38.3996H20.0004L19.9071 38.405C19.5092 38.4512 19.2004 38.7893 19.2004 39.1996C19.2004 39.6414 19.5586 39.9996 20.0004 39.9996H40.8004L40.8937 39.9942C41.2916 39.948 41.6004 39.6099 41.6004 39.1996Z" fill="#21402C"/>
<path d="M36.8004 34.3996C36.8004 33.9578 36.4422 33.5996 36.0004 33.5996H20.0004L19.9071 33.605C19.5092 33.6512 19.2004 33.9893 19.2004 34.3996C19.2004 34.8414 19.5586 35.1996 20.0004 35.1996H36.0004L36.0937 35.1942C36.4916 35.148 36.8004 34.8099 36.8004 34.3996Z" fill="#21402C"/>
<path d="M36.0004 47.9996C36.4422 47.9996 36.8004 48.3578 36.8004 48.7996C36.8004 49.2099 36.4916 49.548 36.0937 49.5942L36.0004 49.5996H20.0004C19.5586 49.5996 19.2004 49.2414 19.2004 48.7996C19.2004 48.3893 19.5092 48.0512 19.9071 48.005L20.0004 47.9996H36.0004Z" fill="#21402C"/>
<path d="M32.0004 43.9996C32.0004 43.5578 31.6422 43.1996 31.2004 43.1996H20.0004L19.9071 43.205C19.5092 43.2512 19.2004 43.5893 19.2004 43.9996C19.2004 44.4414 19.5586 44.7996 20.0004 44.7996H31.2004L31.2937 44.7942C31.6916 44.748 32.0004 44.4099 32.0004 43.9996Z" fill="#21402C"/>
<path fill-rule="evenodd" clip-rule="evenodd" d="M15.2004 9.59961H45.6004C46.0422 9.59961 46.4004 9.95778 46.4004 10.3996V53.5996C46.4004 54.0414 46.0422 54.3996 45.6004 54.3996H15.2004C14.7586 54.3996 14.4004 54.0414 14.4004 53.5996V10.3996C14.4004 9.95778 14.7586 9.59961 15.2004 9.59961ZM44.8004 52.7996V11.1996H16.0004V52.7996H44.8004Z" fill="#21402C"/>
<path d="M48.8004 15.9996C49.2107 15.9996 49.5488 16.3084 49.595 16.7063L49.6004 16.7996V56.7996C49.6004 57.2099 49.2916 57.548 48.8937 57.5942L48.8004 57.5996H21.6004C21.1586 57.5996 20.8004 57.2414 20.8004 56.7996C20.8004 56.3893 21.1092 56.0512 21.5071 56.005L21.6004 55.9996H48.0004V16.7996C48.0004 16.3893 48.3092 16.0512 48.7071 16.005L48.8004 15.9996Z" fill="#21402C"/>
</svg>
