<svg width="156" height="156" viewBox="0 0 156 156" fill="none" xmlns="http://www.w3.org/2000/svg">
<path opacity="0.4" fill-rule="evenodd" clip-rule="evenodd" d="M132.6 25.3495C131.525 25.3495 130.65 24.4747 130.65 23.3995C130.65 22.3242 131.525 21.4495 132.6 21.4495C133.675 21.4495 134.55 22.3242 134.55 23.3995C134.55 24.4747 133.675 25.3495 132.6 25.3495ZM79.9501 148.199C78.8748 148.199 78 147.325 78 146.249C78 145.174 78.8748 144.299 79.9501 144.299C81.0253 144.299 81.9001 145.174 81.9001 146.249C81.9001 147.325 81.0253 148.199 79.9501 148.199ZM29.25 19.4995C28.1748 19.4995 27.3 18.6247 27.3 17.5495C27.3 16.4742 28.1748 15.5995 29.25 15.5995C30.3253 15.5995 31.2 16.4742 31.2 17.5495C31.2 18.6247 30.3253 19.4995 29.25 19.4995Z" fill="#DFFDF7"/>
<path fill-rule="evenodd" clip-rule="evenodd" d="M113.061 52.2603C113.26 53.2402 112.687 54.1981 111.759 54.502L111.539 54.5603C108.265 55.2272 106.753 58.8345 107.366 65.7723L107.25 65.7733C108.466 65.7733 109.567 65.6636 111.726 65.3362L114.886 64.8425L116.19 64.6595C121.025 64.0342 124.013 64.3057 126.581 66.1351C133.921 71.3632 136.5 77.1456 136.5 87.4304C136.5 102.111 125.85 114.515 111.621 116.671C110.556 116.833 109.562 116.1 109.401 115.036C109.239 113.971 109.972 112.977 111.036 112.815C123.358 110.948 132.6 100.184 132.6 87.4304C132.6 78.3351 130.558 73.7556 124.319 69.3116C122.785 68.2193 120.543 68.0295 116.63 68.5358L115.217 68.7368L111.754 69.2756C110.06 69.524 108.98 69.6361 107.877 69.6653C108.086 70.9195 108.349 72.2557 108.666 73.6748C108.702 73.8369 108.717 73.9988 108.712 74.1576C110.011 73.6701 110.832 72.7863 111.25 71.5329C111.591 70.5112 112.695 69.959 113.717 70.2996C114.738 70.6401 115.291 71.7444 114.95 72.7661C113.273 77.796 108.367 79.4315 101.018 77.9616C99.9615 77.7504 99.2767 76.7231 99.4879 75.6671C99.6991 74.611 100.726 73.9262 101.782 74.1374C102.922 74.3654 103.95 74.5081 104.872 74.568L104.859 74.5242C104.459 72.7318 104.138 71.034 103.896 69.4329C103.541 69.3879 103.152 69.3331 102.724 69.2697L99.9268 68.8287C94.5425 67.9677 91.9861 68.0146 90.188 69.3068C83.9753 73.7716 81.9 78.4093 81.9 87.4304C81.9 88.5074 81.027 89.3804 79.95 89.3804C78.873 89.3804 78 88.5074 78 87.4304C78 77.2219 80.6112 71.3866 87.912 66.1398C90.7714 64.085 93.8822 63.9564 99.8658 64.8717L102.759 65.3304C103.003 65.3678 103.233 65.4023 103.451 65.4343C102.857 56.9087 105.17 51.8775 110.761 50.7387C111.816 50.5238 112.846 51.205 113.061 52.2603ZM79.95 93.5995C81.027 93.5995 81.9 94.4725 81.9 95.5495V99.4495C81.9 100.526 81.027 101.399 79.95 101.399C78.873 101.399 78 100.526 78 99.4495V95.5495C78 94.4725 78.873 93.5995 79.95 93.5995Z" fill="white"/>
<path fill-rule="evenodd" clip-rule="evenodd" d="M49.1348 92.9529C49.3511 94.0079 48.6712 95.0385 47.6162 95.2548C46.5612 95.4712 45.5306 94.7913 45.3143 93.7363C44.4847 89.6905 42.951 88.6746 39.8039 89.82C37.9751 90.4857 37.0084 91.7861 37.0494 93.5543C37.0631 94.1426 36.8147 94.6761 36.4109 95.0431C36.3947 95.0945 36.3732 95.1492 36.3491 95.2033C35.9104 96.1869 34.7575 96.6286 33.7739 96.19C27.4517 93.3704 24.7069 94.1868 23.9504 98.4771C23.1939 102.767 25.494 104.473 32.3992 103.986C32.5945 103.972 32.7852 103.988 32.9668 104.029C33.0824 104.044 33.1991 104.071 33.3147 104.11C34.3365 104.45 34.8891 105.554 34.5489 106.576C33.2445 110.494 34.0647 112.141 37.3629 112.723C39.9288 113.175 41.6116 111.557 42.4098 107.106L42.4334 106.729C42.4916 105.956 42.5911 105.147 42.7286 104.298L42.7916 103.974L42.815 103.786L42.828 103.728L42.83 103.714L42.8456 103.65L42.8684 103.561C42.9333 103.344 43.034 103.145 43.1626 102.969C43.1852 102.939 43.2084 102.909 43.2325 102.88C43.3468 102.742 43.4799 102.62 43.6269 102.518C43.6658 102.491 43.7071 102.465 43.7493 102.44C43.77 102.428 43.7891 102.417 43.8085 102.407L43.8939 102.363C43.9322 102.345 43.9706 102.328 44.0096 102.312C44.0581 102.293 44.1069 102.275 44.1564 102.26C44.1697 102.256 44.1836 102.252 44.1975 102.248L44.3264 102.215C44.3592 102.208 44.3927 102.202 44.4264 102.196C44.4416 102.194 44.4564 102.192 44.4713 102.19C44.6041 102.172 44.7409 102.167 44.8794 102.177L44.9222 102.181L44.9982 102.19L45.0588 102.199L45.0793 102.203C45.2069 102.225 45.3299 102.26 45.447 102.306C45.473 102.316 45.4987 102.327 45.524 102.338C45.7227 102.426 45.9022 102.545 46.0573 102.688L46.1587 102.789C46.1753 102.806 46.1909 102.824 46.2062 102.841C46.232 102.871 46.2578 102.902 46.2825 102.934C46.3028 102.961 46.3217 102.987 46.3399 103.013C46.3566 103.037 46.3734 103.063 46.3897 103.089C46.4122 103.125 46.4329 103.161 46.4524 103.197C46.456 103.203 46.4601 103.211 46.4642 103.219C46.4917 103.271 46.5165 103.325 46.5389 103.379L46.548 103.401C46.5881 103.501 46.62 103.605 46.643 103.713C46.6801 103.885 46.6941 104.065 46.682 104.248C46.6814 104.255 46.6809 104.263 46.6803 104.271C46.5921 105.425 46.4583 106.506 46.2788 107.51C46.038 111.89 47.6904 113.957 52.8532 115.466C53.7543 115.729 54.9892 115.965 56.4718 116.167L58.1786 106.493C58.3656 105.432 59.377 104.724 60.4376 104.911C61.4982 105.098 62.2063 106.109 62.0193 107.17L60.3577 116.579C66.0619 117.044 73.5441 117.147 80.1379 116.736L81.2231 110.556C81.4101 109.495 82.4215 108.787 83.4821 108.974C84.5427 109.161 85.2508 110.173 85.0638 111.233L84.1466 116.432L84.4236 116.41C88.5376 116.067 91.6833 115.725 94.3423 115.299L94.9049 115.207C96.8985 114.87 98.4548 114.5 99.5111 114.105L99.8681 113.962L100.05 113.88L99.8304 113.664L99.6079 113.466C98.7418 112.72 97.3965 111.822 95.6467 110.818C92.5734 109.054 88.4041 107.042 83.719 105.001C81.0278 103.828 78.0309 102.671 74.8901 101.573L73.5416 109.201C73.3546 110.262 72.3432 110.97 71.2826 110.783C70.222 110.596 69.5138 109.585 69.7008 108.524L71.0553 100.843C71.087 100.663 71.1425 100.493 71.218 100.336C69.2924 99.711 67.3338 99.1118 65.3805 98.5486L63.7316 98.0818C61.5711 97.4817 59.5799 96.9749 57.9679 96.6115C56.9173 96.3747 56.2576 95.331 56.4944 94.2804C56.7313 93.2299 57.7749 92.5701 58.8255 92.807L60.1493 93.1165C61.9995 93.5631 64.1729 94.1414 66.4611 94.8012C73.0858 96.7116 79.772 99.0269 85.2768 101.425L87.497 102.403C98.9896 107.52 104.883 111.129 104.268 114.619C103.637 118.194 98.1434 119.243 83.5639 120.394L81.9372 120.52C81.9136 120.523 81.8979 120.523 81.8822 120.524L81.9372 120.52C74.1224 121.116 64.8259 120.971 58.227 120.295C58.0656 120.311 57.8978 120.304 57.7287 120.274C57.6472 120.259 57.5679 120.24 57.4909 120.216C55.112 119.949 53.1301 119.61 51.759 119.209C47.7237 118.03 45.1681 116.35 43.7597 114.01C42.0878 116.191 39.7303 117.1 36.6857 116.563C31.7685 115.696 29.5391 112.578 30.2138 107.948C22.706 107.831 18.9545 104.351 20.1097 97.7999C21.2779 91.1746 26.0875 89.2174 33.3167 91.8036C33.8626 89.1801 35.7354 87.1506 38.4701 86.1552C43.9946 84.1445 47.8526 86.6999 49.1348 92.9529ZM72.15 38.9995C73.2269 38.9995 74.1 39.8725 74.1 40.9495L74.0982 52.0586L81.5713 63.2657C81.5909 63.2954 81.5996 63.3091 81.6082 63.3229L81.6205 63.343C81.6549 63.4022 81.6717 63.4331 81.6876 63.4642C81.6945 63.4771 81.701 63.4902 81.7073 63.5034L81.6954 63.4817L81.7162 63.5222C81.7232 63.537 81.73 63.552 81.7366 63.567C81.7826 63.6721 81.8186 63.7793 81.8451 63.8878L81.8563 63.9374L81.8663 63.9869C81.8731 64.0219 81.8786 64.0566 81.8832 64.0913L81.8868 64.1221L81.8945 64.1986C81.8972 64.2344 81.899 64.2702 81.8997 64.306L81.9 68.2495C81.9 69.3265 81.0269 70.1995 79.95 70.1995C78.873 70.1995 78 69.3265 78 68.2495L77.9982 66.2995H66.2982L66.3 87.7495C66.3 88.8265 65.4269 89.6995 64.35 89.6995C63.273 89.6995 62.4 88.8265 62.4 87.7495L62.3982 66.2995H35.1L35.0982 74.0995H48.75C49.8269 74.0995 50.7 74.9725 50.7 76.0495C50.7 77.1264 49.8269 77.9995 48.75 77.9995H35.1V83.8495C35.1 84.8495 34.3472 85.6737 33.3774 85.7864L33.15 85.7995C32.073 85.7995 31.2 84.9264 31.2 83.8495V64.3495L31.2131 64.1221L31.2167 64.0913L31.2243 64.0393L31.2334 63.9873C31.2398 63.9538 31.2469 63.921 31.2548 63.8884C31.2813 63.7793 31.3174 63.6721 31.3633 63.5675C31.3765 63.5369 31.3904 63.5072 31.4051 63.478C31.4173 63.4541 31.4298 63.4305 31.4427 63.407L31.518 63.2818L38.9982 52.0586L39 40.9495C39 39.8725 39.873 38.9995 40.95 38.9995H72.15ZM72.1482 56.1634L67.9908 62.3995H76.3056L72.1482 56.1634ZM68.5037 54.5995H41.9915L36.7908 62.3995H63.303L68.5037 54.5995ZM70.2 42.8995H42.9L42.8982 50.6995H70.1982L70.2 42.8995Z" fill="#E6FEDA"/>
</svg>
