<svg width="56" height="57" viewBox="0 0 56 57" fill="none" xmlns="http://www.w3.org/2000/svg">
<path fill-rule="evenodd" clip-rule="evenodd" d="M47.5998 9.81885C47.2138 9.81885 46.8998 9.50483 46.8998 9.11885C46.8998 8.73283 47.2138 8.41885 47.5998 8.41885C47.9858 8.41885 48.2998 8.73283 48.2998 9.11885C48.2998 9.50483 47.9858 9.81885 47.5998 9.81885ZM28.6998 53.9189C28.3138 53.9189 27.9998 53.6048 27.9998 53.2189C27.9998 52.8328 28.3138 52.5189 28.6998 52.5189C29.0858 52.5189 29.3998 52.8328 29.3998 53.2189C29.3998 53.6048 29.0858 53.9189 28.6998 53.9189ZM10.4998 7.71885C10.1138 7.71885 9.7998 7.40483 9.7998 7.01885C9.7998 6.63283 10.1138 6.31885 10.4998 6.31885C10.8858 6.31885 11.1998 6.63283 11.1998 7.01885C11.1998 7.40483 10.8858 7.71885 10.4998 7.71885Z" fill="#DFDFDF"/>
<path fill-rule="evenodd" clip-rule="evenodd" d="M40.5859 19.4791C40.6576 19.8309 40.4518 20.1747 40.1188 20.2838L40.0397 20.3048C38.8644 20.5442 38.3217 21.8391 38.5418 24.3296L38.5 24.33C38.9366 24.33 39.3317 24.2906 40.1068 24.1731L41.2411 23.9958L41.7093 23.9301C43.4449 23.7056 44.5175 23.8031 45.4395 24.4598C48.0742 26.3366 49 28.4123 49 32.1043C49 37.3743 45.1768 41.8269 40.069 42.601C39.6867 42.659 39.3299 42.3961 39.272 42.0138C39.2141 41.6316 39.477 41.2748 39.8592 41.2168C44.2823 40.5465 47.6 36.6825 47.6 32.1043C47.6 28.8393 46.8668 27.1954 44.6272 25.6001C44.0767 25.208 43.2718 25.1399 41.8671 25.3216L41.3601 25.3938L40.1167 25.5872C39.5088 25.6764 39.121 25.7166 38.725 25.7271C38.8002 26.1773 38.8945 26.657 39.0082 27.1664C39.0212 27.2246 39.0265 27.2827 39.0249 27.3397C39.4911 27.1647 39.7859 26.8475 39.9359 26.3975C40.0582 26.0307 40.4546 25.8325 40.8214 25.9548C41.1881 26.077 41.3863 26.4734 41.2641 26.8402C40.6622 28.6458 38.901 29.2329 36.2627 28.7052C35.8836 28.6294 35.6378 28.2606 35.7136 27.8816C35.7894 27.5025 36.1582 27.2566 36.5373 27.3324C36.9465 27.4143 37.3154 27.4655 37.6464 27.487L37.6418 27.4713C37.4982 26.8279 37.3828 26.2184 37.2961 25.6437C37.1685 25.6275 37.0289 25.6078 36.8754 25.585L35.8711 25.4268C33.9383 25.1177 33.0206 25.1345 32.3752 25.5984C30.145 27.2011 29.4 28.8659 29.4 32.1043C29.4 32.4909 29.0866 32.8043 28.7 32.8043C28.3134 32.8043 28 32.4909 28 32.1043C28 28.4397 28.9373 26.345 31.5582 24.4615C32.5846 23.7239 33.7013 23.6777 35.8493 24.0063L36.888 24.171C36.9753 24.1844 37.0579 24.1968 37.1363 24.2082C36.9229 21.1478 37.7534 19.3417 39.7603 18.9329C40.1391 18.8558 40.5087 19.1003 40.5859 19.4791ZM28.7 34.3188C29.0866 34.3188 29.4 34.6322 29.4 35.0188V36.4188C29.4 36.8054 29.0866 37.1188 28.7 37.1188C28.3134 37.1188 28 36.8054 28 36.4188V35.0188C28 34.6322 28.3134 34.3188 28.7 34.3188Z" fill="#CE614A"/>
<path fill-rule="evenodd" clip-rule="evenodd" d="M17.6377 34.0868C17.7154 34.4655 17.4713 34.8354 17.0926 34.9131C16.7139 34.9908 16.3439 34.7467 16.2662 34.368C15.9684 32.9156 15.4179 32.551 14.2882 32.9621C13.6317 33.2011 13.2847 33.6679 13.2994 34.3026C13.3043 34.5138 13.2151 34.7053 13.0702 34.8371C13.0643 34.8556 13.0566 34.8752 13.048 34.8946C12.8905 35.2477 12.4766 35.4063 12.1235 35.2488C9.85404 34.2366 8.86873 34.5297 8.59717 36.0698C8.3256 37.6099 9.15125 38.2223 11.6301 38.0474C11.7002 38.0425 11.7686 38.048 11.8338 38.0628C11.8753 38.0683 11.9172 38.078 11.9587 38.0918C12.3255 38.2139 12.5239 38.6102 12.4018 38.9771C11.9335 40.3837 12.2279 40.9748 13.4119 41.1836C14.333 41.346 14.9371 40.7651 15.2236 39.1675L15.2321 39.0319C15.253 38.7547 15.2887 38.464 15.338 38.1593L15.3607 38.0429L15.3691 37.9755L15.3737 37.9547L15.3744 37.9498L15.38 37.9267L15.3882 37.8947C15.4115 37.8168 15.4477 37.7454 15.4939 37.6825C15.502 37.6715 15.5103 37.6608 15.5189 37.6504C15.56 37.6007 15.6077 37.557 15.6605 37.5205C15.6745 37.5108 15.6893 37.5013 15.7045 37.4924C15.7119 37.4881 15.7188 37.4842 15.7257 37.4805L15.7563 37.4648C15.7701 37.4583 15.7839 37.4522 15.7979 37.4466C15.8153 37.4395 15.8328 37.4332 15.8506 37.4277C15.8554 37.4263 15.8603 37.4248 15.8654 37.4233L15.9116 37.4117C15.9234 37.4092 15.9354 37.4069 15.9475 37.405C15.953 37.4041 15.9583 37.4033 15.9636 37.4026C16.0113 37.396 16.0604 37.3944 16.1101 37.3981L16.1255 37.3994L16.1528 37.4026L16.1745 37.4059L16.1819 37.4072C16.2277 37.4153 16.2718 37.4278 16.3139 37.4443C16.3232 37.448 16.3324 37.4518 16.3415 37.4558C16.4129 37.4872 16.4773 37.53 16.533 37.5814L16.5694 37.6176C16.5753 37.6239 16.5809 37.6301 16.5864 37.6364C16.5957 37.6471 16.6049 37.6583 16.6138 37.6699C16.6211 37.6794 16.6279 37.6887 16.6344 37.6982C16.6404 37.7068 16.6465 37.716 16.6523 37.7253C16.6604 37.7383 16.6678 37.751 16.6748 37.7641C16.6761 37.7663 16.6776 37.7691 16.679 37.7719C16.6889 37.7909 16.6978 37.8099 16.7058 37.8293L16.7091 37.8372C16.7235 37.8733 16.735 37.9107 16.7432 37.9493C16.7565 38.0111 16.7616 38.0758 16.7572 38.1415C16.757 38.144 16.7568 38.1468 16.7566 38.1496C16.7249 38.5639 16.6769 38.9519 16.6125 39.3125C16.526 40.8846 17.1192 41.6266 18.9725 42.1684C19.296 42.2629 19.7393 42.3474 20.2715 42.4201L20.8842 38.9472C20.9513 38.5664 21.3144 38.3122 21.6951 38.3793C22.0758 38.4465 22.3301 38.8095 22.2629 39.1903L21.6665 42.5679C23.7141 42.7348 26.4 42.7717 28.767 42.6241L29.1566 40.4058C29.2237 40.0251 29.5868 39.7709 29.9675 39.838C30.3482 39.9051 30.6024 40.2682 30.5353 40.6489L30.206 42.5152L30.3055 42.5074C31.7823 42.3843 32.9115 42.2613 33.8661 42.1086L34.068 42.0754C34.7837 41.9546 35.3423 41.8216 35.7215 41.6798L35.8497 41.6285L35.9149 41.599L35.8361 41.5217L35.7563 41.4505C35.4453 41.1827 34.9624 40.8604 34.3343 40.4998C33.231 39.8665 31.7344 39.1444 30.0525 38.4116C29.0865 37.9907 28.0107 37.5754 26.8832 37.1811L26.3991 39.9196C26.332 40.3003 25.9689 40.5545 25.5882 40.4874C25.2075 40.4203 24.9533 40.0572 25.0204 39.6765L25.5066 36.919C25.518 36.8544 25.5379 36.7934 25.565 36.737C24.8738 36.5128 24.1707 36.2977 23.4695 36.0955L22.8776 35.9279C22.102 35.7125 21.3872 35.5306 20.8086 35.4001C20.4314 35.3151 20.1946 34.9405 20.2796 34.5633C20.3646 34.1862 20.7393 33.9494 21.1164 34.0344L21.5916 34.1455C22.2558 34.3058 23.036 34.5134 23.8574 34.7503C26.2355 35.436 28.6357 36.2672 30.6118 37.1282L31.4088 37.479C35.5343 39.3159 37.6499 40.6115 37.429 41.8644C37.2027 43.1477 35.2305 43.5243 29.9969 43.9375L29.4129 43.9828C29.4044 43.9836 29.3988 43.9839 29.3932 43.9842L29.4129 43.9828C26.6076 44.1966 23.2704 44.1446 20.9016 43.9018C20.8436 43.9075 20.7834 43.905 20.7227 43.8943C20.6935 43.8891 20.665 43.8822 20.6373 43.8737C19.7834 43.7777 19.0719 43.656 18.5797 43.5121C17.1312 43.0887 16.2138 42.4856 15.7082 41.6457C15.108 42.4286 14.2617 42.755 13.1688 42.5623C11.4037 42.2511 10.6034 41.1317 10.8455 39.4696C8.15045 39.4276 6.80377 38.1784 7.21844 35.8267C7.6378 33.4484 9.36432 32.7458 11.9594 33.6742C12.1554 32.7324 12.8277 32.0039 13.8093 31.6466C15.7925 30.9248 17.1774 31.8421 17.6377 34.0868ZM25.8996 14.7189C26.2862 14.7189 26.5996 15.0323 26.5996 15.4189L26.5989 19.4068L29.2816 23.4298C29.2886 23.4405 29.2917 23.4454 29.2948 23.4503L29.2992 23.4576C29.3116 23.4788 29.3176 23.4899 29.3233 23.5011C29.3258 23.5057 29.3281 23.5104 29.3304 23.5151L29.3261 23.5074L29.3336 23.5219C29.3361 23.5272 29.3386 23.5326 29.3409 23.538C29.3574 23.5757 29.3704 23.6142 29.3799 23.6531L29.3839 23.6709L29.3875 23.6887C29.3899 23.7013 29.3919 23.7137 29.3936 23.7262L29.3949 23.7372L29.3976 23.7647C29.3986 23.7776 29.3992 23.7904 29.3995 23.8033L29.3996 25.2189C29.3996 25.6055 29.0862 25.9189 28.6996 25.9189C28.313 25.9189 27.9996 25.6055 27.9996 25.2189L27.9989 24.5189H23.7989L23.7996 32.2189C23.7996 32.6055 23.4862 32.9189 23.0996 32.9189C22.713 32.9189 22.3996 32.6055 22.3996 32.2189L22.3989 24.5189H12.5996L12.5989 27.3189H17.4996C17.8862 27.3189 18.1996 27.6323 18.1996 28.0189C18.1996 28.4055 17.8862 28.7189 17.4996 28.7189H12.5996V30.8189C12.5996 31.1779 12.3293 31.4737 11.9812 31.5142L11.8996 31.5189C11.513 31.5189 11.1996 31.2055 11.1996 30.8189V23.8189L11.2043 23.7372L11.2056 23.7262L11.2083 23.7075L11.2116 23.6889C11.2139 23.6768 11.2164 23.665 11.2192 23.6534C11.2288 23.6142 11.2417 23.5757 11.2582 23.5382C11.2629 23.5272 11.2679 23.5165 11.2732 23.506C11.2776 23.4974 11.282 23.489 11.2867 23.4806L11.3137 23.4356L13.9989 19.4068L13.9996 15.4189C13.9996 15.0323 14.313 14.7189 14.6996 14.7189H25.8996ZM25.8989 20.8803L24.4065 23.1189H27.3913L25.8989 20.8803ZM24.5906 20.3189H15.0734L13.2065 23.1189H22.7237L24.5906 20.3189ZM25.1996 16.1189H15.3996L15.3989 18.9189H25.1989L25.1996 16.1189Z" fill="#21402C"/>
</svg>
