<svg width="80" height="80" viewBox="0 0 80 80" fill="none" xmlns="http://www.w3.org/2000/svg">
<path fill-rule="evenodd" clip-rule="evenodd" d="M68 12.9995C67.4486 12.9995 67 12.5509 67 11.9995C67 11.4481 67.4486 10.9995 68 10.9995C68.5514 10.9995 69 11.4481 69 11.9995C69 12.5509 68.5514 12.9995 68 12.9995ZM41 75.9995C40.4486 75.9995 40 75.5509 40 74.9995C40 74.4481 40.4486 73.9995 41 73.9995C41.5514 73.9995 42 74.4481 42 74.9995C42 75.5509 41.5514 75.9995 41 75.9995ZM15 9.99951C14.4486 9.99951 14 9.55091 14 8.99951C14 8.44806 14.4486 7.99951 15 7.99951C15.5514 7.99951 16 8.44806 16 8.99951C16 9.55091 15.5514 9.99951 15 9.99951Z" fill="#DFDFDF"/>
<path fill-rule="evenodd" clip-rule="evenodd" d="M57.9799 26.8001C58.0822 27.3026 57.7883 27.7938 57.3125 27.9497L57.1996 27.9796C55.5206 28.3216 54.7453 30.1715 55.0597 33.7293L55 33.7299C55.6238 33.7299 56.1881 33.6736 57.2954 33.5057L58.9159 33.2525L59.5847 33.1587C62.0641 32.838 63.5964 32.9772 64.9135 33.9154C68.6775 36.5965 70 39.5618 70 44.8361C70 52.3647 64.5383 58.7256 57.2414 59.8314C56.6953 59.9142 56.1856 59.5386 56.1028 58.9925C56.0201 58.4465 56.3957 57.9368 56.9417 57.854C63.2604 56.8964 68 51.3764 68 44.8361C68 40.1718 66.9526 37.8234 63.7532 35.5444C62.9668 34.9842 61.8169 34.8869 59.8101 35.1465L59.0858 35.2496L57.3095 35.5259C56.4412 35.6533 55.8872 35.7108 55.3214 35.7258C55.4288 36.3689 55.5636 37.0542 55.726 37.7819C55.7445 37.8651 55.7522 37.9481 55.7498 38.0295C56.4159 37.7795 56.837 37.3263 57.0513 36.6835C57.226 36.1595 57.7923 35.8764 58.3162 36.051C58.8402 36.2257 59.1233 36.792 58.9487 37.3159C58.0889 39.8954 55.5728 40.7341 51.8039 39.9803C51.2623 39.872 50.9111 39.3451 51.0194 38.8036C51.1277 38.262 51.6546 37.9108 52.1961 38.0191C52.7807 38.136 53.3078 38.2092 53.7806 38.2399L53.774 38.2175C53.5689 37.2983 53.404 36.4277 53.2802 35.6066C53.0978 35.5835 52.8984 35.5554 52.6792 35.5229L51.2445 35.2967C48.4833 34.8552 47.1724 34.8793 46.2502 35.5419C43.0642 37.8316 42 40.2099 42 44.8361C42 45.3884 41.5523 45.8361 41 45.8361C40.4477 45.8361 40 45.3884 40 44.8361C40 39.6009 41.3391 36.6085 45.0831 33.9178C46.5494 32.864 48.1447 32.7981 51.2132 33.2675L52.6971 33.5027C52.8219 33.5219 52.9399 33.5396 53.0519 33.556C52.747 29.1839 53.9335 26.6038 56.8004 26.0198C57.3416 25.9096 57.8696 26.2589 57.9799 26.8001ZM41 47.9997C41.5523 47.9997 42 48.4474 42 48.9997V50.9997C42 51.552 41.5523 51.9997 41 51.9997C40.4477 51.9997 40 51.552 40 50.9997V48.9997C40 48.4474 40.4477 47.9997 41 47.9997Z" fill="#CE614A"/>
<path fill-rule="evenodd" clip-rule="evenodd" d="M25.1973 47.6679C25.3082 48.209 24.9596 48.7375 24.4185 48.8484C23.8775 48.9593 23.349 48.6107 23.238 48.0697C22.8126 45.9949 22.0261 45.4739 20.4122 46.0613C19.4744 46.4027 18.9786 47.0696 18.9997 47.9763C19.0067 48.278 18.8793 48.5516 18.6722 48.7398C18.6639 48.7662 18.6529 48.7942 18.6405 48.822C18.4155 49.3264 17.8243 49.5529 17.3199 49.328C14.0778 47.882 12.6702 48.3007 12.2822 50.5009C11.8943 52.701 13.0738 53.5759 16.6149 53.326C16.7151 53.3189 16.8129 53.3269 16.906 53.3479C16.9653 53.3558 17.0251 53.3697 17.0844 53.3894C17.6084 53.5638 17.8918 54.13 17.7174 54.6541C17.0484 56.6636 17.469 57.508 19.1604 57.8062C20.4762 58.0382 21.3392 57.2084 21.7486 54.9262L21.7607 54.7324C21.7905 54.3364 21.8416 53.9212 21.912 53.4858L21.9444 53.3196L21.9564 53.2233L21.963 53.1935L21.964 53.1865L21.972 53.1535L21.9837 53.1078C22.017 52.9965 22.0687 52.8945 22.1346 52.8046C22.1462 52.789 22.1581 52.7738 22.1704 52.7589C22.2291 52.6878 22.2973 52.6254 22.3727 52.5733C22.3927 52.5594 22.4138 52.5459 22.4355 52.5331C22.4461 52.527 22.4559 52.5215 22.4658 52.5161L22.5096 52.4937C22.5293 52.4843 22.549 52.4757 22.569 52.4676C22.5939 52.4575 22.6189 52.4486 22.6442 52.4407C22.6511 52.4386 22.6582 52.4365 22.6654 52.4344L22.7314 52.4178C22.7483 52.4142 22.7654 52.411 22.7827 52.4082C22.7905 52.407 22.7981 52.4059 22.8057 52.4048C22.8739 52.3954 22.944 52.3931 23.015 52.3984L23.037 52.4003L23.076 52.4049L23.107 52.4095L23.1175 52.4113C23.183 52.423 23.246 52.4409 23.3061 52.4644C23.3194 52.4696 23.3326 52.4751 23.3456 52.4808C23.4475 52.5258 23.5395 52.5868 23.6191 52.6602L23.6711 52.712C23.6796 52.721 23.6876 52.7298 23.6954 52.7388C23.7087 52.7541 23.7219 52.7702 23.7346 52.7867C23.745 52.8003 23.7546 52.8136 23.764 52.8271C23.7725 52.8393 23.7812 52.8525 23.7896 52.8658C23.8011 52.8844 23.8117 52.9026 23.8217 52.9212C23.8235 52.9244 23.8257 52.9284 23.8278 52.9324C23.8418 52.9595 23.8546 52.9867 23.866 53.0145L23.8707 53.0257C23.8913 53.0772 23.9076 53.1307 23.9194 53.1858C23.9385 53.2742 23.9457 53.3665 23.9395 53.4604C23.9391 53.4639 23.9389 53.4679 23.9386 53.472C23.8933 54.0638 23.8247 54.6181 23.7326 55.1333C23.6092 57.3791 24.4566 58.4391 27.1042 59.2131C27.5662 59.3481 28.1995 59.4688 28.9599 59.5727L29.8351 54.6113C29.931 54.0674 30.4497 53.7043 30.9936 53.8002C31.5375 53.8961 31.9006 54.4147 31.8047 54.9586L30.9526 59.7838C33.8779 60.0223 37.7149 60.075 41.0963 59.8642L41.6528 56.6951C41.7487 56.1512 42.2674 55.7881 42.8113 55.884C43.3552 55.9799 43.7183 56.4985 43.6224 57.0424L43.152 59.7085L43.2941 59.6974C45.4039 59.5215 47.017 59.3458 48.3806 59.1277L48.6691 59.0803C49.6915 58.9077 50.4896 58.7177 51.0313 58.5151L51.2143 58.4419L51.3075 58.3997L51.195 58.2892L51.0809 58.1876C50.6368 57.8049 49.9469 57.3446 49.0495 56.8295C47.4735 55.9247 45.3354 54.8931 42.9328 53.8463C41.5527 53.245 40.0158 52.6517 38.4051 52.0884L37.7136 56.0005C37.6177 56.5444 37.099 56.9076 36.5551 56.8117C36.0112 56.7158 35.6481 56.1971 35.744 55.6532L36.4386 51.714C36.4548 51.6217 36.4833 51.5346 36.522 51.454C35.5345 51.1336 34.5301 50.8263 33.5284 50.5375L32.6828 50.2981C31.5749 49.9904 30.5538 49.7305 29.7271 49.5441C29.1883 49.4227 28.85 48.8875 28.9715 48.3487C29.0929 47.8099 29.6281 47.4716 30.1669 47.5931L30.8457 47.7518C31.7946 47.9809 32.9091 48.2774 34.0826 48.6158C37.4799 49.5955 40.9087 50.7828 43.7316 52.0128L44.8702 52.514C50.7638 55.1381 53.7861 56.9889 53.4705 58.7789C53.1473 60.6121 50.3299 61.1502 42.8532 61.7404L42.019 61.8051C42.0069 61.8062 41.9989 61.8067 41.9908 61.8071L42.019 61.8051C38.0114 62.1105 33.244 62.0362 29.86 61.6894C29.7772 61.6975 29.6911 61.6939 29.6044 61.6786C29.5626 61.6713 29.5219 61.6614 29.4824 61.6493C28.2625 61.5121 27.2461 61.3382 26.543 61.1327C24.4737 60.5278 23.1631 59.6662 22.4408 58.4664C21.5834 59.5848 20.3745 60.0512 18.8131 59.7758C16.2915 59.3312 15.1482 57.7321 15.4942 55.3577C11.6441 55.2977 9.72023 53.5131 10.3126 50.1536C10.9117 46.756 13.3782 45.7523 17.0854 47.0785C17.3654 45.7332 18.3258 44.6924 19.7282 44.1819C22.5613 43.1508 24.5398 44.4613 25.1973 47.6679ZM36.9999 19.9995C37.5522 19.9995 37.9999 20.4472 37.9999 20.9995L37.999 26.6965L41.8314 32.4437C41.8414 32.4589 41.8459 32.466 41.8503 32.473L41.8566 32.4834C41.8743 32.5137 41.8829 32.5295 41.891 32.5455C41.8945 32.5521 41.8979 32.5588 41.9011 32.5656L41.895 32.5545L41.9057 32.5752C41.9093 32.5829 41.9128 32.5905 41.9162 32.5982C41.9397 32.6521 41.9582 32.7071 41.9718 32.7627L41.9776 32.7882L41.9827 32.8136C41.9861 32.8315 41.989 32.8493 41.9914 32.8671L41.9932 32.8829L41.9971 32.9221C41.9985 32.9405 41.9994 32.9589 41.9998 32.9772L41.9999 34.9995C41.9999 35.5518 41.5522 35.9995 40.9999 35.9995C40.4477 35.9995 39.9999 35.5518 39.9999 34.9995L39.999 33.9995H33.999L33.9999 44.9995C33.9999 45.5518 33.5522 45.9995 32.9999 45.9995C32.4477 45.9995 31.9999 45.5518 31.9999 44.9995L31.999 33.9995H17.9999L17.999 37.9995H24.9999C25.5522 37.9995 25.9999 38.4472 25.9999 38.9995C25.9999 39.5518 25.5522 39.9995 24.9999 39.9995H17.9999V42.9995C17.9999 43.5123 17.6139 43.935 17.1166 43.9928L16.9999 43.9995C16.4477 43.9995 15.9999 43.5518 15.9999 42.9995V32.9995L16.0067 32.8829L16.0085 32.8671L16.0124 32.8404L16.0171 32.8138C16.0204 32.7966 16.024 32.7797 16.0281 32.7631C16.0416 32.7071 16.0601 32.6521 16.0837 32.5985C16.0905 32.5828 16.0976 32.5676 16.1051 32.5526C16.1114 32.5403 16.1178 32.5282 16.1244 32.5162L16.163 32.452L19.999 26.6965L19.9999 20.9995C19.9999 20.4472 20.4477 19.9995 20.9999 19.9995H36.9999ZM36.999 28.8015L34.867 31.9995H39.131L36.999 28.8015ZM35.13 27.9995H21.534L18.867 31.9995H32.463L35.13 27.9995ZM35.9999 21.9995H21.9999L21.999 25.9995H35.999L35.9999 21.9995Z" fill="#21402C"/>
</svg>
