<svg width="16" height="16" viewBox="0 0 16 16" fill="none" xmlns="http://www.w3.org/2000/svg">
    <path fill-rule="evenodd" clip-rule="evenodd" d="M8.43159 1.32277C8.62758 1.27483 8.83391 1.35108 8.94551 1.51224L9.08978 1.71947H9.16477C9.37641 1.71947 9.55974 1.85286 9.62072 2.05168L9.64685 2.1354C9.75546 2.1585 9.8525 2.21832 9.92096 2.30431C9.96396 2.31246 10.0053 2.32648 10.0449 2.34624L10.2362 2.43984C10.3192 2.48123 10.3863 2.54292 10.4322 2.61796L10.5895 2.58084C10.7283 2.54666 10.8802 2.57924 10.9953 2.6679C11.111 2.75736 11.1773 2.89129 11.1773 3.03536V3.20254L11.5006 3.41738C11.5738 3.41324 11.6499 3.42633 11.7189 3.45624L11.7707 3.47827L11.8367 3.4517C11.9389 3.41137 12.0512 3.4059 12.1538 3.43607L12.4127 3.51218C12.5038 3.53902 12.5838 3.59123 12.6439 3.66333L12.8309 3.88726L13.0795 3.86229C13.1794 3.85401 13.2706 3.87203 13.3526 3.91503L13.504 3.99501L13.7245 3.99888C13.8128 4.00075 13.8983 4.02612 13.9719 4.07232L14.1642 4.19169C14.3726 4.32215 14.4455 4.59134 14.3305 4.80484L14.1232 5.1906L14.1126 5.3065C14.1089 5.34415 14.1015 5.37874 14.0898 5.41292L13.9415 5.83299L13.9531 6.52946C13.956 6.67073 13.8938 6.80439 13.7823 6.89572L13.5106 7.1179C13.4631 7.15663 13.4082 7.18587 13.3492 7.20429L12.8828 7.79421C13.0426 7.83387 13.1753 7.95284 13.2239 8.11561L13.2746 8.28612L13.3396 8.36623L13.492 8.58909C13.6021 8.75172 13.5977 8.9659 13.4814 9.12319L13.6614 9.33416C13.7382 9.42522 13.7773 9.53939 13.7717 9.65609L13.7588 9.8991C13.7507 10.0372 13.6804 10.164 13.5716 10.246L13.6054 10.2775C13.7099 10.3747 13.7632 10.5124 13.7511 10.6546C13.7431 10.7498 13.7062 10.8387 13.6457 10.9112L13.7023 10.9498L13.7624 10.9289C13.9957 10.8485 14.2502 10.9532 14.3543 11.1724L14.4326 11.3389C14.5055 11.4951 14.4853 11.6773 14.3799 11.814L14.3537 11.8506C14.3787 12.0108 14.317 12.1726 14.1882 12.2785L13.708 12.6694L13.5 12.8003C13.503 12.8726 13.4889 12.9452 13.4582 13.0118C13.4072 13.1244 13.3092 13.2141 13.19 13.2577L12.7696 13.4099C12.7309 13.423 12.7012 13.4303 12.6704 13.4345L12.3554 13.4785C12.2957 13.4869 12.2326 13.484 12.1733 13.4694L11.5266 13.3215L11.0961 13.1984C11.0848 13.1952 11.0737 13.1916 11.063 13.1876C10.9644 13.1999 10.8646 13.1817 10.7772 13.1356L10.6291 13.0554C10.5082 13.0797 10.3818 13.0574 10.2773 12.992L9.87155 13.2315L9.74389 13.4855L9.86801 13.9138C9.90258 14.0345 9.88611 14.1654 9.82337 14.2733C9.7624 14.3797 9.65705 14.4598 9.53456 14.4926L9.02214 14.6263C8.98566 14.6363 8.94279 14.6419 8.89978 14.6419L8.8316 14.6367L8.40247 14.5617L8.20784 14.6007C8.10631 14.6203 7.99974 14.6076 7.90774 14.5647L7.67854 14.4555C7.55891 14.3986 7.46895 14.2941 7.43056 14.1704L7.24261 14.095L7.16394 14.0783C7.14747 14.0981 7.12951 14.1162 7.10991 14.1332C7.00552 14.2232 6.86683 14.2642 6.72923 14.2447L5.91874 14.1375C5.85437 14.1291 5.79367 14.1081 5.73787 14.0754L5.60081 13.9961H5.39489C5.26409 13.9961 5.13779 13.9425 5.04824 13.8491L4.90928 13.7043L4.4449 13.5084C4.35031 13.4685 4.27001 13.3979 4.21897 13.3096L4.12424 13.1463L3.92567 13.039C3.80127 12.971 3.71485 12.8544 3.68776 12.7186C3.66122 12.5808 3.69743 12.4405 3.78712 12.3331L4.09634 11.9641L4.26783 11.0445C4.27164 11.0237 4.27708 11.0031 4.28375 10.9828C4.25721 10.9135 4.24796 10.8389 4.25694 10.7638L4.39876 9.54927C4.40135 9.52684 4.40556 9.50454 4.41142 9.48277C4.37304 9.41534 4.3518 9.33883 4.35072 9.26112C4.34881 9.12826 4.40461 9.00101 4.50383 8.91115C4.47879 8.86482 4.46218 8.81661 4.45388 8.76681L4.2353 8.65678C4.17052 8.6242 4.11335 8.5768 4.07035 8.51965L3.69783 8.03442C3.65728 7.98155 3.6291 7.92213 3.614 7.85777L3.50348 7.36639L3.50226 7.36079L3.45285 7.32727C3.41175 7.2995 3.37555 7.26572 3.34506 7.22673L3.18459 7.01829L2.28945 6.66913H2.03208C1.86359 6.66913 1.70598 6.58046 1.62092 6.43759L1.51149 6.25453C1.45161 6.15532 1.43283 6.03635 1.4561 5.92419C1.37049 5.8665 1.30598 5.78465 1.27264 5.69092L1.1692 5.3989C1.0889 5.17164 1.1956 4.92381 1.41745 4.82207L2.09551 4.51162C2.15022 4.48745 2.20235 4.47397 2.25652 4.46956L3.19031 4.38718C3.33771 4.37796 3.47531 4.4279 3.57276 4.52524L3.74561 4.69762L3.78195 4.6836C3.86619 4.65142 3.95684 4.64314 4.04408 4.65943L4.16916 4.6816L4.00025 4.28436L3.87395 3.77977C3.84061 3.64437 3.86946 3.50284 3.9533 3.39121C4.037 3.27878 4.16725 3.20962 4.31043 3.20174L4.69315 3.18264C4.82136 3.17023 4.9663 3.22644 5.06525 3.33019L5.39353 3.67615L5.81966 3.75867L5.82415 3.70566C5.83953 3.5206 5.96556 3.3621 6.14535 3.30215L6.95407 3.03002L7.17102 2.83534L7.14012 2.36213C7.1355 2.28589 7.14965 2.20964 7.18095 2.14088L7.34999 1.77742C7.40988 1.64884 7.52407 1.55484 7.66316 1.51918L8.43159 1.32277ZM8.30612 2.64193L8.08598 2.69577L8.06225 2.74461L8.09905 3.28807C8.10785 3.42168 8.05278 3.54965 7.94785 3.63956L7.49931 4.02524C7.45077 4.06681 7.39491 4.09774 7.3333 4.11715L6.84183 4.27543L6.99343 4.38024L6.80477 4.47052C6.7661 4.57846 6.68316 4.66987 6.57383 4.72209L6.25182 4.87624C6.15782 4.92007 6.05142 4.93409 5.95129 4.91593L5.15781 4.76917C5.15794 4.77055 5.15808 4.77193 5.15821 4.77331L5.19621 5.30562C5.21235 5.5339 5.04314 5.73262 4.80274 5.76806L4.60007 5.79774C4.54767 5.80525 4.49487 5.80475 4.44314 5.79561L4.0506 5.72887L3.85126 5.80224C3.67593 5.86636 3.47819 5.82654 3.34752 5.70107L3.11699 5.48118L2.50138 5.53302L2.47591 5.54404C2.57551 5.63157 2.62858 5.75491 2.62338 5.88088C2.62551 5.88163 2.62765 5.88251 2.62978 5.88326L3.71406 6.2881C3.79659 6.32003 3.86353 6.36837 3.91446 6.43198L4.05206 6.60316C4.14287 6.59614 4.2354 6.6138 4.3162 6.65537L4.58167 6.79199C4.68861 6.84721 4.76821 6.94025 4.80367 7.04857L5.17261 7.23827L4.77594 7.36951C4.73074 7.45553 4.65634 7.52591 4.56514 7.56873L4.79847 7.85949L5.20888 8.05722C5.39995 8.14988 5.49915 8.35123 5.45048 8.54695L5.44595 8.56536L5.53488 8.72314C5.60608 8.84936 5.60622 8.997 5.54208 9.12047L5.57982 9.15002C5.64862 9.20524 5.69835 9.27486 5.72475 9.35225L5.98276 10.0854C6.02169 10.1932 6.01236 10.3127 5.95875 10.4155L6.13382 10.9127L5.65248 10.6477C5.59288 10.6616 5.53102 10.6643 5.47088 10.6558C5.45848 10.697 5.43968 10.7368 5.41461 10.7736L5.21115 11.0745L5.03781 11.9645C5.02368 12.038 4.98914 12.1075 4.93821 12.1652L4.88754 12.2232C4.89781 12.2365 4.90728 12.2505 4.91594 12.265L4.99568 12.3965L5.39568 12.558C5.45755 12.5841 5.50782 12.6171 5.55102 12.6601L5.61542 12.7244H5.74262C5.82475 12.7244 5.90609 12.7451 5.97756 12.784L6.14502 12.877L6.40076 12.9091C6.42609 12.8746 6.45676 12.8433 6.49169 12.8165C6.60183 12.7337 6.74276 12.7016 6.8789 12.7271L7.53237 12.8661L7.99225 13.0414C8.10265 13.0846 8.18932 13.1628 8.23852 13.26L8.26065 13.2557C8.29118 13.2497 8.32278 13.2469 8.35412 13.2469L8.42279 13.252L8.76039 13.3086L8.72732 13.1991C8.69559 13.0925 8.70706 12.9803 8.75919 12.8826L9.02346 12.3806C9.06279 12.3051 9.12479 12.242 9.20253 12.1984L9.97894 11.7597C10.1159 11.681 10.2849 11.6757 10.4269 11.7425C10.5388 11.6834 10.6663 11.6697 10.7872 11.7028L10.9572 11.7516C10.9647 11.7539 10.9721 11.7561 10.9795 11.7587C11.1271 11.7021 11.2967 11.7197 11.4288 11.8095L11.6822 11.982C11.7492 12.0273 11.8019 12.0887 11.8351 12.1589L12.1876 12.2356L12.362 12.2124L12.397 12.2001C12.4139 12.1597 12.4374 12.1215 12.4662 12.0874L12.6186 11.9085C12.6523 11.8696 12.6891 11.8388 12.7316 11.8132L13.0256 11.6363L13.1426 11.5441L12.7611 11.2953C12.6374 11.215 12.5624 11.0824 12.5606 10.9407L12.5543 10.5162L12.3955 10.3737C12.3039 10.2929 12.251 10.1771 12.251 10.0567V9.90234C12.251 9.72591 12.3626 9.56775 12.5354 9.49876L12.4734 9.42926C12.408 9.35488 12.371 9.26635 12.3655 9.17256L12.353 8.97872C12.3519 8.96056 12.352 8.94253 12.3531 8.92462C12.2955 8.96256 12.2288 8.98836 12.1587 8.99888C12.0343 9.01716 11.9048 8.98723 11.8039 8.91598L11.6694 8.81943C11.5056 8.70223 11.4428 8.49424 11.5168 8.31342L11.5878 8.14049L11.6075 7.91785C11.6139 7.84597 11.6394 7.77622 11.681 7.71587L11.9788 7.28849L12.2866 6.91495C12.2792 6.86374 12.2815 6.8114 12.2936 6.76068C12.3235 6.63421 12.4108 6.52715 12.5332 6.46717L12.6919 6.38965C12.7444 6.36386 12.8015 6.34796 12.8595 6.34232L12.8516 5.88301C12.8507 5.83054 12.8596 5.77883 12.8784 5.72924L13.0294 5.31977L13.0431 5.17689C13.0467 5.13945 13.0555 5.10289 13.069 5.06758C13.05 5.06081 13.0315 5.05292 13.0138 5.04378L12.8944 4.98343L12.5438 5.01724C12.378 5.02838 12.2311 4.9699 12.1342 4.85783L11.9022 4.59149L11.8319 4.61841C11.7168 4.66311 11.5846 4.66199 11.4698 4.61528L11.3431 4.56381L11.3078 4.56657C11.2035 4.57446 11.0982 4.54866 11.0122 4.49557L10.4384 4.13042C10.4049 4.10926 10.3745 4.08384 10.3481 4.05529C10.3039 4.05955 10.2588 4.05767 10.2145 4.04966L9.9076 3.99681C9.7048 3.96188 9.54853 3.80285 9.52773 3.61001L9.52 3.53938C9.39013 3.51634 9.2736 3.44146 9.20386 3.33039L9.1972 3.31975C9.12413 3.30272 9.05573 3.26916 8.99946 3.2222L8.88519 3.12678C8.85639 3.10261 8.83119 3.07594 8.80986 3.04651C8.67159 3.03612 8.54412 2.968 8.46319 2.85768L8.30612 2.64193Z" fill="#666666"/>
</svg>
