<svg width="64" height="64" viewBox="0 0 64 64" fill="none" xmlns="http://www.w3.org/2000/svg">
<path fill-rule="evenodd" clip-rule="evenodd" d="M39.3355 9.79805C39.0572 8.92398 38.7385 8.32951 38.2729 8.03875C37.4293 7.5119 36.7156 8.05936 36.31 9.07547L36.2373 9.25154C35.8738 10.1 35.5028 10.4858 34.6409 11.0989L34.2552 11.377C33.4479 11.9782 32.9481 12.5165 32.4588 13.4295C31.3027 15.5867 31.71 18.3379 33.1866 19.6218C32.9474 20.1295 32.7171 20.6754 32.4957 21.2597C32.0398 20.4343 31.3644 19.6866 30.5109 19.1573C29.6307 18.6113 28.9287 18.395 27.929 18.278L27.4559 18.23C26.403 18.1299 25.8887 17.9814 25.1498 17.4283L24.9987 17.3122C24.1394 16.635 23.2476 16.5178 22.7804 17.3958C22.5226 17.8804 22.5438 18.5546 22.7398 19.4507C23.0657 20.9405 23.8887 22.9183 24.7317 24.2083C26.1826 26.4283 28.8824 27.4436 30.8984 26.8181C30.0845 30.6569 29.9203 34.289 30.4093 37.7117C30.4718 38.1491 30.877 38.453 31.3144 38.3905C31.7518 38.328 32.0557 37.9228 31.9932 37.4854C31.6031 34.7548 31.654 31.8712 32.148 28.8331C32.3198 29.169 32.5567 29.4735 32.8628 29.7303C34.7306 31.2976 38.0394 30.6107 39.575 28.2032C40.298 27.0698 40.9714 25.3222 41.2104 23.9903C41.3554 23.1827 41.3477 22.5628 41.0893 22.1107C40.6316 21.3094 39.7872 21.3822 38.9984 21.9803L38.8634 22.0797C38.2473 22.5196 37.8084 22.6254 36.8834 22.6717L36.4377 22.6971C35.5324 22.7638 34.8934 22.9335 34.1029 23.3941C33.7918 23.5754 33.509 23.79 33.2564 24.0296C33.6813 22.5921 34.1412 21.3502 34.6335 20.3047C37.1647 20.7136 39.8119 18.121 39.9893 14.9142C40.0744 13.3755 39.7982 11.2512 39.3355 9.79805ZM36.5669 17.3642C36.1989 17.7323 35.843 18.1836 35.5002 18.7179C36.8631 18.4815 38.2801 16.8436 38.3917 14.8258C38.466 13.4828 38.2151 11.5528 37.8109 10.2835L37.7268 10.0366L37.6869 9.93026L37.6096 10.1021C37.1668 11.0531 36.6545 11.6054 35.7649 12.2605L35.3789 12.5376C34.6387 13.0679 34.263 13.4502 33.8691 14.1853C33.1272 15.5694 33.3066 17.2533 33.9789 18.1347C34.4353 17.3819 34.9204 16.748 35.4356 16.2329C35.748 15.9204 36.2545 15.9204 36.5669 16.2329C36.8794 16.5453 36.8794 17.0518 36.5669 17.3642ZM24.2331 18.7401L24.3866 18.8511C25.2455 19.4532 25.9653 19.6754 27.0633 19.798L27.5361 19.8449C28.4423 19.9341 28.9589 20.0774 29.6675 20.5169C31.0302 21.3622 31.7172 22.9582 31.5371 24.0609L29.245 22.5329C28.8774 22.2878 28.3807 22.3872 28.1356 22.7548C27.908 23.0962 27.9774 23.5488 28.2829 23.808L28.3575 23.8642L30.4734 25.2748C29.173 25.7172 27.1631 25.004 26.0711 23.333C25.3352 22.207 24.5875 20.4102 24.3029 19.1088L24.2524 18.853L24.2331 18.7401ZM39.6743 23.4648L39.6246 23.4984C38.8535 24.0128 38.196 24.1881 37.1995 24.2558L36.7551 24.2802C35.9546 24.3229 35.5096 24.4262 34.9085 24.7765C34.0555 25.2736 33.5427 26.1423 33.425 26.9474L34.9483 26.4396L35.0385 26.4152C35.4306 26.3332 35.8305 26.5564 35.9602 26.9456C36.0999 27.3647 35.8734 27.8178 35.4542 27.9575L33.8693 28.4858C33.8765 28.4922 33.8838 28.4984 33.8912 28.5046C34.9872 29.4243 37.1901 28.967 38.2261 27.3428C38.8353 26.3877 39.433 24.8367 39.6356 23.7077C39.6505 23.6244 39.6626 23.5456 39.6743 23.4648Z" fill="#E18B76"/>
<path d="M17.7384 20.0108C19.6499 20.3479 21.1535 22.8609 20.7874 24.9376C20.7106 25.3727 20.2957 25.6632 19.8606 25.5865C19.4255 25.5098 19.1349 25.0949 19.2117 24.6598C19.4326 23.4069 18.4475 21.7605 17.4606 21.5865C16.3602 21.3925 15.1322 22.1144 14.8571 23.2099L14.8296 23.338L11.1876 37.7426L11.1738 37.8697C11.0673 39.0767 11.557 40.6728 12.6168 42.7966L12.8718 43.2971L13.0954 43.7216L13.4657 44.4025L13.8955 45.1703L14.6735 46.5423L15.2162 47.5095L15.7944 48.5624L16.0906 49.119L16.3509 49.625L16.5768 50.0848L16.7091 50.3681L16.8273 50.6343L16.932 50.8848L17.0235 51.1209L17.1023 51.3442L17.169 51.5558C17.1792 51.5902 17.1888 51.6241 17.198 51.6577L17.2473 51.8545C17.2546 51.8866 17.2615 51.9183 17.2679 51.9497L17.3009 52.1348L17.3238 52.3137L17.3368 52.4879L17.3406 52.6587L17.3364 52.7989H25.5993C25.5994 52.7395 25.6061 52.6791 25.6201 52.6186C26.7085 47.9129 24.7847 43.122 21.9526 41.2767L21.7923 41.1695C19.6431 39.6955 19.226 37.832 19.8431 34.4289L19.9407 33.9197C19.9581 33.833 19.9762 33.7453 19.9949 33.6567L20.0874 33.2333L20.308 32.1604C20.5022 31.2464 19.7363 29.7309 19.0332 29.5814C18.2442 29.4138 17.7569 29.7425 17.5848 30.5513L16.8384 34.3614L16.3571 36.7598L16.0636 38.1799L15.9819 38.5658C15.7829 39.499 16.4241 41.1854 17.9466 43.5314L18.2864 44.0441C18.4042 44.2184 18.5264 44.396 18.6532 44.5769L19.0472 45.1294C19.3065 45.4872 19.2267 45.9874 18.869 46.2467C18.5112 46.506 18.011 46.4262 17.7517 46.0684L17.541 45.7754L17.1395 45.2029L16.7645 44.6485C14.9568 41.921 14.1509 39.8634 14.3897 38.3787L14.4171 38.2321L14.6864 36.943L15.2047 34.3741L15.935 30.6548L16.017 30.2326C16.373 28.5575 17.7001 27.6623 19.3658 28.0164C20.9703 28.3574 22.167 30.6443 21.9014 32.3398L21.8741 32.4878L21.6859 33.4036C21.6828 33.4244 21.679 33.4453 21.6742 33.4662L21.6542 33.5575L21.5301 34.1612C21.524 34.1912 21.5162 34.2204 21.507 34.2488L21.4642 34.4591L21.3803 34.9149L21.3109 35.3451C20.9493 37.7825 21.3482 38.9732 22.8261 39.9362L23.0037 40.0556C26.2602 42.3146 28.3488 47.5913 27.2193 52.7989H29.5995C30.0413 52.7989 30.3995 53.1571 30.3995 53.5989C30.3995 54.0092 30.0907 54.3473 29.6928 54.3935L29.5995 54.3989H13.5995C13.1577 54.3989 12.7995 54.0408 12.7995 53.5989C12.7995 53.1887 13.1083 52.8505 13.5062 52.8043L13.5995 52.7989H15.7182L15.7199 52.7348L15.7147 52.6018L15.7005 52.4622L15.6769 52.3149L15.6434 52.1588L15.5996 51.9927L15.5449 51.8154L15.4789 51.6258L15.4012 51.4227L15.2615 51.0902L15.1523 50.8483L15.0297 50.5888L14.8197 50.1641L14.577 49.6934L14.2999 49.1727L13.8744 48.3939L13.1085 47.0257L12.3473 45.6822L11.93 44.9301L11.5649 44.2506L11.3404 43.8184C10.0422 41.2813 9.42426 39.3476 9.58304 37.695L9.60694 37.4899L9.62391 37.4026L13.2662 23.003C13.6233 20.978 15.765 19.6629 17.7384 20.0108Z" fill="#21402C"/>
<path d="M43.3629 24.9376C42.9967 22.8609 44.5004 20.3479 46.4119 20.0108C48.3853 19.6629 50.527 20.978 50.8841 23.003L54.5264 37.4026L54.5433 37.4899L54.5661 37.685C54.73 39.3872 54.03 41.3954 52.5648 44.0824L52.3105 44.5422L52.0389 45.0209L51.5816 45.8057L50.7737 47.1635L50.2257 48.0912L49.7465 48.9147L49.3326 49.6425L48.9802 50.2828L48.7543 50.7106L48.5595 51.0974L48.3944 51.4468L48.3001 51.6606L48.2179 51.8603L48.1473 52.047L48.0879 52.2217L48.0393 52.3855L48.0009 52.5394L47.9725 52.6844L47.9565 52.7989H50.3995L50.4928 52.8043C50.8907 52.8505 51.1995 53.1887 51.1995 53.5989C51.1995 54.0408 50.8413 54.3989 50.3995 54.3989H34.3995L34.3062 54.3935C33.9083 54.3473 33.5995 54.0092 33.5995 53.5989C33.5995 53.1571 33.9577 52.7989 34.3995 52.7989H36.928C35.7985 47.5913 37.8871 42.3146 41.1436 40.0556L41.3212 39.9362C42.7992 38.9732 43.198 37.7825 42.8364 35.3451L42.7671 34.9149L42.6831 34.4591C42.6702 34.3925 42.6568 34.3251 42.6431 34.2569C42.6326 34.2259 42.624 34.194 42.6172 34.1612L42.4874 33.5294L42.4731 33.4662C42.4684 33.4453 42.4645 33.4244 42.4615 33.4035L42.2733 32.4878L42.246 32.3398C41.9804 30.6443 43.1771 28.3574 44.7815 28.0164C46.4473 27.6623 47.7743 28.5575 48.1304 30.2326L48.2658 31.0379L48.6449 33.2482L48.9302 34.8556L49.088 35.7183L49.2829 36.7501L49.4176 37.4356L49.5819 38.2321C49.9007 39.727 49.1025 41.8301 47.2344 44.6485L46.8595 45.2029L46.458 45.7754L46.2472 46.0684C45.988 46.4262 45.4877 46.506 45.13 46.2467C44.7723 45.9874 44.6925 45.4872 44.9517 45.1294C45.0197 45.0357 45.0865 44.9428 45.1521 44.8507L45.5325 44.308L45.8858 43.7852C47.528 41.3068 48.2232 39.5323 48.0171 38.5658L47.9326 38.1625L47.7498 37.2486L47.4954 35.9051L47.2711 34.6692L46.9 32.5464L46.5588 30.5308C46.3905 29.7425 45.9031 29.4138 45.1142 29.5814C44.411 29.7309 43.6451 31.2464 43.8394 32.1604L44.06 33.2335L44.1525 33.6567L44.2573 34.1771C44.9407 37.7408 44.5567 39.6596 42.3551 41.1695L42.1947 41.2767C39.3626 43.122 37.4388 47.9129 38.5273 52.6186C38.5412 52.6791 38.548 52.7395 38.548 52.7989H46.3236L46.3247 52.7601L46.3387 52.5879C46.3418 52.5588 46.3454 52.5296 46.3494 52.5002L46.3784 52.3206L46.4181 52.1343L46.469 51.9402L46.5315 51.7368C46.5544 51.6673 46.5792 51.596 46.6062 51.5227L46.6935 51.2968L46.794 51.0576L46.9081 50.8038L47.0363 50.5341L47.2563 50.0969L47.422 49.7816L47.7005 49.2698L48.1303 48.5076L48.6306 47.6447L50.3586 44.7288L50.7838 43.9921L51.0385 43.5377L51.3143 43.0304C52.5217 40.7674 53.084 39.0952 52.9753 37.8596L52.9626 37.7427L49.3206 23.338L49.2932 23.2099C49.0181 22.1144 47.79 21.3925 46.6897 21.5865C45.7028 21.7605 44.7177 23.4069 44.9386 24.6598C45.0153 25.0949 44.7248 25.5098 44.2897 25.5865C43.8546 25.6632 43.4396 25.3727 43.3629 24.9376Z" fill="#21402C"/>
<path d="M44.1595 47.9989C44.6013 47.9989 44.9595 47.6408 44.9595 47.1989C44.9595 46.7571 44.6013 46.3989 44.1595 46.3989C43.7177 46.3989 43.3595 46.7571 43.3595 47.1989C43.3595 47.6408 43.7177 47.9989 44.1595 47.9989Z" fill="#21402C"/>
</svg>
