<svg width="56" height="57" viewBox="0 0 56 57" fill="none" xmlns="http://www.w3.org/2000/svg">
<path fill-rule="evenodd" clip-rule="evenodd" d="M48.2996 48.3188C47.9136 48.3188 47.5996 48.0048 47.5996 47.6188C47.5996 47.2328 47.9136 46.9188 48.2996 46.9188C48.6856 46.9188 48.9996 47.2328 48.9996 47.6188C48.9996 48.0048 48.6856 48.3188 48.2996 48.3188Z" fill="#DFDFDF"/>
<path fill-rule="evenodd" clip-rule="evenodd" d="M46.8992 9.11887C46.5132 9.11887 46.1992 8.80485 46.1992 8.41887C46.1992 8.03286 46.5132 7.71887 46.8992 7.71887C47.2852 7.71887 47.5992 8.03286 47.5992 8.41887C47.5992 8.80485 47.2852 9.11887 46.8992 9.11887Z" fill="#DFDFDF"/>
<path fill-rule="evenodd" clip-rule="evenodd" d="M6.29961 11.9189C5.91363 11.9189 5.59961 11.6049 5.59961 11.2189C5.59961 10.8329 5.91363 10.5189 6.29961 10.5189C6.68559 10.5189 6.99961 10.8329 6.99961 11.2189C6.99961 11.6049 6.68559 11.9189 6.29961 11.9189Z" fill="#DFDFDF"/>
<path d="M33.2873 12.6928C33.6331 12.5199 34.0536 12.6601 34.2265 13.0059C34.3994 13.3517 34.2592 13.7721 33.9134 13.945C33.2419 14.2808 32.9004 14.9639 32.9004 16.1189C32.9004 16.5055 32.587 16.8189 32.2004 16.8189C31.8138 16.8189 31.5004 16.5055 31.5004 16.1189C31.5004 14.474 32.0922 13.2904 33.2873 12.6928Z" fill="#CE614A"/>
<path d="M12.6004 42.0189C14.3622 42.0189 15.5419 43.1986 16.0795 45.3492C16.1733 45.7242 15.9452 46.1043 15.5702 46.198C15.1951 46.2918 14.8151 46.0638 14.7213 45.6887C14.3256 44.1059 13.6386 43.4189 12.6004 43.4189C12.2138 43.4189 11.9004 43.1055 11.9004 42.7189C11.9004 42.3323 12.2138 42.0189 12.6004 42.0189Z" fill="#CE614A"/>
<path d="M19.0471 26.8891C19.2844 26.5839 19.7242 26.529 20.0294 26.7663C20.3111 26.9854 20.3796 27.377 20.2018 27.676L20.1522 27.7486C20.0023 27.9413 19.8221 28.3788 19.6456 28.9482L19.5404 29.3047L19.4377 29.6875L19.3391 30.091L19.2464 30.5099C19.023 31.5719 18.8691 32.7272 18.8992 33.5946C18.9745 35.7645 19.8822 38.7144 21.6325 42.4199C21.7977 42.7694 21.6482 43.1867 21.2986 43.3518C20.949 43.5169 20.5318 43.3674 20.3667 43.0178C18.5422 39.1555 17.5832 36.0387 17.5 33.6431C17.4233 31.4332 18.3269 27.815 19.0471 26.8891Z" fill="#21402C"/>
<path d="M45.2935 16.6628L45.4897 17.6156L45.6737 18.5507C45.733 18.8595 45.7903 19.1653 45.8455 19.4681L46.0051 20.3679L46.1524 21.2499C46.1759 21.3955 46.1989 21.5403 46.2215 21.6843L46.3504 22.5399C46.4118 22.9632 46.4686 23.38 46.5208 23.7901L46.6191 24.6016C46.6959 25.2704 46.7598 25.9209 46.8109 26.5531L46.8661 27.3029C47.2173 32.6133 46.6178 36.5681 45.0469 39.1825C42.4079 43.5745 38.0968 46.3374 33.6535 46.366C33.2669 46.3685 32.9515 46.0572 32.949 45.6706C32.9465 45.284 33.2579 44.9686 33.6444 44.9661C37.5697 44.9408 41.4466 42.4561 43.8468 38.4614C44.988 36.5622 45.5637 33.7751 45.5632 30.1081L45.5571 29.4518C45.529 27.8992 45.403 26.1976 45.1786 24.3473L45.0763 23.5453C45.0402 23.2749 45.0021 23.0015 44.962 22.7251L44.8356 21.8866C44.7472 21.3217 44.6509 20.7446 44.5464 20.1554L44.3836 19.2625C44.3555 19.1122 44.3268 18.9611 44.2977 18.8093L44.1167 17.8892L44.0709 17.665L43.8723 17.7164C43.5741 17.7938 43.2794 17.8718 42.9883 17.9503L42.1259 18.1878C33.7516 20.5411 28.5068 23.4147 26.3947 26.7378L26.29 26.9072C22.6247 33.0073 23.3876 40.4282 28.5512 43.5308C28.7203 43.6324 28.8906 43.7286 29.0621 43.8194C29.4037 44.0003 29.534 44.424 29.353 44.7656C29.1721 45.1073 28.7484 45.2375 28.4068 45.0566C28.213 44.9539 28.0208 44.8453 27.8302 44.7308C21.9165 41.1775 21.0641 32.8863 25.09 26.1861C26.9848 23.0327 31.1735 20.3561 37.658 18.1127L38.4315 17.8507C38.5622 17.8074 38.6938 17.7642 38.8262 17.7213L39.6315 17.4653C39.7675 17.4229 39.9043 17.3808 40.0421 17.3388L40.8791 17.0887C41.0204 17.0474 41.1625 17.0062 41.3056 16.9652L42.1744 16.721C42.6141 16.5999 43.0618 16.4803 43.5174 16.3621L44.4392 16.1277C44.8242 16.0317 45.2119 16.2746 45.2935 16.6628Z" fill="#21402C"/>
<path d="M18.4115 10.0171C18.6996 9.73678 19.1642 9.7562 19.4279 10.0596L20.2227 10.9789L21.2185 12.1464L21.9175 12.9785L22.5755 13.7733L22.9914 14.2825L23.3891 14.7752L23.9516 15.4834L24.3038 15.935L24.638 16.3701L24.954 16.7889L25.394 17.3864L25.6647 17.7643C25.7084 17.8259 25.7512 17.8869 25.7933 17.9471L26.0369 18.3006L26.2624 18.6378L26.4699 18.9587L26.6593 19.2634L26.8306 19.5519L26.984 19.8243C27.008 19.8683 27.0313 19.9117 27.0539 19.9544C27.2345 20.2962 27.1037 20.7197 26.7619 20.9003C26.4201 21.0809 25.9966 20.9501 25.816 20.6083L25.6804 20.3605C25.6322 20.275 25.5809 20.1868 25.5266 20.0957L25.3545 19.8141L25.1642 19.5155L24.9557 19.2001L24.6088 18.6955L24.3548 18.3381L24.0827 17.9639L23.7924 17.573L23.3229 16.9553L22.9872 16.5226L22.6334 16.0733L22.0688 15.3681L21.4635 14.6255L20.8175 13.8457L20.131 13.0287L19.6507 12.4634L18.8576 11.5402L18.7939 11.6045C18.5021 11.8945 18.218 12.1815 17.9417 12.4655L17.3993 13.0295L16.8776 13.5855C16.6219 13.8615 16.3739 14.1345 16.1337 14.4045L15.6634 14.9404C12.2904 18.8408 10.5766 22.0895 10.5021 24.6482L10.4996 24.8216C10.4996 29.8152 13.4647 34.2064 17.6337 34.9137C17.8444 34.9495 18.0581 34.9762 18.2745 34.9938C18.6599 35.025 18.9469 35.3627 18.9156 35.748C18.8844 36.1334 18.5467 36.4204 18.1614 36.3892C17.9044 36.3683 17.6504 36.3366 17.3995 36.294C12.4868 35.4605 9.09961 30.4442 9.09961 24.8216C9.09961 20.9455 12.2197 16.0415 18.4115 10.0171Z" fill="#21402C"/>
<path d="M14.7355 29.1975C14.8578 28.8307 15.2542 28.6325 15.621 28.7548C17.23 29.2911 18.3273 30.3885 18.8637 31.9975C18.9859 32.3643 18.7877 32.7607 18.421 32.8829C18.0542 33.0052 17.6578 32.807 17.5355 32.4402C17.1385 31.2492 16.3692 30.4799 15.1782 30.0829C14.8115 29.9607 14.6133 29.5643 14.7355 29.1975Z" fill="#21402C"/>
<path d="M34.4817 32.448C34.7417 32.1619 35.1844 32.1408 35.4705 32.4009C35.7565 32.661 35.7776 33.1037 35.5176 33.3897C30.9683 38.3939 28.6996 44.2926 28.6996 51.1189C28.6996 51.5055 28.3862 51.8189 27.9996 51.8189C27.613 51.8189 27.2996 51.5055 27.2996 51.1189C27.2996 43.9452 29.6976 37.7105 34.4817 32.448Z" fill="#21402C"/>
<path d="M29.0866 30.8928C29.4323 30.7199 29.8528 30.86 30.0257 31.2058C31.5264 34.2072 31.2834 38.581 29.3637 44.3402C29.2414 44.707 28.845 44.9052 28.4783 44.7829C28.1115 44.6607 27.9133 44.2643 28.0355 43.8975C29.8491 38.4567 30.0728 34.4305 28.7735 31.8319C28.6006 31.4861 28.7408 31.0656 29.0866 30.8928Z" fill="#21402C"/>
<path d="M33.5996 39.2189C33.9862 39.2189 34.2996 39.5323 34.2996 39.9189C34.2996 40.3055 33.9862 40.6189 33.5996 40.6189C32.0491 40.6189 30.6196 41.8441 29.3257 44.4319C29.1528 44.7777 28.7323 44.9178 28.3866 44.745C28.0408 44.5721 27.9006 44.1516 28.0735 43.8058C29.5796 40.7936 31.4168 39.2189 33.5996 39.2189Z" fill="#21402C"/>
<circle cx="39" cy="18" r="5" fill="white"/>
<path d="M47.7159 22.1524C48.77 20.3165 49.2496 18.1282 48.9447 15.8687C48.214 10.4538 43.249 6.62807 37.8581 7.3555C32.4671 8.08293 28.6937 13.0878 29.4244 18.5026C30.155 23.9172 35.1201 27.7432 40.5109 27.0158C41.0158 26.9477 41.5066 26.842 41.9807 26.702L47.8964 34.4149L47.9052 34.4263L47.9142 34.4374L48.0133 34.5592L48.0224 34.5704L48.0319 34.5813C49.2927 36.0424 51.4853 36.2819 53.0285 35.0812C54.6247 33.8394 54.9119 31.5345 53.6821 29.9311L47.7159 22.1524ZM38.3641 11.1054C38.3673 11.1049 38.3706 11.1045 38.3738 11.104C37.9632 11.3967 37.6706 11.8525 37.5974 12.3896C37.4575 13.4168 38.1698 14.3758 39.2057 14.5213C40.3567 14.6829 41.256 15.4244 41.5827 16.3528C41.9275 17.3329 43.0021 17.8592 43.9908 17.5079C44.6044 17.2898 45.0315 16.7881 45.1838 16.2046C45.1928 16.2604 45.2012 16.3164 45.2088 16.3728C45.662 19.7312 43.3177 22.8189 40.005 23.2659C36.6922 23.7129 33.6134 21.357 33.1602 17.9985C32.707 14.6399 35.0512 11.5524 38.3641 11.1054Z" fill="#CE614A" stroke="white" stroke-width="2"/>
</svg>
