<svg width="80" height="80" viewBox="0 0 80 80" fill="none" xmlns="http://www.w3.org/2000/svg">
<path fill-rule="evenodd" clip-rule="evenodd" d="M75 61.999C74.4486 61.999 74 61.5504 74 60.999C74 60.4476 74.4486 59.999 75 59.999C75.5514 59.999 76 60.4476 76 60.999C76 61.5504 75.5514 61.999 75 61.999Z" fill="#DFDFDF"/>
<path fill-rule="evenodd" clip-rule="evenodd" d="M59 5.99902C58.4486 5.99902 58 5.55042 58 4.99902C58 4.44758 58.4486 3.99902 59 3.99902C59.5514 3.99902 60 4.44758 60 4.99902C60 5.55042 59.5514 5.99902 59 5.99902Z" fill="#DFDFDF"/>
<path fill-rule="evenodd" clip-rule="evenodd" d="M10 67.999C9.4486 67.999 9 67.5504 9 66.999C9 66.4476 9.4486 65.999 10 65.999C10.5514 65.999 11 66.4476 11 66.999C11 67.5504 10.5514 67.999 10 67.999Z" fill="#DFDFDF"/>
<path d="M12 25.999C12 26.5504 12.4486 26.999 13 26.999C13.5514 26.999 14 26.5504 14 25.999C14 25.4476 13.5514 24.999 13 24.999C12.4486 24.999 12 25.4476 12 25.999Z" fill="#E1000F"/>
<path d="M16 26.999C15.4486 26.999 15 26.5504 15 25.999C15 25.4476 15.4486 24.999 16 24.999C16.5514 24.999 17 25.4476 17 25.999C17 26.5504 16.5514 26.999 16 26.999Z" fill="#E1000F"/>
<path d="M18 25.999C18 26.5504 18.4486 26.999 19 26.999C19.5514 26.999 20 26.5504 20 25.999C20 25.4476 19.5514 24.999 19 24.999C18.4486 24.999 18 25.4476 18 25.999Z" fill="#E1000F"/>
<path fill-rule="evenodd" clip-rule="evenodd" d="M9 20.999H23C23.5523 20.999 24 21.4467 24 21.999V29.999C24 30.5513 23.5523 30.999 23 30.999H20V31.999C20 32.7033 19.2979 33.1743 18.6586 32.9392L18.5528 32.8935L14.764 30.999H9C8.48716 30.999 8.06449 30.613 8.00673 30.1156L8 29.999V21.999C8 21.4467 8.44772 20.999 9 20.999ZM19 28.999H22V22.999H10V28.999H15C15.1164 28.999 15.2317 29.0194 15.3406 29.0588L15.4472 29.1046L18 30.381V29.999C18 29.4862 18.386 29.0635 18.8834 29.0058L19 28.999Z" fill="#E1000F"/>
<path d="M51 28.999C50.4477 28.999 50 29.4467 50 29.999C50 30.5513 50.4477 30.999 51 30.999C51.5523 30.999 52 30.5513 52 29.999C52 29.4467 51.5523 28.999 51 28.999Z" fill="#E1000F"/>
<path fill-rule="evenodd" clip-rule="evenodd" d="M51 24.999C48.2386 24.999 46 27.2376 46 29.999C46 32.7604 48.2386 34.999 51 34.999C53.7614 34.999 56 32.7604 56 29.999C56 27.2376 53.7614 24.999 51 24.999ZM51 26.999C52.6569 26.999 54 28.3422 54 29.999C54 31.6559 52.6569 32.999 51 32.999C49.3431 32.999 48 31.6559 48 29.999C48 28.3422 49.3431 26.999 51 26.999Z" fill="#E1000F"/>
<path fill-rule="evenodd" clip-rule="evenodd" d="M44.0012 20.999C44.0012 17.1853 42.6895 14.999 40.0012 14.999C37.313 14.999 36.0012 17.1853 36.0012 20.999C36.0012 21.1244 36.0243 21.2444 36.0664 21.355C30.476 22.4663 27.307 26.2055 26.3242 32.9234L26.2321 33.6135C26.0489 35.1308 25.9704 36.7919 25.9942 38.6006L26.0015 39.0206L25.9971 39.887L26.0128 40.3606C26.0353 42.3312 25.281 44.8551 24.1819 46.4257L20.2905 51.8421L20.1938 51.9936C20.0146 52.3029 19.9219 52.6473 19.9219 52.999C19.9219 54.1036 20.8173 54.999 21.9219 54.999L32.0012 54.999C32.0012 60.218 34.7823 62.999 40.0012 62.999C45.2202 62.999 48.0012 60.218 48.0012 54.999L58.0806 54.999L58.2557 54.9913C58.604 54.9607 58.9393 54.8392 59.2275 54.6375C60.1324 54.0041 60.3525 52.757 59.719 51.8521L55.8134 46.4156L55.6263 46.1371C54.6489 44.6163 53.9996 42.5469 53.9997 40.8502L54.0008 40.0272L54.0153 39.3671C54.022 38.9312 54.0229 38.5036 54.018 38.0843C54.0116 37.5321 53.5587 37.0896 53.0064 37.0961C52.4542 37.1025 52.0117 37.5554 52.0182 38.1077C52.0252 38.7096 52.0197 39.3306 52.0016 39.9708L51.9997 40.85L52.0068 41.2042C52.0919 43.3472 52.9336 45.7948 54.1828 47.5737L58.0802 52.998L21.9219 52.999L25.8134 47.5825L25.9957 47.3115C27.3104 45.2798 28.1295 42.2937 27.9997 39.9439L27.9978 39.8958L28.001 38.9775L27.9939 38.5746C27.8429 27.5064 31.4784 22.999 40.0012 22.999C42.4347 22.999 44.4569 23.4201 46.0957 24.2579C46.5875 24.5093 47.1899 24.3144 47.4413 23.8227C47.6927 23.3309 47.4978 22.7285 47.0061 22.4771C46.0689 21.998 45.041 21.6371 43.9211 21.3918C43.9727 21.2712 44.0012 21.1385 44.0012 20.999ZM42.0056 21.0933C42.0027 21.0623 42.0012 21.0308 42.0012 20.999C42.0012 18.1461 41.313 16.999 40.0012 16.999C38.6895 16.999 38.0012 18.1461 38.0012 20.999C38.0012 21.0274 38 21.0555 37.9977 21.0833C38.6387 21.027 39.3064 20.999 40.0012 20.999C40.6951 20.999 41.3632 21.0303 42.0056 21.0933ZM34.0012 54.999C34.0012 59.1134 35.8868 60.999 40.0012 60.999C44.1156 60.999 46.0012 59.1134 46.0012 54.999H34.0012Z" fill="#21402C"/>
<path d="M40.0012 67.999C43.5144 67.999 46.5364 66.8781 48.7083 64.7061C49.0989 64.3156 49.0989 63.6824 48.7083 63.2919C48.3178 62.9014 47.6846 62.9014 47.2941 63.2919C45.5179 65.0681 43.0083 65.999 40.0012 65.999C39.4489 65.999 39.0012 66.4467 39.0012 66.999C39.0012 67.5513 39.4489 67.999 40.0012 67.999Z" fill="#21402C"/>
<path d="M51.0012 61.999C50.4498 61.999 50.0012 61.5504 50.0012 60.999C50.0012 60.4476 50.4498 59.999 51.0012 59.999C51.5526 59.999 52.0012 60.4476 52.0012 60.999C52.0012 61.5504 51.5526 61.999 51.0012 61.999Z" fill="#21402C"/>
<path d="M67.0012 34.999C67.5535 34.999 68.0012 35.4467 68.0012 35.999C68.0012 36.5119 67.6152 36.9345 67.1178 36.9923L67.0012 36.999H63.0012C62.4489 36.999 62.0012 36.5513 62.0012 35.999C62.0012 35.4862 62.3873 35.0635 62.8846 35.0058L63.0012 34.999H67.0012Z" fill="#21402C"/>
<path fill-rule="evenodd" clip-rule="evenodd" d="M59.0012 30.999H71.0012C71.5535 30.999 72.0012 31.4467 72.0012 31.999V39.999L71.9945 40.1156C71.9367 40.613 71.5141 40.999 71.0012 40.999H67.2372L63.4484 42.8935L63.3426 42.9392C62.7034 43.1743 62.0012 42.7033 62.0012 41.999V40.999H59.0012C58.4489 40.999 58.0012 40.5513 58.0012 39.999V31.999C58.0012 31.4467 58.4489 30.999 59.0012 30.999ZM60.0012 32.999V38.999H63.0012L63.1178 39.0058C63.6152 39.0635 64.0012 39.4862 64.0012 39.999V40.381L66.554 39.1046L66.6606 39.0588C66.7696 39.0194 66.8848 38.999 67.0012 38.999H70.0012V32.999H60.0012Z" fill="#21402C"/>
</svg>
