<svg width="80" height="80" viewBox="0 0 80 80" fill="none" xmlns="http://www.w3.org/2000/svg">
<path fill-rule="evenodd" clip-rule="evenodd" d="M17 8C16.4486 8 16 7.5514 16 7C16 6.44855 16.4486 6 17 6C17.5514 6 18 6.44855 18 7C18 7.5514 17.5514 8 17 8Z" fill="#DFDFDF"/>
<path fill-rule="evenodd" clip-rule="evenodd" d="M21 76C20.4486 76 20 75.5514 20 75C20 74.4486 20.4486 74 21 74C21.5514 74 22 74.4486 22 75C22 75.5514 21.5514 76 21 76Z" fill="#DFDFDF"/>
<path fill-rule="evenodd" clip-rule="evenodd" d="M63 74C62.4486 74 62 73.5514 62 73C62 72.4486 62.4486 72 63 72C63.5514 72 64 72.4486 64 73C64 73.5514 63.5514 74 63 74Z" fill="#DFDFDF"/>
<path fill-rule="evenodd" clip-rule="evenodd" d="M65 10C64.4486 10 64 9.5514 64 9C64 8.44855 64.4486 8 65 8C65.5514 8 66 8.44855 66 9C66 9.5514 65.5514 10 65 10Z" fill="#CACAFB"/>
<path fill-rule="evenodd" clip-rule="evenodd" d="M41 80C40.4486 80 40 79.5514 40 79C40 78.4486 40.4486 78 41 78C41.5514 78 42 78.4486 42 79C42 79.5514 41.5514 80 41 80Z" fill="#CACAFB"/>
<path fill-rule="evenodd" clip-rule="evenodd" d="M30 20C30 18.3431 31.3431 17 33 17C34.6569 17 36 18.3431 36 20C36 21.6569 34.6569 23 33 23C31.3431 23 30 21.6569 30 20ZM34 20C34 19.4477 33.5523 19 33 19C32.4477 19 32 19.4477 32 20C32 20.5523 32.4477 21 33 21C33.5523 21 34 20.5523 34 20Z" fill="#E1000F"/>
<path d="M33 21C33.5128 21 33.9355 21.386 33.9933 21.8834L34 22V26C34 26.5523 33.5523 27 33 27C32.4872 27 32.0645 26.614 32.0067 26.1166L32 26V22C32 21.4477 32.4477 21 33 21Z" fill="#E1000F"/>
<path fill-rule="evenodd" clip-rule="evenodd" d="M52 44C52 42.3431 53.3431 41 55 41C56.6569 41 58 42.3431 58 44C58 45.6569 56.6569 47 55 47C53.3431 47 52 45.6569 52 44ZM56 44C56 43.4477 55.5523 43 55 43C54.4477 43 54 43.4477 54 44C54 44.5523 54.4477 45 55 45C55.5523 45 56 44.5523 56 44Z" fill="#E1000F"/>
<path d="M55 45C55.5128 45 55.9355 45.386 55.9933 45.8834L56 46V50C56 50.5523 55.5523 51 55 51C54.4872 51 54.0645 50.614 54.0067 50.1166L54 50V46C54 45.4477 54.4477 45 55 45Z" fill="#E1000F"/>
<path fill-rule="evenodd" clip-rule="evenodd" d="M23 50C23 48.3431 24.3431 47 26 47C27.6569 47 29 48.3431 29 50C29 51.6569 27.6569 53 26 53C24.3431 53 23 51.6569 23 50ZM27 50C27 49.4477 26.5523 49 26 49C25.4477 49 25 49.4477 25 50C25 50.5523 25.4477 51 26 51C26.5523 51 27 50.5523 27 50Z" fill="#E1000F"/>
<path d="M26 51C26.5128 51 26.9355 51.386 26.9933 51.8834L27 52V56C27 56.5523 26.5523 57 26 57C25.4872 57 25.0645 56.614 25.0067 56.1166L25 56V52C25 51.4477 25.4477 51 26 51Z" fill="#E1000F"/>
<path d="M25 18.9995C25.5523 18.9995 26 19.4473 26 19.9995C26 20.5124 25.614 20.935 25.1166 20.9928L25 20.9995H19C18.4477 20.9995 18 20.5518 18 19.9995C18 19.4867 18.386 19.064 18.8834 19.0063L19 18.9995H25Z" fill="#21402C"/>
<path d="M71 18.9995C71.5128 18.9995 71.9355 19.3856 71.9933 19.8829L72 19.9995V61.9995C72 62.5124 71.614 62.935 71.1166 62.9928L71 62.9995H31C30.4477 62.9995 30 62.5518 30 61.9995C30 61.4867 30.386 61.064 30.8834 61.0063L31 60.9995H70V20.9995H41C40.4872 20.9995 40.0645 20.6135 40.0067 20.1162L40 19.9995C40 19.4867 40.386 19.064 40.8834 19.0063L41 18.9995H71Z" fill="#21402C"/>
<path fill-rule="evenodd" clip-rule="evenodd" d="M17.05 17.1336L14.0167 17.083L13.7948 17.0834C10.6276 17.1473 8.05405 19.7079 8.00082 22.9016L8 55.9995L8.00673 56.1162C8.01117 56.1544 8.01777 56.192 8.02641 56.2288L8.031 56.2465L8.01414 56.4963C8.00472 56.6606 8 56.8284 8 56.9995C8 60.5773 9.95515 62.6721 13.5777 62.9956L23 62.9995L23.1166 62.9928C23.614 62.935 24 62.5124 24 61.9995C24 61.4473 23.5523 60.9995 23 60.9995H13.6667L13.4279 60.9743C11.0826 60.6901 10 59.4511 10 56.9995C10 54.483 11.2509 53.2321 14.083 52.9961L17 52.9995L17.1763 52.9944C18.7511 52.9032 20 51.5972 20 49.9995V20.1331L19.995 19.9589C19.9058 18.4021 18.6287 17.1599 17.05 17.1336ZM10.009 22.7334C10.1484 20.6653 11.8874 19.0478 13.9833 19.0827L17.0167 19.1333L17.1318 19.1418C17.6227 19.2065 18 19.6263 18 20.1331V49.9995L17.9933 50.1162C17.9355 50.6135 17.5128 50.9995 17 50.9995H14L13.7233 51.0256C12.2642 51.1805 11.0723 51.5899 10.1613 52.2401L10 52.3595L10.0005 22.9349L10.009 22.7334Z" fill="#21402C"/>
<path fill-rule="evenodd" clip-rule="evenodd" d="M19 40.9995H19.4131C19.9654 40.9995 20.4131 41.4473 20.4131 41.9995C20.4131 42.5518 19.9654 42.9995 19.4131 42.9995H19C18.4477 42.9995 18 42.5518 18 41.9995C18 41.4473 18.4477 40.9995 19 40.9995ZM25.4131 40.9995H22.4131C21.8608 40.9995 21.4131 41.4473 21.4131 41.9995C21.4131 42.5518 21.8608 42.9995 22.4131 42.9995H25.4131C25.9654 42.9995 26.4131 42.5518 26.4131 41.9995C26.4131 41.4473 25.9654 40.9995 25.4131 40.9995ZM31.8192 41.4261L32.0561 41.7645C32.3729 42.217 32.2628 42.8405 31.8104 43.1572C31.3579 43.4739 30.7344 43.3639 30.4177 42.9114L28.4131 42.9995C27.8608 42.9995 27.4131 42.5518 27.4131 41.9995C27.4131 41.4473 27.8608 40.9995 28.4131 40.9995H31C31.3263 40.9995 31.6321 41.1587 31.8192 41.4261ZM35.4969 46.6799L33.7765 44.2222C33.4598 43.7698 32.8363 43.6597 32.3838 43.9764C31.9314 44.2931 31.8213 44.9167 32.1381 45.3691L33.8584 47.8268C34.1752 48.2793 34.7987 48.3893 35.2511 48.0726C35.7036 47.7559 35.8136 47.1323 35.4969 46.6799ZM37.2173 49.1376L38.9377 51.5953C39.2544 52.0477 39.1444 52.6713 38.6919 52.988C38.2395 53.3047 37.6159 53.1947 37.2992 52.7422L35.5788 50.2845C35.2621 49.8321 35.3722 49.2085 35.8246 48.8918C36.2771 48.5751 36.9006 48.6851 37.2173 49.1376ZM42.3785 56.5107L40.6581 54.053C40.3414 53.6005 39.7178 53.4905 39.2654 53.8072C38.8129 54.1239 38.7029 54.7475 39.0196 55.1999L40.74 57.6576C41.0567 58.1101 41.6802 58.2201 42.1327 57.9034C42.5851 57.5867 42.6952 56.9631 42.3785 56.5107ZM45.8192 61.4261L44.0988 58.9684C43.7821 58.5159 43.1586 58.4059 42.7062 58.7226C42.2537 59.0393 42.1437 59.6629 42.4604 60.1153L44.1808 62.573C44.4975 63.0254 45.121 63.1355 45.5735 62.8188C46.0259 62.5021 46.1359 61.8785 45.8192 61.4261Z" fill="#21402C"/>
<path fill-rule="evenodd" clip-rule="evenodd" d="M41.5869 42.9995C42.1392 42.9995 42.5869 42.5518 42.5869 41.9995C42.5869 41.4473 42.1392 40.9995 41.5869 40.9995H39C38.191 40.9995 37.7168 41.9102 38.1808 42.573L38.4177 42.9114C38.7344 43.3639 39.3579 43.4739 39.8104 43.1572C40.2628 42.8405 41.5869 42.9995 41.5869 42.9995ZM41.7765 44.2222L43.4969 46.6799C43.8136 47.1323 43.7036 47.7559 43.2511 48.0726C42.7987 48.3893 42.1752 48.2793 41.8584 47.8268L40.1381 45.3691C39.8213 44.9167 39.9314 44.2931 40.3838 43.9764C40.8363 43.6597 41.4598 43.7698 41.7765 44.2222ZM46.9377 51.5953L45.2173 49.1376C44.9006 48.6851 44.2771 48.5751 43.8246 48.8918C43.3722 49.2085 43.2621 49.8321 43.5788 50.2845L45.2992 52.7422C45.6159 53.1947 46.2395 53.3047 46.6919 52.988C47.1444 52.6713 47.2544 52.0477 46.9377 51.5953ZM48.6581 54.053L50.3785 56.5107C50.6952 56.9631 50.5851 57.5867 50.1327 57.9034C49.6802 58.2201 49.0567 58.1101 48.74 57.6576L47.0196 55.1999C46.7029 54.7475 46.8129 54.1239 47.2654 53.8072C47.7178 53.4905 48.3414 53.6005 48.6581 54.053ZM52.0988 58.9684L53.8192 61.4261C54.1359 61.8785 54.0259 62.5021 53.5735 62.8188C53.121 63.1355 52.4975 63.0254 52.1808 62.573L50.4604 60.1153C50.1437 59.6629 50.2537 59.0393 50.7062 58.7226C51.1586 58.4059 51.7821 58.5159 52.0988 58.9684ZM47.5869 42.9995H44.5869C44.0346 42.9995 43.5869 42.5518 43.5869 41.9995C43.5869 41.4473 44.0346 40.9995 44.5869 40.9995H47.5869C48.1392 40.9995 48.5869 41.4473 48.5869 41.9995C48.5869 42.5518 48.1392 42.9995 47.5869 42.9995Z" fill="#21402C"/>
<path fill-rule="evenodd" clip-rule="evenodd" d="M66 42.9995H63C62.4477 42.9995 62 42.5518 62 41.9995C62 41.4473 62.4477 40.9995 63 40.9995H66C66.5523 40.9995 67 41.4473 67 41.9995C67 42.5518 66.5523 42.9995 66 42.9995ZM71 42.9995H69C68.4477 42.9995 68 42.5518 68 41.9995C68 41.4473 68.4477 40.9995 69 40.9995H71C71.5523 40.9995 72 41.4473 72 41.9995C72 42.5518 71.5523 42.9995 71 42.9995Z" fill="#21402C"/>
<path fill-rule="evenodd" clip-rule="evenodd" d="M50 19.9995V21.9995C50 22.5518 49.5523 22.9995 49 22.9995C48.4477 22.9995 48 22.5518 48 21.9995V19.9995C48 19.4473 48.4477 18.9995 49 18.9995C49.5523 18.9995 50 19.4473 50 19.9995ZM50 27.9995V24.9995C50 24.4473 49.5523 23.9995 49 23.9995C48.4477 23.9995 48 24.4473 48 24.9995V27.9995C48 28.5518 48.4477 28.9995 49 28.9995C49.5523 28.9995 50 28.5518 50 27.9995ZM50 30.9995V33.9995C50 34.5518 49.5523 34.9995 49 34.9995C48.4477 34.9995 48 34.5518 48 33.9995V30.9995C48 30.4473 48.4477 29.9995 49 29.9995C49.5523 29.9995 50 30.4473 50 30.9995ZM22 34.9995H19C18.4477 34.9995 18 34.5518 18 33.9995C18 33.4473 18.4477 32.9995 19 32.9995H22C22.5523 32.9995 23 33.4473 23 33.9995C23 34.5518 22.5523 34.9995 22 34.9995ZM28 34.9995H25C24.4477 34.9995 24 34.5518 24 33.9995C24 33.4473 24.4477 32.9995 25 32.9995H28C28.5523 32.9995 29 33.4473 29 33.9995C29 34.5518 28.5523 34.9995 28 34.9995ZM31 34.9995H34C34.5523 34.9995 35 34.5518 35 33.9995C35 33.4473 34.5523 32.9995 34 32.9995H31C30.4477 32.9995 30 33.4473 30 33.9995C30 34.5518 30.4477 34.9995 31 34.9995ZM40 34.9995H37C36.4477 34.9995 36 34.5518 36 33.9995C36 33.4473 36.4477 32.9995 37 32.9995H40C40.5523 32.9995 41 33.4473 41 33.9995C41 34.5518 40.5523 34.9995 40 34.9995ZM43 34.9995H46C46.5523 34.9995 47 34.5518 47 33.9995C47 33.4473 46.5523 32.9995 46 32.9995H43C42.4477 32.9995 42 33.4473 42 33.9995C42 34.5518 42.4477 34.9995 43 34.9995Z" fill="#21402C"/>
<path fill-rule="evenodd" clip-rule="evenodd" d="M46 26.9995H43C42.4477 26.9995 42 26.5518 42 25.9995C42 25.4473 42.4477 24.9995 43 24.9995H46C46.5523 24.9995 47 25.4473 47 25.9995C47 26.5518 46.5523 26.9995 46 26.9995ZM42 26.9995V29.9995C42 30.5518 41.5523 30.9995 41 30.9995C40.4477 30.9995 40 30.5518 40 29.9995V26.9995C40 26.4473 40.4477 25.9995 41 25.9995C41.5523 25.9995 42 26.4473 42 26.9995Z" fill="#21402C"/>
<path fill-rule="evenodd" clip-rule="evenodd" d="M72 22.9995C72 23.5518 71.5523 23.9995 71 23.9995C70.4477 23.9995 70 23.5518 70 22.9995V20.9995C70.5523 20.9995 71 20.5518 71 19.9995C71 19.6294 70.7989 19.3062 70.5 19.1333C70.6471 19.0482 70.8179 18.9995 71 18.9995C71.5523 18.9995 72 19.4473 72 19.9995V22.9995ZM70.5 19.1333C70.3529 19.0482 70.1821 18.9995 70 18.9995H67C66.4477 18.9995 66 19.4473 66 19.9995C66 20.5518 66.4477 20.9995 67 20.9995H70V19.9995C70 19.6294 70.2011 19.3062 70.5 19.1333ZM72 28.9995C72 29.5518 71.5523 29.9995 71 29.9995C70.4477 29.9995 70 29.5518 70 28.9995V25.9995C70 25.4473 70.4477 24.9995 71 24.9995C71.5523 24.9995 72 25.4473 72 25.9995V28.9995ZM69 33.9995C69 34.5518 69.4477 34.9995 70 34.9995H71C71.5523 34.9995 72 34.5518 72 33.9995V31.9995C72 31.4473 71.5523 30.9995 71 30.9995C70.4477 30.9995 70 31.4473 70 31.9995V32.9995C69.4477 32.9995 69 33.4473 69 33.9995ZM64 34.9995C63.4477 34.9995 63 34.5518 63 33.9995C63 33.4473 63.4477 32.9995 64 32.9995H67C67.5523 32.9995 68 33.4473 68 33.9995C68 34.5518 67.5523 34.9995 67 34.9995H64ZM59 31.9995C58.4477 31.9995 58 32.4473 58 32.9995V33.9995C58 34.5518 58.4477 34.9995 59 34.9995H61C61.5523 34.9995 62 34.5518 62 33.9995C62 33.4473 61.5523 32.9995 61 32.9995H60C60 32.4473 59.5523 31.9995 59 31.9995ZM58 26.9995C58 26.4473 58.4477 25.9995 59 25.9995C59.5523 25.9995 60 26.4473 60 26.9995V29.9995C60 30.5518 59.5523 30.9995 59 30.9995C58.4477 30.9995 58 30.5518 58 29.9995V26.9995ZM59 19.9995C58.4477 19.9995 58 20.4473 58 20.9995V23.9995C58 24.5518 58.4477 24.9995 59 24.9995C59.5523 24.9995 60 24.5518 60 23.9995V20.9995C60 20.4473 59.5523 19.9995 59 19.9995ZM64 18.9995C64.5523 18.9995 65 19.4473 65 19.9995C65 20.5518 64.5523 20.9995 64 20.9995H61C60.4477 20.9995 60 20.5518 60 19.9995C60 19.4473 60.4477 18.9995 61 18.9995H64Z" fill="#21402C"/>
</svg>
