<svg width="80" height="80" viewBox="0 0 80 80" fill="none" xmlns="http://www.w3.org/2000/svg">
<path fill-rule="evenodd" clip-rule="evenodd" d="M30 20C30 18.3431 31.3431 17 33 17C34.6569 17 36 18.3431 36 20C36 21.6569 34.6569 23 33 23C31.3431 23 30 21.6569 30 20ZM34 20C34 19.4477 33.5523 19 33 19C32.4477 19 32 19.4477 32 20C32 20.5523 32.4477 21 33 21C33.5523 21 34 20.5523 34 20Z" fill="#FB926B"/>
<path d="M33 21C33.5128 21 33.9355 21.386 33.9933 21.8834L34 22V26C34 26.5523 33.5523 27 33 27C32.4872 27 32.0645 26.614 32.0067 26.1166L32 26V22C32 21.4477 32.4477 21 33 21Z" fill="#FB926B"/>
<path fill-rule="evenodd" clip-rule="evenodd" d="M52 44C52 42.3431 53.3431 41 55 41C56.6569 41 58 42.3431 58 44C58 45.6569 56.6569 47 55 47C53.3431 47 52 45.6569 52 44ZM56 44C56 43.4477 55.5523 43 55 43C54.4477 43 54 43.4477 54 44C54 44.5523 54.4477 45 55 45C55.5523 45 56 44.5523 56 44Z" fill="#FB926B"/>
<path d="M55 45C55.5128 45 55.9355 45.386 55.9933 45.8834L56 46V50C56 50.5523 55.5523 51 55 51C54.4872 51 54.0645 50.614 54.0067 50.1166L54 50V46C54 45.4477 54.4477 45 55 45Z" fill="#FB926B"/>
<path fill-rule="evenodd" clip-rule="evenodd" d="M23 50C23 48.3431 24.3431 47 26 47C27.6569 47 29 48.3431 29 50C29 51.6569 27.6569 53 26 53C24.3431 53 23 51.6569 23 50ZM27 50C27 49.4477 26.5523 49 26 49C25.4477 49 25 49.4477 25 50C25 50.5523 25.4477 51 26 51C26.5523 51 27 50.5523 27 50Z" fill="#FB926B"/>
<path d="M26 51C26.5128 51 26.9355 51.386 26.9933 51.8834L27 52V56C27 56.5523 26.5523 57 26 57C25.4872 57 25.0645 56.614 25.0067 56.1166L25 56V52C25 51.4477 25.4477 51 26 51Z" fill="#FB926B"/>
<path d="M25 19.0005C25.5523 19.0005 26 19.4482 26 20.0005C26 20.5133 25.614 20.936 25.1166 20.9938L25 21.0005H19C18.4477 21.0005 18 20.5528 18 20.0005C18 19.4877 18.386 19.065 18.8834 19.0072L19 19.0005H25Z" fill="white"/>
<path d="M71 19.0005C71.5128 19.0005 71.9355 19.3866 71.9933 19.8839L72 20.0005V62.0005C72 62.5133 71.614 62.936 71.1166 62.9938L71 63.0005H31C30.4477 63.0005 30 62.5528 30 62.0005C30 61.4877 30.386 61.065 30.8834 61.0072L31 61.0005H70V21.0005H41C40.4872 21.0005 40.0645 20.6145 40.0067 20.1171L40 20.0005C40 19.4877 40.386 19.065 40.8834 19.0072L41 19.0005H71Z" fill="white"/>
<path fill-rule="evenodd" clip-rule="evenodd" d="M17.05 17.1345L14.0167 17.084L13.7948 17.0844C10.6276 17.1483 8.05405 19.7089 8.00082 22.9026L8 56.0005L8.00673 56.1171C8.01117 56.1554 8.01777 56.193 8.02641 56.2298L8.031 56.2475L8.01414 56.4973C8.00472 56.6616 8 56.8293 8 57.0005C8 60.5783 9.95515 62.6731 13.5777 62.9966L23 63.0005L23.1166 62.9938C23.614 62.936 24 62.5133 24 62.0005C24 61.4482 23.5523 61.0005 23 61.0005H13.6667L13.4279 60.9753C11.0826 60.6911 10 59.4521 10 57.0005C10 54.484 11.2509 53.2331 14.083 52.9971L17 53.0005L17.1763 52.9954C18.7511 52.9042 20 51.5982 20 50.0005V20.1341L19.995 19.9599C19.9058 18.4031 18.6287 17.1609 17.05 17.1345ZM10.009 22.7344C10.1484 20.6663 11.8874 19.0488 13.9833 19.0837L17.0167 19.1343L17.1318 19.1428C17.6227 19.2074 18 19.6273 18 20.1341V50.0005L17.9933 50.1171C17.9355 50.6145 17.5128 51.0005 17 51.0005H14L13.7233 51.0266C12.2642 51.1815 11.0723 51.5909 10.1613 52.2411L10 52.3605L10.0005 22.9359L10.009 22.7344Z" fill="white"/>
<path fill-rule="evenodd" clip-rule="evenodd" d="M19 41.0005H19.4131C19.9654 41.0005 20.4131 41.4482 20.4131 42.0005C20.4131 42.5528 19.9654 43.0005 19.4131 43.0005H19C18.4477 43.0005 18 42.5528 18 42.0005C18 41.4482 18.4477 41.0005 19 41.0005ZM25.4131 41.0005H22.4131C21.8608 41.0005 21.4131 41.4482 21.4131 42.0005C21.4131 42.5528 21.8608 43.0005 22.4131 43.0005H25.4131C25.9654 43.0005 26.4131 42.5528 26.4131 42.0005C26.4131 41.4482 25.9654 41.0005 25.4131 41.0005ZM31.8192 41.4271L32.0561 41.7655C32.3729 42.2179 32.2628 42.8415 31.8104 43.1582C31.3579 43.4749 30.7344 43.3649 30.4177 42.9124L28.4131 43.0005C27.8608 43.0005 27.4131 42.5528 27.4131 42.0005C27.4131 41.4482 27.8608 41.0005 28.4131 41.0005H31C31.3263 41.0005 31.6321 41.1597 31.8192 41.4271ZM35.4969 46.6809L33.7765 44.2232C33.4598 43.7707 32.8363 43.6607 32.3838 43.9774C31.9314 44.2941 31.8213 44.9177 32.1381 45.3701L33.8584 47.8278C34.1752 48.2803 34.7987 48.3903 35.2511 48.0736C35.7036 47.7569 35.8136 47.1333 35.4969 46.6809ZM37.2173 49.1386L38.9377 51.5963C39.2544 52.0487 39.1444 52.6722 38.6919 52.989C38.2395 53.3057 37.6159 53.1956 37.2992 52.7432L35.5788 50.2855C35.2621 49.833 35.3722 49.2095 35.8246 48.8928C36.2771 48.5761 36.9006 48.6861 37.2173 49.1386ZM42.3785 56.5117L40.6581 54.054C40.3414 53.6015 39.7178 53.4915 39.2654 53.8082C38.8129 54.1249 38.7029 54.7484 39.0196 55.2009L40.74 57.6586C41.0567 58.111 41.6802 58.2211 42.1327 57.9044C42.5851 57.5876 42.6952 56.9641 42.3785 56.5117ZM45.8192 61.4271L44.0988 58.9694C43.7821 58.5169 43.1586 58.4069 42.7062 58.7236C42.2537 59.0403 42.1437 59.6638 42.4604 60.1163L44.1808 62.574C44.4975 63.0264 45.121 63.1365 45.5735 62.8197C46.0259 62.503 46.1359 61.8795 45.8192 61.4271Z" fill="white"/>
<path fill-rule="evenodd" clip-rule="evenodd" d="M41.5869 43.0005C42.1392 43.0005 42.5869 42.5528 42.5869 42.0005C42.5869 41.4482 42.1392 41.0005 41.5869 41.0005H39C38.191 41.0005 37.7168 41.9112 38.1808 42.574L38.4177 42.9124C38.7344 43.3649 39.3579 43.4749 39.8104 43.1582C40.2628 42.8415 41.5869 43.0005 41.5869 43.0005ZM41.7765 44.2232L43.4969 46.6809C43.8136 47.1333 43.7036 47.7569 43.2511 48.0736C42.7987 48.3903 42.1752 48.2803 41.8584 47.8278L40.1381 45.3701C39.8213 44.9177 39.9314 44.2941 40.3838 43.9774C40.8363 43.6607 41.4598 43.7707 41.7765 44.2232ZM46.9377 51.5963L45.2173 49.1386C44.9006 48.6861 44.2771 48.5761 43.8246 48.8928C43.3722 49.2095 43.2621 49.833 43.5788 50.2855L45.2992 52.7432C45.6159 53.1956 46.2395 53.3057 46.6919 52.989C47.1444 52.6722 47.2544 52.0487 46.9377 51.5963ZM48.6581 54.054L50.3785 56.5117C50.6952 56.9641 50.5851 57.5876 50.1327 57.9044C49.6802 58.2211 49.0567 58.111 48.74 57.6586L47.0196 55.2009C46.7029 54.7484 46.8129 54.1249 47.2654 53.8082C47.7178 53.4915 48.3414 53.6015 48.6581 54.054ZM52.0988 58.9694L53.8192 61.4271C54.1359 61.8795 54.0259 62.503 53.5735 62.8197C53.121 63.1365 52.4975 63.0264 52.1808 62.574L50.4604 60.1163C50.1437 59.6638 50.2537 59.0403 50.7062 58.7236C51.1586 58.4069 51.7821 58.5169 52.0988 58.9694ZM47.5869 43.0005H44.5869C44.0346 43.0005 43.5869 42.5528 43.5869 42.0005C43.5869 41.4482 44.0346 41.0005 44.5869 41.0005H47.5869C48.1392 41.0005 48.5869 41.4482 48.5869 42.0005C48.5869 42.5528 48.1392 43.0005 47.5869 43.0005Z" fill="white"/>
<path fill-rule="evenodd" clip-rule="evenodd" d="M66 43.0005H63C62.4477 43.0005 62 42.5528 62 42.0005C62 41.4482 62.4477 41.0005 63 41.0005H66C66.5523 41.0005 67 41.4482 67 42.0005C67 42.5528 66.5523 43.0005 66 43.0005ZM71 43.0005H69C68.4477 43.0005 68 42.5528 68 42.0005C68 41.4482 68.4477 41.0005 69 41.0005H71C71.5523 41.0005 72 41.4482 72 42.0005C72 42.5528 71.5523 43.0005 71 43.0005Z" fill="white"/>
<path fill-rule="evenodd" clip-rule="evenodd" d="M50 20.0005V22.0005C50 22.5528 49.5523 23.0005 49 23.0005C48.4477 23.0005 48 22.5528 48 22.0005V20.0005C48 19.4482 48.4477 19.0005 49 19.0005C49.5523 19.0005 50 19.4482 50 20.0005ZM50 28.0005V25.0005C50 24.4482 49.5523 24.0005 49 24.0005C48.4477 24.0005 48 24.4482 48 25.0005V28.0005C48 28.5528 48.4477 29.0005 49 29.0005C49.5523 29.0005 50 28.5528 50 28.0005ZM50 31.0005V34.0005C50 34.5528 49.5523 35.0005 49 35.0005C48.4477 35.0005 48 34.5528 48 34.0005V31.0005C48 30.4482 48.4477 30.0005 49 30.0005C49.5523 30.0005 50 30.4482 50 31.0005ZM22 35.0005H19C18.4477 35.0005 18 34.5528 18 34.0005C18 33.4482 18.4477 33.0005 19 33.0005H22C22.5523 33.0005 23 33.4482 23 34.0005C23 34.5528 22.5523 35.0005 22 35.0005ZM28 35.0005H25C24.4477 35.0005 24 34.5528 24 34.0005C24 33.4482 24.4477 33.0005 25 33.0005H28C28.5523 33.0005 29 33.4482 29 34.0005C29 34.5528 28.5523 35.0005 28 35.0005ZM31 35.0005H34C34.5523 35.0005 35 34.5528 35 34.0005C35 33.4482 34.5523 33.0005 34 33.0005H31C30.4477 33.0005 30 33.4482 30 34.0005C30 34.5528 30.4477 35.0005 31 35.0005ZM40 35.0005H37C36.4477 35.0005 36 34.5528 36 34.0005C36 33.4482 36.4477 33.0005 37 33.0005H40C40.5523 33.0005 41 33.4482 41 34.0005C41 34.5528 40.5523 35.0005 40 35.0005ZM43 35.0005H46C46.5523 35.0005 47 34.5528 47 34.0005C47 33.4482 46.5523 33.0005 46 33.0005H43C42.4477 33.0005 42 33.4482 42 34.0005C42 34.5528 42.4477 35.0005 43 35.0005Z" fill="white"/>
<path fill-rule="evenodd" clip-rule="evenodd" d="M46 27.0005H43C42.4477 27.0005 42 26.5528 42 26.0005C42 25.4482 42.4477 25.0005 43 25.0005H46C46.5523 25.0005 47 25.4482 47 26.0005C47 26.5528 46.5523 27.0005 46 27.0005ZM42 27.0005V30.0005C42 30.5528 41.5523 31.0005 41 31.0005C40.4477 31.0005 40 30.5528 40 30.0005V27.0005C40 26.4482 40.4477 26.0005 41 26.0005C41.5523 26.0005 42 26.4482 42 27.0005Z" fill="white"/>
<path fill-rule="evenodd" clip-rule="evenodd" d="M72 23.0005C72 23.5528 71.5523 24.0005 71 24.0005C70.4477 24.0005 70 23.5528 70 23.0005V21.0005C70.5523 21.0005 71 20.5528 71 20.0005C71 19.6304 70.7989 19.3072 70.5 19.1343C70.6471 19.0492 70.8179 19.0005 71 19.0005C71.5523 19.0005 72 19.4482 72 20.0005V23.0005ZM70.5 19.1343C70.3529 19.0492 70.1821 19.0005 70 19.0005H67C66.4477 19.0005 66 19.4482 66 20.0005C66 20.5528 66.4477 21.0005 67 21.0005H70V20.0005C70 19.6304 70.2011 19.3072 70.5 19.1343ZM72 29.0005C72 29.5528 71.5523 30.0005 71 30.0005C70.4477 30.0005 70 29.5528 70 29.0005V26.0005C70 25.4482 70.4477 25.0005 71 25.0005C71.5523 25.0005 72 25.4482 72 26.0005V29.0005ZM69 34.0005C69 34.5528 69.4477 35.0005 70 35.0005H71C71.5523 35.0005 72 34.5528 72 34.0005V32.0005C72 31.4482 71.5523 31.0005 71 31.0005C70.4477 31.0005 70 31.4482 70 32.0005V33.0005C69.4477 33.0005 69 33.4482 69 34.0005ZM64 35.0005C63.4477 35.0005 63 34.5528 63 34.0005C63 33.4482 63.4477 33.0005 64 33.0005H67C67.5523 33.0005 68 33.4482 68 34.0005C68 34.5528 67.5523 35.0005 67 35.0005H64ZM59 32.0005C58.4477 32.0005 58 32.4482 58 33.0005V34.0005C58 34.5528 58.4477 35.0005 59 35.0005H61C61.5523 35.0005 62 34.5528 62 34.0005C62 33.4482 61.5523 33.0005 61 33.0005H60C60 32.4482 59.5523 32.0005 59 32.0005ZM58 27.0005C58 26.4482 58.4477 26.0005 59 26.0005C59.5523 26.0005 60 26.4482 60 27.0005V30.0005C60 30.5528 59.5523 31.0005 59 31.0005C58.4477 31.0005 58 30.5528 58 30.0005V27.0005ZM59 20.0005C58.4477 20.0005 58 20.4482 58 21.0005V24.0005C58 24.5528 58.4477 25.0005 59 25.0005C59.5523 25.0005 60 24.5528 60 24.0005V21.0005C60 20.4482 59.5523 20.0005 59 20.0005ZM64 19.0005C64.5523 19.0005 65 19.4482 65 20.0005C65 20.5528 64.5523 21.0005 64 21.0005H61C60.4477 21.0005 60 20.5528 60 20.0005C60 19.4482 60.4477 19.0005 61 19.0005H64Z" fill="white"/>
</svg>
