<svg width="80" height="80" viewBox="0 0 80 80" fill="none" xmlns="http://www.w3.org/2000/svg">
<path fill-rule="evenodd" clip-rule="evenodd" d="M59 75.9995C58.4486 75.9995 58 75.5509 58 74.9995C58 74.4481 58.4486 73.9995 59 73.9995C59.5514 73.9995 60 74.4481 60 74.9995C60 75.5509 59.5514 75.9995 59 75.9995Z" fill="#DFDFDF"/>
<path fill-rule="evenodd" clip-rule="evenodd" d="M67 7.99951C66.4486 7.99951 66 7.55091 66 6.99951C66 6.44806 66.4486 5.99951 67 5.99951C67.5514 5.99951 68 6.44806 68 6.99951C68 7.55091 67.5514 7.99951 67 7.99951Z" fill="#DFDFDF"/>
<path fill-rule="evenodd" clip-rule="evenodd" d="M8 13.9995C7.4486 13.9995 7 13.5509 7 12.9995C7 12.4481 7.4486 11.9995 8 11.9995C8.5514 11.9995 9 12.4481 9 12.9995C9 13.5509 8.5514 13.9995 8 13.9995Z" fill="#DFDFDF"/>
<path d="M31 31.9995C31 31.4472 30.5523 30.9995 30 30.9995C29.4477 30.9995 29 31.4472 29 31.9995C29 32.5518 29.4477 32.9995 30 32.9995C30.5523 32.9995 31 32.5518 31 31.9995Z" fill="#E1000F"/>
<path d="M25.684 33.2698C25.2717 32.8817 24.6049 32.9116 24.2318 33.3593L19.2318 39.3593L19.1639 39.4501C18.7319 40.0985 19.1907 40.9995 20 40.9995H26L26.1166 40.9928C26.614 40.935 27 40.5123 27 39.9995L26.9933 39.8829C26.9355 39.3856 26.5128 38.9995 26 38.9995H22.135L25 35.5615L26.7596 37.673L26.8459 37.7644C27.2089 38.1037 27.7763 38.1275 28.168 37.8011C28.5923 37.4475 28.6496 36.817 28.296 36.3927L25.7682 33.3593L25.684 33.2698Z" fill="#E1000F"/>
<path d="M34.5547 63.1675C34.3904 63.0579 34.1974 62.9995 34 62.9995H14L13.8834 63.0062C13.386 63.064 13 63.4867 13 63.9995L13.0067 64.1161C13.0645 64.6135 13.4872 64.9995 14 64.9995H33.705L33.8051 65.0647C35.8457 66.3484 37.9148 66.9995 40 66.9995L40.3678 66.9928C42.3286 66.9207 44.2743 66.2729 46.1949 65.0647L46.294 64.9995H66L66.1166 64.9928C66.614 64.935 67 64.5123 67 63.9995C67 63.4472 66.5523 62.9995 66 62.9995H46L45.8823 63.0065C45.7265 63.0249 45.5767 63.0799 45.4453 63.1675C43.6023 64.3961 41.7921 64.9995 40 64.9995C38.2079 64.9995 36.3977 64.3961 34.5547 63.1675Z" fill="#E1000F"/>
<path d="M31.2929 37.2924C31.6534 36.9319 32.2206 36.9042 32.6129 37.2092L32.7071 37.2924L34.7071 39.2924C35.0976 39.6829 35.0976 40.3161 34.7071 40.7066C34.3466 41.0671 33.7794 41.0948 33.3871 40.7898L33.2929 40.7066L32 39.4145L30.7071 40.7066C30.3466 41.0671 29.7794 41.0948 29.3871 40.7898L29.2929 40.7066C28.9324 40.3461 28.9047 39.7789 29.2097 39.3866L29.2929 39.2924L31.2929 37.2924Z" fill="#E1000F"/>
<path d="M59 23.9997C59 23.4474 58.5523 22.9997 58 22.9997C56.9507 22.9997 55.7138 23.0973 54.2876 23.2922L53.4908 23.4081C53.0831 23.4709 52.6612 23.541 52.2252 23.6183L51.3343 23.7824L50.4057 23.9659L49.4392 24.1686L48.4347 24.3905C48.2642 24.4291 48.092 24.4685 47.9183 24.5087L46.8569 24.7595L45.7575 25.0295C45.2217 25.1635 44.8959 25.7064 45.0299 26.2422C45.1638 26.778 45.7067 27.1038 46.2425 26.9698C46.4239 26.9245 46.6037 26.8799 46.782 26.8361L47.8324 26.5829L48.8447 26.3484C49.0102 26.3109 49.1742 26.2742 49.3366 26.2382L50.2916 26.032L51.2085 25.8446L52.0871 25.676L52.9273 25.5261C53.0642 25.5027 53.1994 25.4801 53.333 25.4582L54.1156 25.3365C54.3701 25.299 54.6181 25.2647 54.8597 25.2335L55.5652 25.1493C56.4801 25.0495 57.2919 24.9997 58 24.9997C58.5523 24.9997 59 24.552 59 23.9997Z" fill="#21402C"/>
<path d="M58 28.9997C58.5523 28.9997 59 29.4474 59 29.9997C59 30.552 58.5523 30.9997 58 30.9997C57.2919 30.9997 56.4801 31.0495 55.5652 31.1493L54.8597 31.2335C54.6181 31.2647 54.3701 31.299 54.1156 31.3365L53.333 31.4582C53.1994 31.4801 53.0642 31.5027 52.9273 31.5261L52.0871 31.676L51.2085 31.8446L50.2916 32.032L49.3366 32.2382C49.1742 32.2742 49.0102 32.3109 48.8447 32.3484L47.8324 32.5829L46.782 32.8361C46.6037 32.8799 46.4239 32.9245 46.2425 32.9698C45.7067 33.1038 45.1638 32.778 45.0299 32.2422C44.8959 31.7064 45.2217 31.1635 45.7575 31.0295L46.8569 30.7595L47.9183 30.5087C48.092 30.4685 48.2642 30.4291 48.4347 30.3905L49.4392 30.1686L50.4057 29.9659L51.3343 29.7824L52.2252 29.6183C52.6612 29.541 53.0831 29.4709 53.4908 29.4081L54.2876 29.2922C55.7138 29.0973 56.9507 28.9997 58 28.9997Z" fill="#21402C"/>
<path d="M59 35.9997C59 35.4474 58.5523 34.9997 58 34.9997C56.9507 34.9997 55.7138 35.0973 54.2876 35.2922L53.4908 35.4081C53.0831 35.4709 52.6612 35.541 52.2252 35.6183L51.3343 35.7824L50.4057 35.9659L49.4392 36.1686L48.4347 36.3905C48.2642 36.4291 48.092 36.4685 47.9183 36.5087L46.8569 36.7595L45.7575 37.0295C45.2217 37.1635 44.8959 37.7064 45.0299 38.2422C45.1638 38.778 45.7067 39.1038 46.2425 38.9698C46.4239 38.9245 46.6037 38.8799 46.782 38.8361L47.8324 38.5829L48.8447 38.3484C49.0102 38.3109 49.1742 38.2742 49.3366 38.2382L50.2916 38.032L51.2085 37.8446L52.0871 37.676L52.9273 37.5261C53.0642 37.5027 53.1994 37.4801 53.333 37.4582L54.1156 37.3365C54.3701 37.299 54.6181 37.2647 54.8597 37.2335L55.5652 37.1493C56.4801 37.0495 57.2919 36.9997 58 36.9997C58.5523 36.9997 59 36.552 59 35.9997Z" fill="#21402C"/>
<path fill-rule="evenodd" clip-rule="evenodd" d="M36.7071 60.7068C37.8549 59.5589 38.938 59.0113 39.967 58.9999C39.9734 59.0001 39.9798 59.0002 39.9862 59.0003C39.9909 59.0003 39.9955 59.0004 40.0002 59.0003H40.0038C40.0135 59.0003 40.0232 59.0002 40.0329 58.9999C41.0619 59.0113 42.145 59.5589 43.2929 60.7068C43.4804 60.8943 43.7348 60.9997 44 60.9997H54L54.1166 60.9929C54.614 60.9352 55 60.5125 55 59.9997L54.9933 59.883C54.9355 59.3857 54.5128 58.9997 54 58.9997H44.402L44.2292 58.8408C43.9794 58.6183 43.7278 58.4154 43.4745 58.2325L43.5341 58.2223L44.1872 58.1166L44.8727 58.0157L45.5904 57.9194L46.3403 57.8279L47.1224 57.7412L47.9367 57.6592L48.7832 57.5819L49.6618 57.5095L50.5725 57.4418L51.5153 57.3789L52.9897 57.2936L54.5362 57.2191L55.6072 57.1754L56.7102 57.1365L57.8451 57.1025L59.6075 57.0606L61.4416 57.0295L63.3474 57.0094L65.3249 57.0003C65.5486 56.9999 65.7737 56.9997 66 56.9997C66.5523 56.9997 67 56.552 67 55.9997V18.8494L69.001 21.3497L69 39.9997C69 40.5125 69.3861 40.9352 69.8834 40.9929L70 40.9997C70.5129 40.9997 70.9355 40.6136 70.9933 40.1163L71 39.9997V20.9997C71 20.818 70.9506 20.6407 70.8582 20.4862L70.7809 20.375L66.7985 15.397C66.6281 15.1712 66.3637 15.0194 66.0612 15.0009C55.3111 14.342 46.6232 15.6213 40 18.8651C33.3768 15.6213 24.6889 14.342 13.9388 15.0009C13.6359 15.0195 13.3713 15.1716 13.2009 15.3978L9.21913 20.375L9.14187 20.4862C9.04946 20.6407 9 20.818 9 20.9997V25.9997L9.00673 26.1163C9.06449 26.6136 9.48716 26.9997 10 26.9997L10.1166 26.9929C10.614 26.9352 11 26.5125 11 25.9997L10.999 21.3497L13 18.8495V55.9997C13 56.552 13.4477 56.9997 14 56.9997C14.2264 56.9997 14.4514 56.9999 14.6751 57.0003L16.6526 57.0094L18.5584 57.0295L20.3925 57.0606L22.1549 57.1025L23.2898 57.1365L24.3928 57.1754L25.4638 57.2191L27.0103 57.2936L28.4847 57.3789L29.4275 57.4418L30.3382 57.5095L31.2168 57.5819L32.0633 57.6592L32.8776 57.7412L33.6597 57.8279L34.4096 57.9194L35.1273 58.0157L35.8128 58.1166L36.4659 58.2223L36.5255 58.2325C36.2722 58.4154 36.0206 58.6183 35.7708 58.8408L35.597 58.9997H11V55.9997L10.9933 55.883C10.9355 55.3857 10.5128 54.9997 10 54.9997C9.44772 54.9997 9 55.4474 9 55.9997V59.9997L9.00673 60.1163C9.06449 60.6136 9.48716 60.9997 10 60.9997H36L36.1314 60.991C36.3481 60.9623 36.5508 60.8631 36.7071 60.7068ZM39 56.6937V20.6027L38.6894 20.4546C32.7538 17.6688 25.015 16.484 15.4708 16.9215L15 16.9447V55.0007L16.0457 55.0053L18.0447 55.0227L19.9683 55.0517L21.2089 55.0775L22.416 55.1086L24.164 55.165L25.2876 55.2092L26.3779 55.2586L27.4348 55.3132L28.4583 55.3731L29.4486 55.4383L30.4056 55.5087L31.3294 55.5844L32.2199 55.6654L33.0773 55.7517L33.9014 55.8433L34.6924 55.9403L35.4503 56.0425C35.5739 56.06 35.696 56.0777 35.8168 56.0956L36.5251 56.2059L37.2002 56.3214L37.8423 56.4424L38.4514 56.5687L39 56.6937ZM41.5486 56.5687L41 56.6937V20.6027L41.3106 20.4546C47.2462 17.6688 54.985 16.484 64.5292 16.9215L65 16.9447V55.0007L63.9543 55.0053L61.9553 55.0227L60.0317 55.0517L58.7911 55.0775L57.584 55.1086L55.836 55.165L54.7124 55.2092L53.6221 55.2586L52.5652 55.3132L51.5417 55.3731L50.5514 55.4383L49.5944 55.5087L48.6706 55.5844L47.7801 55.6654L46.9227 55.7517L46.0986 55.8433L45.3076 55.9403L44.5497 56.0425C44.4261 56.06 44.304 56.0777 44.1832 56.0956L43.4749 56.2059L42.7998 56.3214L42.1577 56.4424L41.5486 56.5687Z" fill="#21402C"/>
<path d="M70.9933 45.883C70.9355 45.3857 70.5128 44.9997 70 44.9997L69.8834 45.0064C69.386 45.0642 69 45.4868 69 45.9997V58.9997H62L61.8834 59.0064C61.386 59.0642 61 59.4868 61 59.9997C61 60.552 61.4477 60.9997 62 60.9997H70L70.1166 60.9929C70.614 60.9352 71 60.5125 71 59.9997V45.9997L70.9933 45.883Z" fill="#21402C"/>
<path d="M10 30.9997C10.5128 30.9997 10.9355 31.3857 10.9933 31.883L11 31.9997V49.9997C11 50.552 10.5523 50.9997 10 50.9997C9.48716 50.9997 9.06449 50.6136 9.00673 50.1163L9 49.9997V31.9997C9 31.4474 9.44772 30.9997 10 30.9997Z" fill="#21402C"/>
</svg>
