<svg width="80" height="80" viewBox="0 0 80 80" fill="none" xmlns="http://www.w3.org/2000/svg">
    <path fill-rule="evenodd" clip-rule="evenodd" d="M68 12.9995C67.4486 12.9995 67 12.5509 67 11.9995C67 11.4481 67.4486 10.9995 68 10.9995C68.5514 10.9995 69 11.4481 69 11.9995C69 12.5509 68.5514 12.9995 68 12.9995Z" fill="#DFDFDF"/>
    <path fill-rule="evenodd" clip-rule="evenodd" d="M41 75.9995C40.4486 75.9995 40 75.5509 40 74.9995C40 74.4481 40.4486 73.9995 41 73.9995C41.5514 73.9995 42 74.4481 42 74.9995C42 75.5509 41.5514 75.9995 41 75.9995Z" fill="#DFDFDF"/>
    <path fill-rule="evenodd" clip-rule="evenodd" d="M15 9.99951C14.4486 9.99951 14 9.55091 14 8.99951C14 8.44806 14.4486 7.99951 15 7.99951C15.5514 7.99951 16 8.44806 16 8.99951C16 9.55091 15.5514 9.99951 15 9.99951Z" fill="#DFDFDF"/>
    <path d="M54.1056 40.5523C54.4548 39.854 55.4171 39.8173 55.8308 40.442L55.8945 40.5523L67.8945 64.5523C68.2094 65.1822 67.7921 65.9175 67.1152 65.9931L67.0001 65.9995H63.0001C62.4478 65.9995 62.0001 65.5518 62.0001 64.9995C62.0001 64.4867 62.3861 64.064 62.8834 64.0062L63.0001 63.9995H65.3811L55.0001 43.2355L44.6181 63.9995H59.0001C59.5129 63.9995 59.9356 64.3856 59.9933 64.8829L60.0001 64.9995C60.0001 65.5123 59.614 65.935 59.1167 65.9928L59.0001 65.9995H43.0001C42.2958 65.9995 41.8248 65.2974 42.0598 64.6581L42.1056 64.5523L54.1056 40.5523Z" fill="#CE614A"/>
    <path d="M55.0001 49.9995C55.5524 49.9995 56.0001 50.4472 56.0001 50.9995V56.9995C56.0001 57.5518 55.5524 57.9995 55.0001 57.9995C54.4478 57.9995 54.0001 57.5518 54.0001 56.9995V50.9995C54.0001 50.4472 54.4478 49.9995 55.0001 49.9995Z" fill="#CE614A"/>
    <path d="M56.0001 60.9995C56.0001 60.4472 55.5524 59.9995 55.0001 59.9995C54.4478 59.9995 54.0001 60.4472 54.0001 60.9995C54.0001 61.5518 54.4478 61.9995 55.0001 61.9995C55.5524 61.9995 56.0001 61.5518 56.0001 60.9995Z" fill="#CE614A"/>
    <path d="M67.9933 18.8829C67.9355 18.3856 67.5128 17.9995 67 17.9995H13L12.8834 18.0062C12.386 18.064 12 18.4867 12 18.9995V64.9995L12.0067 65.1161C12.0645 65.6135 12.4872 65.9995 13 65.9995H37L37.1166 65.9928C37.614 65.935 38 65.5123 38 64.9995L37.9933 64.8829C37.9355 64.3856 37.5128 63.9995 37 63.9995H14V27.9995H51L51.1166 27.9928C51.614 27.935 52 27.5123 52 26.9995C52 26.4472 51.5523 25.9995 51 25.9995H14V19.9995H66V25.9995H57L56.8834 26.0062C56.386 26.064 56 26.4867 56 26.9995C56 27.5518 56.4477 27.9995 57 27.9995H66V52.9995L66.0067 53.1161C66.0645 53.6135 66.4872 53.9995 67 53.9995C67.5523 53.9995 68 53.5518 68 52.9995V18.9995L67.9933 18.8829Z" fill="#21402C"/>
    <path d="M17 23.9995C16.4486 23.9995 16 23.5509 16 22.9995C16 22.4481 16.4486 21.9995 17 21.9995C17.5514 21.9995 18 22.4481 18 22.9995C18 23.5509 17.5514 23.9995 17 23.9995Z" fill="#21402C"/>
    <path d="M20 22.9995C20 23.5509 20.4486 23.9995 21 23.9995C21.5514 23.9995 22 23.5509 22 22.9995C22 22.4481 21.5514 21.9995 21 21.9995C20.4486 21.9995 20 22.4481 20 22.9995Z" fill="#21402C"/>
    <path d="M25 23.9995C24.4486 23.9995 24 23.5509 24 22.9995C24 22.4481 24.4486 21.9995 25 21.9995C25.5514 21.9995 26 22.4481 26 22.9995C26 23.5509 25.5514 23.9995 25 23.9995Z" fill="#21402C"/>
    <path d="M63 21.9995C63.5523 21.9995 64 22.4472 64 22.9995C64 23.5123 63.614 23.935 63.1166 23.9928L63 23.9995H33C32.4477 23.9995 32 23.5518 32 22.9995C32 22.4867 32.386 22.064 32.8834 22.0062L33 21.9995H63Z" fill="#21402C"/>
    <path d="M46 34.9995C46 34.4472 45.5523 33.9995 45 33.9995H21L20.8834 34.0062C20.386 34.064 20 34.4867 20 34.9995C20 35.5518 20.4477 35.9995 21 35.9995H45L45.1166 35.9928C45.614 35.935 46 35.5123 46 34.9995Z" fill="#21402C"/>
    <path d="M41 39.9995C41.5523 39.9995 42 40.4472 42 40.9995C42 41.5123 41.614 41.935 41.1166 41.9928L41 41.9995H21C20.4477 41.9995 20 41.5518 20 40.9995C20 40.4867 20.386 40.064 20.8834 40.0062L21 39.9995H41Z" fill="#21402C"/>
    <path d="M36 46.9995C36 46.4472 35.5523 45.9995 35 45.9995H21L20.8834 46.0062C20.386 46.064 20 46.4867 20 46.9995C20 47.5518 20.4477 47.9995 21 47.9995H35L35.1166 47.9928C35.614 47.935 36 47.5123 36 46.9995Z" fill="#21402C"/>
</svg>
