<svg width="56" height="56" viewBox="0 0 56 56" fill="none" xmlns="http://www.w3.org/2000/svg">
<path fill-rule="evenodd" clip-rule="evenodd" d="M47.6004 9.09959C47.2144 9.09959 46.9004 8.78557 46.9004 8.39959C46.9004 8.01357 47.2144 7.69958 47.6004 7.69958C47.9864 7.69958 48.3004 8.01357 48.3004 8.39959C48.3004 8.78557 47.9864 9.09959 47.6004 9.09959Z" fill="#DFDFDF"/>
<path fill-rule="evenodd" clip-rule="evenodd" d="M28.7 53.1996C28.314 53.1996 28 52.8856 28 52.4996C28 52.1136 28.314 51.7996 28.7 51.7996C29.086 51.7996 29.4 52.1136 29.4 52.4996C29.4 52.8856 29.086 53.1996 28.7 53.1996Z" fill="#DFDFDF"/>
<path fill-rule="evenodd" clip-rule="evenodd" d="M10.5008 6.99961C10.1148 6.99961 9.80078 6.68559 9.80078 6.29961C9.80078 5.9136 10.1148 5.59961 10.5008 5.59961C10.8868 5.59961 11.2008 5.9136 11.2008 6.29961C11.2008 6.68559 10.8868 6.99961 10.5008 6.99961Z" fill="#DFDFDF"/>
<path d="M29.3996 23.7997C29.3996 23.0265 28.7728 22.3997 27.9996 22.3997C27.2264 22.3997 26.5996 23.0265 26.5996 23.7997V34.9997C26.5996 35.7729 27.2264 36.3997 27.9996 36.3997C28.7728 36.3997 29.3996 35.7729 29.3996 34.9997V23.7997Z" fill="#CE614A"/>
<path d="M29.3996 40.5997C29.3996 39.8265 28.7728 39.1997 27.9996 39.1997C27.2264 39.1997 26.5996 39.8265 26.5996 40.5997C26.5996 41.3729 27.2264 41.9997 27.9996 41.9997C28.7728 41.9997 29.3996 41.3729 29.3996 40.5997Z" fill="#CE614A"/>
<path d="M27.3732 8.78661C27.6176 8.29783 28.2913 8.2721 28.5809 8.70943L28.6254 8.78661L47.5254 46.5866C47.7459 47.0275 47.4537 47.5422 46.9799 47.5952L46.8993 47.5997H41.2993C40.9127 47.5997 40.5993 47.2863 40.5993 46.8997C40.5993 46.5407 40.8696 46.2448 41.2177 46.2044L41.2993 46.1997H45.766L27.9993 10.6649L10.2319 46.1997H37.0993C37.4583 46.1997 37.7542 46.4699 37.7946 46.818L37.7993 46.8997C37.7993 47.2586 37.5291 47.5545 37.181 47.5949L37.0993 47.5997H9.09934C8.60636 47.5997 8.27666 47.1082 8.44119 46.6607L8.47324 46.5866L27.3732 8.78661Z" fill="#21402C"/>
<path d="M41.9993 32.1997C41.6134 32.1997 41.2993 31.8856 41.2993 31.4997C41.2993 31.1136 41.6134 30.7997 41.9993 30.7997C42.3853 30.7997 42.6993 31.1136 42.6993 31.4997C42.6993 31.8856 42.3853 32.1997 41.9993 32.1997Z" fill="#21402C"/>
<path d="M43.9847 33.9157C43.7929 33.6224 43.4074 33.513 43.0863 33.6736C42.7405 33.8464 42.6003 34.2669 42.7732 34.6127L47.6732 44.4127L47.714 44.4836C47.9058 44.7769 48.2913 44.8863 48.6124 44.7258C48.9582 44.5529 49.0983 44.1324 48.9254 43.7866L44.0254 33.9866L43.9847 33.9157Z" fill="#21402C"/>
</svg>
