<svg width="147" height="37" viewBox="0 0 147 37" fill="none" xmlns="http://www.w3.org/2000/svg">
<path d="M3 35.6798V17.5358H7.572V18.9038C8.796 17.7158 10.344 16.8158 12.576 16.8158C14.88 16.8158 16.896 17.8238 18.084 19.7678C19.38 18.1838 21.108 16.8158 24.168 16.8158C27.912 16.8158 30.864 19.4078 30.864 24.5198V35.6798H26.256V24.6998C26.256 22.5038 25.068 21.1358 23.016 21.1358C21.036 21.1358 19.956 22.5038 19.236 23.7278C19.272 23.9798 19.272 24.2318 19.272 24.5198V35.6798H14.664V24.6998C14.664 22.5038 13.476 21.1358 11.424 21.1358C9.336 21.1358 8.256 22.6838 7.572 23.8358V35.6798H3Z" fill="#2A401A"/>
<path d="M38.674 36.2198C35.038 36.2198 32.554 34.1318 32.554 30.7838C32.554 28.0478 34.678 25.9958 38.566 25.3478L44.11 24.4118V23.9438C44.11 22.0358 42.67 20.8118 40.582 20.8118C38.818 20.8118 37.45 21.6398 36.478 22.9718L33.13 20.4158C34.75 18.1838 37.414 16.8158 40.726 16.8158C45.982 16.8158 48.682 19.9478 48.682 23.9438V35.6798H44.11V33.9158C42.958 35.3198 40.798 36.2198 38.674 36.2198ZM37.09 30.5678C37.09 31.7918 38.062 32.5838 39.61 32.5838C41.698 32.5838 43.21 31.6118 44.11 30.1718V27.6158L39.79 28.3358C37.882 28.6598 37.09 29.4518 37.09 30.5678Z" fill="#2A401A"/>
<path d="M68.1015 32.7278C66.4095 34.9958 63.6015 36.3998 60.1815 36.3998C53.7375 36.3998 50.1015 31.8998 50.1015 26.6078C50.1015 21.2438 53.4855 16.8158 59.4255 16.8158C64.4655 16.8158 67.7775 20.1998 67.7775 24.9518C67.7775 25.9598 67.6335 26.9318 67.4895 27.5438H54.7815C55.2135 30.9278 57.3015 32.2958 60.1455 32.2958C62.1255 32.2958 63.8535 31.4318 64.8255 30.1358L68.1015 32.7278ZM59.3175 20.5598C56.9775 20.5598 55.4295 21.8558 54.9255 24.2318H63.2775C63.2055 22.3958 61.8375 20.5598 59.3175 20.5598Z" fill="#2A401A"/>
<path d="M67.8951 33.0518L70.9191 30.3158C72.0351 31.7198 73.3671 32.7278 75.0951 32.7278C76.5711 32.7278 77.3271 31.8638 77.3271 30.7838C77.3271 27.6158 68.6511 28.8038 68.6511 22.4318C68.6511 19.2278 71.3511 16.8158 75.1311 16.8158C77.9031 16.8158 80.4231 18.1478 81.7191 19.9118L78.6951 22.5758C77.7591 21.4238 76.5711 20.4878 75.1671 20.4878C73.7271 20.4878 73.0431 21.2798 73.0431 22.2158C73.0431 25.3118 81.7191 24.2318 81.7191 30.4958C81.6471 34.3118 78.5871 36.3998 75.1671 36.3998C71.9271 36.3998 69.6231 35.1038 67.8951 33.0518Z" fill="#2A401A"/>
<path d="M84.8454 29.0558V21.6398H81.4614V17.5358H84.8454V12.9998H89.4534V17.5358H94.9974V21.6398H89.4534V29.0558C89.4534 31.0718 90.5334 31.8638 92.3334 31.8638C93.5934 31.8638 94.4214 31.7198 95.0334 31.4678V35.4638C94.1334 35.8598 93.0534 36.0398 91.5414 36.0398C87.0054 36.0398 84.8454 33.4838 84.8454 29.0558Z" fill="#2A401A"/>
<path d="M96.5719 35.6798V17.5358H101.144V19.3358C102.332 18.1118 103.88 17.1758 105.932 17.1758C106.544 17.1758 107.084 17.2838 107.516 17.4278V21.9278C106.94 21.7838 106.328 21.6758 105.5 21.6758C103.268 21.6758 101.828 22.8998 101.144 24.0518V35.6798H96.5719Z" fill="#2A401A"/>
<path d="M116.543 16.8158C122.447 16.8158 126.479 21.1718 126.479 26.6078C126.479 32.0438 122.447 36.3998 116.543 36.3998C110.639 36.3998 106.607 32.0438 106.607 26.6078C106.607 21.1718 110.639 16.8158 116.543 16.8158ZM116.615 32.0798C119.531 32.0798 121.727 29.7398 121.727 26.6078C121.727 23.4398 119.531 21.1358 116.615 21.1358C113.591 21.1358 111.359 23.4398 111.359 26.6078C111.359 29.7758 113.591 32.0798 116.615 32.0798Z" fill="#2A401A"/>
<path d="M139.517 34.4499C142.545 34.4499 145 31.9949 145 28.9665C145 25.9381 142.545 23.4831 139.517 23.4831C136.488 23.4831 134.033 25.9381 134.033 28.9665C134.033 31.9949 136.488 34.4499 139.517 34.4499Z" stroke="#CE614A" stroke-width="3" stroke-linecap="round" stroke-linejoin="round"/>
<path d="M111.5 14C113.572 12.4455 112.987 12.7681 115.569 12.56C118.151 12.3519 120.74 12.8798 123.034 14.0824C125.329 15.285 127.235 17.1132 128.533 19.3551C129.832 21.5969 130.468 24.1607 130.369 26.7494C130.326 27.8534 130.306 28.4072 130.575 28.6869C130.844 28.9665 131.343 28.9665 132.339 28.9665H134.033M128.55 12.5164L134.227 13.5802C138.504 14.3844 140.644 14.7847 141.907 16.3072C143.172 17.8298 143.172 20.0176 143.172 24.397M141.344 17.9998H139.517" stroke="#CE614A" stroke-width="3" stroke-linecap="round" stroke-linejoin="round"/>
<path d="M128.55 18.9137V13.5893C128.55 12.874 128.447 12.1734 128.241 11.4873L125.808 1.54962M112.1 12.5164V1.54962M110.272 1.54962H128.55M137.689 13.4303V10.6886C137.689 9.71907 138.074 8.78925 138.76 8.1037C139.445 7.41814 140.375 7.033 141.344 7.033M117.583 12.5164V1.54962" stroke="#CE614A" stroke-width="3" stroke-linecap="round" stroke-linejoin="round"/>
</svg>
