<?xml version="1.0" encoding="UTF-8" standalone="no"?><svg xmlns="http://www.w3.org/2000/svg" xmlns:xlink="http://www.w3.org/1999/xlink" contentStyleType="text/css" height="427px" preserveAspectRatio="none" style="width:449px;height:427px;background:#FFFFFF;" version="1.1" viewBox="0 0 449 427" width="449px" zoomAndPan="magnify"><defs/><g><rect height="26.2969" style="stroke:#00000000;stroke-width:1.0;fill:none;" width="263" x="94.5" y="10"/><text fill="#000000" font-family="sans-serif" font-size="14" font-weight="bold" lengthAdjust="spacing" textLength="253" x="99.5" y="27.9951">Envoi DAI via Module laboratoire</text><rect height="75.3984" style="stroke:#000000;stroke-width:1.5;fill:none;" width="433" x="10" y="135.5938"/><rect height="104.5313" style="stroke:#000000;stroke-width:1.5;fill:none;" width="433" x="10" y="224.9922"/><line style="stroke:#181818;stroke-width:0.5;fill:none;stroke-dasharray:5.0,5.0;" x1="51" x2="51" y1="118.5938" y2="346.5234"/><line style="stroke:#181818;stroke-width:0.5;fill:none;stroke-dasharray:5.0,5.0;" x1="159" x2="159" y1="118.5938" y2="346.5234"/><line style="stroke:#181818;stroke-width:0.5;fill:none;stroke-dasharray:5.0,5.0;" x1="256" x2="256" y1="118.5938" y2="346.5234"/><line style="stroke:#181818;stroke-width:0.5;fill:none;stroke-dasharray:5.0,5.0;" x1="387" x2="387" y1="118.5938" y2="346.5234"/><text fill="#000000" font-family="sans-serif" font-size="14" lengthAdjust="spacing" textLength="56" x="20" y="115.292">Maestro</text><ellipse cx="51" cy="50.7969" fill="#E2E2F0" rx="8" ry="8" style="stroke:#181818;stroke-width:0.5;"/><path d="M51,58.7969 L51,85.7969 M38,66.7969 L64,66.7969 M51,85.7969 L38,100.7969 M51,85.7969 L64,100.7969 " fill="none" style="stroke:#181818;stroke-width:0.5;"/><text fill="#000000" font-family="sans-serif" font-size="14" lengthAdjust="spacing" textLength="56" x="20" y="358.5186">Maestro</text><ellipse cx="51" cy="370.3203" fill="#E2E2F0" rx="8" ry="8" style="stroke:#181818;stroke-width:0.5;"/><path d="M51,378.3203 L51,405.3203 M38,386.3203 L64,386.3203 M51,405.3203 L38,420.3203 M51,405.3203 L64,420.3203 " fill="none" style="stroke:#181818;stroke-width:0.5;"/><text fill="#000000" font-family="sans-serif" font-size="14" lengthAdjust="spacing" textLength="128" x="92" y="115.292">Module laboratoire</text><ellipse cx="159" cy="50.7969" fill="#E2E2F0" rx="8" ry="8" style="stroke:#181818;stroke-width:0.5;"/><path d="M159,58.7969 L159,85.7969 M146,66.7969 L172,66.7969 M159,85.7969 L146,100.7969 M159,85.7969 L172,100.7969 " fill="none" style="stroke:#181818;stroke-width:0.5;"/><text fill="#000000" font-family="sans-serif" font-size="14" lengthAdjust="spacing" textLength="128" x="92" y="358.5186">Module laboratoire</text><ellipse cx="159" cy="370.3203" fill="#E2E2F0" rx="8" ry="8" style="stroke:#181818;stroke-width:0.5;"/><path d="M159,378.3203 L159,405.3203 M146,386.3203 L172,386.3203 M159,405.3203 L146,420.3203 M159,405.3203 L172,420.3203 " fill="none" style="stroke:#181818;stroke-width:0.5;"/><text fill="#000000" font-family="sans-serif" font-size="14" lengthAdjust="spacing" textLength="35" x="236" y="115.292">SFTP</text><ellipse cx="256.5" cy="50.7969" fill="#E2E2F0" rx="8" ry="8" style="stroke:#181818;stroke-width:0.5;"/><path d="M256.5,58.7969 L256.5,85.7969 M243.5,66.7969 L269.5,66.7969 M256.5,85.7969 L243.5,100.7969 M256.5,85.7969 L269.5,100.7969 " fill="none" style="stroke:#181818;stroke-width:0.5;"/><text fill="#000000" font-family="sans-serif" font-size="14" lengthAdjust="spacing" textLength="35" x="236" y="358.5186">SFTP</text><ellipse cx="256.5" cy="370.3203" fill="#E2E2F0" rx="8" ry="8" style="stroke:#181818;stroke-width:0.5;"/><path d="M256.5,378.3203 L256.5,405.3203 M243.5,386.3203 L269.5,386.3203 M256.5,405.3203 L243.5,420.3203 M256.5,405.3203 L269.5,420.3203 " fill="none" style="stroke:#181818;stroke-width:0.5;"/><text fill="#000000" font-family="sans-serif" font-size="14" lengthAdjust="spacing" textLength="85" x="342" y="115.292">Laboratoires</text><ellipse cx="387.5" cy="50.7969" fill="#E2E2F0" rx="8" ry="8" style="stroke:#181818;stroke-width:0.5;"/><path d="M387.5,58.7969 L387.5,85.7969 M374.5,66.7969 L400.5,66.7969 M387.5,85.7969 L374.5,100.7969 M387.5,85.7969 L400.5,100.7969 " fill="none" style="stroke:#181818;stroke-width:0.5;"/><text fill="#000000" font-family="sans-serif" font-size="14" lengthAdjust="spacing" textLength="85" x="342" y="358.5186">Laboratoires</text><ellipse cx="387.5" cy="370.3203" fill="#E2E2F0" rx="8" ry="8" style="stroke:#181818;stroke-width:0.5;"/><path d="M387.5,378.3203 L387.5,405.3203 M374.5,386.3203 L400.5,386.3203 M387.5,405.3203 L374.5,420.3203 M387.5,405.3203 L400.5,420.3203 " fill="none" style="stroke:#181818;stroke-width:0.5;"/><path d="M10,135.5938 L123,135.5938 L123,142.7266 L113,152.7266 L10,152.7266 L10,135.5938 " fill="#EEEEEE" style="stroke:#000000;stroke-width:1.5;"/><rect fill="none" height="75.3984" style="stroke:#000000;stroke-width:1.5;" width="433" x="10" y="135.5938"/><text fill="#000000" font-family="sans-serif" font-size="13" font-weight="bold" lengthAdjust="spacing" textLength="68" x="25" y="148.6606">Via email</text><polygon fill="#181818" points="147,169.8594,157,173.8594,147,177.8594,151,173.8594" style="stroke:#181818;stroke-width:1.0;"/><line style="stroke:#181818;stroke-width:1.0;" x1="51" x2="153" y1="173.8594" y2="173.8594"/><text fill="#000000" font-family="sans-serif" font-size="13" lengthAdjust="spacing" textLength="56" x="58" y="168.7935">DAI (API)</text><polygon fill="#181818" points="375.5,198.9922,385.5,202.9922,375.5,206.9922,379.5,202.9922" style="stroke:#181818;stroke-width:1.0;"/><line style="stroke:#181818;stroke-width:1.0;" x1="159" x2="381.5" y1="202.9922" y2="202.9922"/><text fill="#000000" font-family="sans-serif" font-size="13" lengthAdjust="spacing" textLength="71" x="166" y="197.9263">DAI (email)</text><path d="M10,224.9922 L119,224.9922 L119,232.125 L109,242.125 L10,242.125 L10,224.9922 " fill="#EEEEEE" style="stroke:#000000;stroke-width:1.5;"/><rect fill="none" height="104.5313" style="stroke:#000000;stroke-width:1.5;" width="433" x="10" y="224.9922"/><text fill="#000000" font-family="sans-serif" font-size="13" font-weight="bold" lengthAdjust="spacing" textLength="64" x="25" y="238.0591">Via SFTP</text><polygon fill="#181818" points="147,259.2578,157,263.2578,147,267.2578,151,263.2578" style="stroke:#181818;stroke-width:1.0;"/><line style="stroke:#181818;stroke-width:1.0;" x1="51" x2="153" y1="263.2578" y2="263.2578"/><text fill="#000000" font-family="sans-serif" font-size="13" lengthAdjust="spacing" textLength="56" x="58" y="258.1919">DAI (API)</text><polygon fill="#181818" points="244.5,288.3906,254.5,292.3906,244.5,296.3906,248.5,292.3906" style="stroke:#181818;stroke-width:1.0;"/><line style="stroke:#181818;stroke-width:1.0;" x1="159" x2="250.5" y1="292.3906" y2="292.3906"/><text fill="#000000" font-family="sans-serif" font-size="13" lengthAdjust="spacing" textLength="67" x="166" y="287.3247">DAI (SFTP)</text><polygon fill="#181818" points="267.5,317.5234,257.5,321.5234,267.5,325.5234,263.5,321.5234" style="stroke:#181818;stroke-width:1.0;"/><line style="stroke:#181818;stroke-width:1.0;" x1="261.5" x2="386.5" y1="321.5234" y2="321.5234"/><text fill="#000000" font-family="sans-serif" font-size="13" lengthAdjust="spacing" textLength="107" x="273.5" y="316.4575">récupération DAI</text><!--MD5=[487f946617829ca19817f0c97dbfd3ec]
@startuml
title Envoi DAI via Module laboratoire

actor Maestro
actor "Module laboratoire" as ModuleLabo
actor "SFTP" as SFTP
actor Laboratoires order 10

group Via email
  Maestro -> ModuleLabo : DAI (API)
  ModuleLabo -> Laboratoires : DAI (email)
end

group Via SFTP
  Maestro -> ModuleLabo : DAI (API)
  ModuleLabo -> SFTP : DAI (SFTP)
  Laboratoires -> SFTP : récupération DAI
end

@enduml

PlantUML version 1.2022.3(Tue Mar 29 16:10:57 UTC 2022)
(GPL source distribution)
Java Runtime: OpenJDK Runtime Environment
JVM: OpenJDK 64-Bit Server VM
Default Encoding: UTF-8
Language: en
Country: US
--></g></svg>