<?xml version="1.0" encoding="UTF-8" standalone="no"?><svg xmlns="http://www.w3.org/2000/svg" xmlns:xlink="http://www.w3.org/1999/xlink" contentStyleType="text/css" height="485px" preserveAspectRatio="none" style="width:692px;height:485px;background:#FFFFFF;" version="1.1" viewBox="0 0 692 485" width="692px" zoomAndPan="magnify"><defs/><g><rect height="26.2969" style="stroke:#00000000;stroke-width:1.0;fill:none;" width="323" x="186" y="10"/><text fill="#000000" font-family="sans-serif" font-size="14" font-weight="bold" lengthAdjust="spacing" textLength="313" x="191" y="27.9951">Réception RAI sans Module laboratoires</text><rect height="133.6641" style="stroke:#000000;stroke-width:1.5;fill:none;" width="676" x="10" y="135.5938"/><rect height="104.5313" style="stroke:#000000;stroke-width:1.5;fill:none;" width="676" x="10" y="283.2578"/><line style="stroke:#181818;stroke-width:0.5;fill:none;stroke-dasharray:5.0,5.0;" x1="65" x2="65" y1="118.5938" y2="404.7891"/><line style="stroke:#181818;stroke-width:0.5;fill:none;stroke-dasharray:5.0,5.0;" x1="175" x2="175" y1="118.5938" y2="404.7891"/><line style="stroke:#181818;stroke-width:0.5;fill:none;stroke-dasharray:5.0,5.0;" x1="260" x2="260" y1="118.5938" y2="404.7891"/><line style="stroke:#181818;stroke-width:0.5;fill:none;stroke-dasharray:5.0,5.0;" x1="507" x2="507" y1="118.5938" y2="404.7891"/><line style="stroke:#181818;stroke-width:0.5;fill:none;stroke-dasharray:5.0,5.0;" x1="645" x2="645" y1="118.5938" y2="404.7891"/><text fill="#000000" font-family="sans-serif" font-size="14" lengthAdjust="spacing" textLength="85" x="20" y="115.292">Laboratoires</text><ellipse cx="65.5" cy="50.7969" fill="#E2E2F0" rx="8" ry="8" style="stroke:#181818;stroke-width:0.5;"/><path d="M65.5,58.7969 L65.5,85.7969 M52.5,66.7969 L78.5,66.7969 M65.5,85.7969 L52.5,100.7969 M65.5,85.7969 L78.5,100.7969 " fill="none" style="stroke:#181818;stroke-width:0.5;"/><text fill="#000000" font-family="sans-serif" font-size="14" lengthAdjust="spacing" textLength="85" x="20" y="416.7842">Laboratoires</text><ellipse cx="65.5" cy="428.5859" fill="#E2E2F0" rx="8" ry="8" style="stroke:#181818;stroke-width:0.5;"/><path d="M65.5,436.5859 L65.5,463.5859 M52.5,444.5859 L78.5,444.5859 M65.5,463.5859 L52.5,478.5859 M65.5,463.5859 L78.5,478.5859 " fill="none" style="stroke:#181818;stroke-width:0.5;"/><text fill="#000000" font-family="sans-serif" font-size="14" lengthAdjust="spacing" textLength="103" x="121" y="115.292">Boîte mail Sigal</text><ellipse cx="175.5" cy="50.7969" fill="#E2E2F0" rx="8" ry="8" style="stroke:#181818;stroke-width:0.5;"/><path d="M175.5,58.7969 L175.5,85.7969 M162.5,66.7969 L188.5,66.7969 M175.5,85.7969 L162.5,100.7969 M175.5,85.7969 L188.5,100.7969 " fill="none" style="stroke:#181818;stroke-width:0.5;"/><text fill="#000000" font-family="sans-serif" font-size="14" lengthAdjust="spacing" textLength="103" x="121" y="416.7842">Boîte mail Sigal</text><ellipse cx="175.5" cy="428.5859" fill="#E2E2F0" rx="8" ry="8" style="stroke:#181818;stroke-width:0.5;"/><path d="M175.5,436.5859 L175.5,463.5859 M162.5,444.5859 L188.5,444.5859 M175.5,463.5859 L162.5,478.5859 M175.5,463.5859 L188.5,478.5859 " fill="none" style="stroke:#181818;stroke-width:0.5;"/><text fill="#000000" font-family="sans-serif" font-size="14" lengthAdjust="spacing" textLength="35" x="240" y="115.292">SFTP</text><ellipse cx="260.5" cy="50.7969" fill="#E2E2F0" rx="8" ry="8" style="stroke:#181818;stroke-width:0.5;"/><path d="M260.5,58.7969 L260.5,85.7969 M247.5,66.7969 L273.5,66.7969 M260.5,85.7969 L247.5,100.7969 M260.5,85.7969 L273.5,100.7969 " fill="none" style="stroke:#181818;stroke-width:0.5;"/><text fill="#000000" font-family="sans-serif" font-size="14" lengthAdjust="spacing" textLength="35" x="240" y="416.7842">SFTP</text><ellipse cx="260.5" cy="428.5859" fill="#E2E2F0" rx="8" ry="8" style="stroke:#181818;stroke-width:0.5;"/><path d="M260.5,436.5859 L260.5,463.5859 M247.5,444.5859 L273.5,444.5859 M260.5,463.5859 L247.5,478.5859 M260.5,463.5859 L273.5,478.5859 " fill="none" style="stroke:#181818;stroke-width:0.5;"/><text fill="#000000" font-family="sans-serif" font-size="14" lengthAdjust="spacing" textLength="187" x="411" y="115.292">Module de redirection Sigal</text><ellipse cx="507.5" cy="50.7969" fill="#E2E2F0" rx="8" ry="8" style="stroke:#181818;stroke-width:0.5;"/><path d="M507.5,58.7969 L507.5,85.7969 M494.5,66.7969 L520.5,66.7969 M507.5,85.7969 L494.5,100.7969 M507.5,85.7969 L520.5,100.7969 " fill="none" style="stroke:#181818;stroke-width:0.5;"/><text fill="#000000" font-family="sans-serif" font-size="14" lengthAdjust="spacing" textLength="187" x="411" y="416.7842">Module de redirection Sigal</text><ellipse cx="507.5" cy="428.5859" fill="#E2E2F0" rx="8" ry="8" style="stroke:#181818;stroke-width:0.5;"/><path d="M507.5,436.5859 L507.5,463.5859 M494.5,444.5859 L520.5,444.5859 M507.5,463.5859 L494.5,478.5859 M507.5,463.5859 L520.5,478.5859 " fill="none" style="stroke:#181818;stroke-width:0.5;"/><text fill="#000000" font-family="sans-serif" font-size="14" lengthAdjust="spacing" textLength="56" x="614" y="115.292">Maestro</text><ellipse cx="645" cy="50.7969" fill="#E2E2F0" rx="8" ry="8" style="stroke:#181818;stroke-width:0.5;"/><path d="M645,58.7969 L645,85.7969 M632,66.7969 L658,66.7969 M645,85.7969 L632,100.7969 M645,85.7969 L658,100.7969 " fill="none" style="stroke:#181818;stroke-width:0.5;"/><text fill="#000000" font-family="sans-serif" font-size="14" lengthAdjust="spacing" textLength="56" x="614" y="416.7842">Maestro</text><ellipse cx="645" cy="428.5859" fill="#E2E2F0" rx="8" ry="8" style="stroke:#181818;stroke-width:0.5;"/><path d="M645,436.5859 L645,463.5859 M632,444.5859 L658,444.5859 M645,463.5859 L632,478.5859 M645,463.5859 L658,478.5859 " fill="none" style="stroke:#181818;stroke-width:0.5;"/><path d="M10,135.5938 L123,135.5938 L123,142.7266 L113,152.7266 L10,152.7266 L10,135.5938 " fill="#EEEEEE" style="stroke:#000000;stroke-width:1.5;"/><rect fill="none" height="133.6641" style="stroke:#000000;stroke-width:1.5;" width="676" x="10" y="135.5938"/><text fill="#000000" font-family="sans-serif" font-size="13" font-weight="bold" lengthAdjust="spacing" textLength="68" x="25" y="148.6606">Via email</text><polygon fill="#181818" points="163.5,169.8594,173.5,173.8594,163.5,177.8594,167.5,173.8594" style="stroke:#181818;stroke-width:1.0;"/><line style="stroke:#181818;stroke-width:1.0;" x1="65.5" x2="169.5" y1="173.8594" y2="173.8594"/><text fill="#000000" font-family="sans-serif" font-size="13" lengthAdjust="spacing" textLength="69" x="72.5" y="168.7935">RAI (email)</text><polygon fill="#181818" points="186.5,198.9922,176.5,202.9922,186.5,206.9922,182.5,202.9922" style="stroke:#181818;stroke-width:1.0;"/><line style="stroke:#181818;stroke-width:1.0;" x1="180.5" x2="506.5" y1="202.9922" y2="202.9922"/><text fill="#000000" font-family="sans-serif" font-size="13" lengthAdjust="spacing" textLength="44" x="192.5" y="197.9263">lecture</text><polygon fill="#181818" points="271.5,228.125,261.5,232.125,271.5,236.125,267.5,232.125" style="stroke:#181818;stroke-width:1.0;"/><line style="stroke:#181818;stroke-width:1.0;" x1="265.5" x2="506.5" y1="232.125" y2="232.125"/><text fill="#000000" font-family="sans-serif" font-size="13" lengthAdjust="spacing" textLength="61" x="277.5" y="227.0591">dépôt RAI</text><polygon fill="#181818" points="271.5,257.2578,261.5,261.2578,271.5,265.2578,267.5,261.2578" style="stroke:#181818;stroke-width:1.0;"/><line style="stroke:#181818;stroke-width:1.0;" x1="265.5" x2="644" y1="261.2578" y2="261.2578"/><text fill="#000000" font-family="sans-serif" font-size="13" lengthAdjust="spacing" textLength="105" x="277.5" y="256.1919">récupération RAI</text><path d="M10,283.2578 L119,283.2578 L119,290.3906 L109,300.3906 L10,300.3906 L10,283.2578 " fill="#EEEEEE" style="stroke:#000000;stroke-width:1.5;"/><rect fill="none" height="104.5313" style="stroke:#000000;stroke-width:1.5;" width="676" x="10" y="283.2578"/><text fill="#000000" font-family="sans-serif" font-size="13" font-weight="bold" lengthAdjust="spacing" textLength="64" x="25" y="296.3247">Via SFTP</text><polygon fill="#181818" points="248.5,317.5234,258.5,321.5234,248.5,325.5234,252.5,321.5234" style="stroke:#181818;stroke-width:1.0;"/><line style="stroke:#181818;stroke-width:1.0;" x1="65.5" x2="254.5" y1="321.5234" y2="321.5234"/><text fill="#000000" font-family="sans-serif" font-size="13" lengthAdjust="spacing" textLength="61" x="72.5" y="316.4575">dépôt RAI</text><polygon fill="#181818" points="271.5,346.6563,261.5,350.6563,271.5,354.6563,267.5,350.6563" style="stroke:#181818;stroke-width:1.0;"/><line style="stroke:#181818;stroke-width:1.0;" x1="265.5" x2="506.5" y1="350.6563" y2="350.6563"/><text fill="#000000" font-family="sans-serif" font-size="13" lengthAdjust="spacing" textLength="223" x="277.5" y="345.5903">déplacement RAI (autre répertoire)</text><polygon fill="#181818" points="271.5,375.7891,261.5,379.7891,271.5,383.7891,267.5,379.7891" style="stroke:#181818;stroke-width:1.0;"/><line style="stroke:#181818;stroke-width:1.0;" x1="265.5" x2="644" y1="379.7891" y2="379.7891"/><text fill="#000000" font-family="sans-serif" font-size="13" lengthAdjust="spacing" textLength="105" x="277.5" y="374.7231">récupération RAI</text><!--MD5=[213c2f147feb659d946d87cfdd4584ac]
@startuml
title Réception RAI sans Module laboratoires

actor Laboratoires
actor "Boîte mail Sigal" as MailSigal
actor "SFTP" as SFTP
actor "Module de redirection Sigal" as ModuleRedirection
actor Maestro order 10

group Via email
  Laboratoires -> MailSigal : RAI (email)
  ModuleRedirection -> MailSigal : lecture
  ModuleRedirection -> SFTP : dépôt RAI
  Maestro -> SFTP : récupération RAI
end

group Via SFTP
  Laboratoires -> SFTP : dépôt RAI
  ModuleRedirection -> SFTP : déplacement RAI (autre répertoire)
  Maestro -> SFTP : récupération RAI
end

@enduml

PlantUML version 1.2022.3(Tue Mar 29 16:10:57 UTC 2022)
(GPL source distribution)
Java Runtime: OpenJDK Runtime Environment
JVM: OpenJDK 64-Bit Server VM
Default Encoding: UTF-8
Language: en
Country: US
--></g></svg>